<svg width="64" height="64" viewBox="0 0 64 64" fill="none" xmlns="http://www.w3.org/2000/svg">
<rect width="64" height="64" rx="32" fill="#BF9E77"/>
<path d="M13.254 11.0565C12.4088 11.2631 11.6386 11.9017 11.2348 12.7094L11 13.179V32.0095V50.8399L11.263 51.3752C11.5447 51.9575 12.0425 52.4553 12.6623 52.784L13.0662 53H26.1207H39.1752L39.6448 52.7464C40.2647 52.4177 40.753 51.9012 41.0442 51.2625C41.2884 50.746 41.2884 50.7366 41.2884 48.0881C41.2884 45.5617 41.279 45.4303 41.1005 45.2518C40.8188 44.9701 40.321 44.9701 40.0205 45.2612C39.842 45.4303 39.8326 45.5993 39.7857 48.0506C39.7387 50.5488 39.7293 50.6615 39.5321 50.9432C39.0719 51.5912 40.0205 51.5443 26.0925 51.5443H13.517L13.2071 51.3377C13.038 51.2156 12.8032 50.9996 12.6999 50.8587L12.5027 50.5957V32.0095V13.4232L12.6999 13.1696C12.8032 13.0287 13.0098 12.8221 13.1507 12.7188C13.4043 12.5216 13.4325 12.5216 26.1207 12.5216C38.8089 12.5216 38.8371 12.5216 39.0907 12.7188C39.2316 12.8221 39.4382 13.0287 39.5415 13.1696C39.7293 13.4138 39.7387 13.5829 39.7857 16.344L39.8326 19.2555L40.0581 19.4339C40.3492 19.6687 40.8563 19.6687 41.1099 19.4151C41.2884 19.2367 41.2978 19.1428 41.2696 16.1562C41.2414 13.1602 41.232 13.0757 41.0254 12.6813C40.6967 12.0614 40.1989 11.5636 39.6166 11.2819L39.0813 11.0189L26.3085 11.0001C19.2835 11.0001 13.4137 11.0189 13.254 11.0565Z" fill="white"/>
<path d="M46.6416 15.0104C45.9842 15.2546 45.2517 15.7523 44.8666 16.2313C44.7069 16.4379 41.9458 21.7161 38.7526 27.971L32.9297 39.335V43.0917V46.8578L33.1645 47.0832C33.6153 47.5434 33.7186 47.4964 36.9869 45.1673L40.0017 43.0165L45.2517 32.7514C48.1443 27.0975 50.5298 22.458 50.558 22.4299C50.6331 22.3453 51.1121 22.7022 51.3187 22.9934C51.4314 23.1624 51.5253 23.4254 51.5253 23.585C51.5253 23.7729 50.6143 25.6512 48.8956 29.0041C47.4024 31.9343 46.266 34.2541 46.266 34.3949C46.266 34.9584 47.083 35.3247 47.4681 34.9397C47.6559 34.7518 52.6899 24.9468 52.8965 24.3739C53.2628 23.3315 52.7932 21.9978 51.8447 21.3968C51.6005 21.2465 51.3657 21.1056 51.3187 21.0962C51.2718 21.0774 51.3751 20.7675 51.5441 20.4106C51.8353 19.8002 51.854 19.6875 51.854 18.7671C51.854 17.8561 51.8353 17.734 51.5629 17.1611C50.8491 15.6584 49.5343 14.8225 47.8907 14.8225C47.4024 14.8319 46.9797 14.8883 46.6416 15.0104ZM49.2338 16.6821C50.3138 17.3771 50.6801 18.7107 50.1448 19.9129L49.9381 20.3543L47.7968 19.2648C46.6228 18.6638 45.6179 18.1472 45.571 18.1003C45.4771 18.0157 45.7964 17.4428 46.1627 17.039C46.2941 16.8887 46.6228 16.6727 46.8764 16.5412C47.2803 16.344 47.4493 16.3252 48.0598 16.3534C48.6796 16.3816 48.8487 16.4285 49.2338 16.6821ZM47.0924 20.6266C48.7642 21.4719 49.1774 21.7255 49.1304 21.8476C49.0271 22.1293 39.2128 41.2603 39.1376 41.3354C39.0719 41.4012 35.3715 39.6073 34.8268 39.2505C34.7235 39.1941 35.6157 37.3721 38.7056 31.3426C44.5848 19.8659 44.7727 19.509 44.8854 19.5372C44.9511 19.556 45.9373 20.0443 47.0924 20.6266ZM36.245 41.7299C37.156 42.1901 37.9073 42.5939 37.9073 42.6221C37.9073 42.6691 34.6578 44.9982 34.5169 45.0452C34.4699 45.0639 34.4324 44.1905 34.4324 42.9508C34.4324 41.7768 34.4699 40.8377 34.5169 40.8564C34.5545 40.8658 35.334 41.2603 36.245 41.7299Z" fill="white"/>
<path d="M16.0528 15.7053L15.7898 15.9307V19.3118V22.6928L16.0152 22.937L16.2406 23.1812H26.1395H36.0384L36.2638 22.9464L36.4986 22.721V19.3305V15.9401L36.2638 15.7147L36.0384 15.4799H26.1771H16.3157L16.0528 15.7053ZM34.9959 19.3305V21.6785H26.1207H17.2455V19.3305V16.9826H26.1207H34.9959V19.3305Z" fill="white"/>
<path d="M16.1373 26.5245C15.7052 26.8251 15.6865 27.4355 16.0997 27.7455C16.2312 27.8488 18.1847 27.8676 26.1488 27.877H36.0384L36.2638 27.6422C36.6394 27.2665 36.5455 26.7406 36.0571 26.487C35.9069 26.4024 33.3335 26.3743 26.1019 26.3743C17.3112 26.3743 16.3251 26.3931 16.1373 26.5245Z" fill="white"/>
<path d="M16.2124 31.0047C15.7146 31.2582 15.6676 32.0472 16.1185 32.2913C16.2312 32.3477 19.2553 32.3853 24.2893 32.3853H32.2816L32.507 32.1505C32.817 31.8405 32.8076 31.493 32.4695 31.1549L32.1971 30.8826H24.3174C18.1659 30.8826 16.4002 30.9108 16.2124 31.0047Z" fill="white"/>
<path d="M16.2125 35.5125C15.8556 35.6909 15.696 36.0854 15.8368 36.4329C15.9026 36.5831 16.0341 36.7522 16.128 36.7991C16.2313 36.8555 18.551 36.8931 22.0636 36.8931H27.8301L28.0273 36.6771C28.403 36.2732 28.2621 35.6721 27.755 35.4937C27.2948 35.334 16.5318 35.3528 16.2125 35.5125Z" fill="white"/>
<path d="M24.233 45.9096C23.97 46.0129 23.7258 46.3604 23.7258 46.6234C23.7258 46.7361 23.8104 46.9333 23.9231 47.0742L24.1109 47.3184H27.0035H29.8962L30.0934 47.1023C30.3 46.8863 30.3564 46.5388 30.2437 46.2383C30.0934 45.8532 29.7741 45.8157 27.0411 45.8251C25.6042 45.8251 24.3363 45.8626 24.233 45.9096Z" fill="white"/>
</svg>
