<svg width="64" height="64" viewBox="0 0 64 64" fill="none" xmlns="http://www.w3.org/2000/svg">
<rect width="64" height="64" rx="32" fill="#BF9E77"/>
<path d="M20.3205 12.0228C20.2182 12.06 19.8277 12.4133 19.4464 12.8039C18.8513 13.4269 18.7769 13.5385 18.8234 13.7709C18.9815 14.4125 19.6138 14.5241 20.1903 14.0034L20.5622 13.6686L21.957 15.0541C22.7195 15.8166 23.3425 16.4768 23.3425 16.5326C23.3425 16.5791 20.9156 19.0524 17.9494 22.0187L12.5563 27.4118L11.115 25.9705L9.67372 24.5292L13.7186 20.4844C17.3729 16.8208 17.7634 16.4024 17.7634 16.1327C17.7634 15.6771 17.4194 15.3982 16.9265 15.4539C16.8521 15.4725 14.8065 17.4531 12.3982 19.8614C8.55791 23.6924 8 24.2875 8 24.5292C8 24.7617 8.30685 25.1058 10.1201 26.919C12.4912 29.2901 12.5191 29.3087 13.1421 28.7601L13.4582 28.4811L13.9882 29.039C14.6763 29.7643 14.946 30.3501 15.0668 31.4566C15.3644 34.1439 16.3593 36.329 18.1074 38.1515L18.7862 38.8675L18.6467 39.2673C18.5724 39.4812 18.5073 39.9461 18.5073 40.2902C18.5073 41.6012 19.5115 42.8007 20.7854 43.0053C20.9528 43.0332 20.9714 43.1076 20.9714 43.7306C20.9807 45.395 22.1988 46.6131 23.8539 46.6131C24.3746 46.6131 24.4583 46.6317 24.4583 46.7805C24.4583 47.4779 25.1836 48.5007 25.9832 48.9191C26.3924 49.133 26.569 49.1702 27.2478 49.1702C27.9359 49.1702 28.1033 49.133 28.531 48.9098C28.81 48.7611 29.0424 48.6588 29.0517 48.6774C29.061 48.696 29.154 48.8912 29.2563 49.1237C29.526 49.7467 30.8835 51.1043 31.553 51.4018C32.5573 51.8668 33.7847 51.6808 34.6587 50.9462C34.9842 50.6765 35.5235 49.6816 35.5235 49.3655C35.5235 49.1795 35.57 49.1609 36.2488 49.1702C37.1321 49.1702 37.8016 48.8912 38.3874 48.2775C38.75 47.9056 39.1499 47.0873 39.1499 46.7247C39.1499 46.5945 39.2522 46.5666 39.8287 46.5666C40.9631 46.5573 41.7906 46.0366 42.3114 45.0138C42.5438 44.5303 42.5903 44.335 42.5903 43.7399V43.0332L43.1296 42.8751C44.5709 42.4474 45.4542 40.7272 44.9707 39.3045L44.8219 38.8582L45.4542 38.2073C47.221 36.3662 48.2438 34.1346 48.5413 31.4566C48.6622 30.3501 48.9226 29.7643 49.62 29.039L50.15 28.4811L50.4661 28.7601C51.0891 29.3087 51.117 29.2901 53.4881 26.919C55.3013 25.1151 55.6082 24.7617 55.6082 24.5292C55.6082 24.2875 54.8271 23.4785 49.5456 18.1784C46.2074 14.8309 43.39 12.0693 43.2877 12.0321C43.1854 11.9856 42.9994 11.9949 42.8693 12.0414C42.7391 12.0786 41.7163 13.0363 40.5911 14.1615C38.7036 16.049 38.5548 16.2257 38.5548 16.5233C38.5548 16.765 38.6292 16.9324 38.8244 17.137L39.0941 17.4159L38.6385 17.8808C37.9318 18.5968 37.3088 18.8851 36.0628 19.0432C34.7052 19.2198 33.7103 19.4802 32.7804 19.8986C32.3713 20.0846 31.9343 20.2334 31.8041 20.2334C31.6739 20.2334 31.2369 20.0846 30.8277 19.8986C29.8979 19.4802 28.903 19.2198 27.5454 19.0432C26.2994 18.8851 25.6764 18.5968 24.9697 17.8808L24.5141 17.4159L24.7837 17.137C24.979 16.9324 25.0534 16.765 25.0534 16.5233C25.0534 16.2257 24.9046 16.049 23.017 14.1615C21.8919 13.0363 20.8691 12.0786 20.7389 12.0414C20.6087 11.9949 20.4228 11.9856 20.3205 12.0228ZM48.5227 19.1175L53.9344 24.5292L52.4932 25.9705L51.0612 27.4025L50.1221 26.4912C49.2852 25.6637 49.1736 25.58 48.9412 25.6451C48.5506 25.7381 48.3554 25.9612 48.3554 26.3146C48.3554 26.5563 48.4483 26.733 48.7738 27.077L49.1829 27.5141L48.718 27.979C47.751 28.9088 47.3325 29.8201 47.1466 31.4101C46.8862 33.6139 45.975 35.6316 44.543 37.1566L43.9665 37.7796L43.204 37.0636C42.2463 36.1616 41.6698 35.8827 40.7771 35.8827C39.2708 35.8827 38.1084 36.9799 37.969 38.5327L37.9132 39.0628L37.5319 39.1185C36.3138 39.3138 35.3096 40.3366 35.1608 41.5454L35.105 42.0104L34.5471 42.0662C34.2403 42.0941 33.8033 42.2149 33.5708 42.3265C33.3011 42.466 32.2504 43.433 30.5488 45.1254C28.3079 47.357 27.8987 47.7196 27.6012 47.7754C26.9038 47.9056 26.2808 47.6359 25.9925 47.078C25.8252 46.7619 25.8066 46.0366 25.9553 45.7484C26.0111 45.6368 27.3315 44.2699 28.8751 42.7078C30.7162 40.8667 31.7204 39.7787 31.7576 39.6207C31.8134 39.4161 31.7669 39.3138 31.5344 39.0721C31.2927 38.8396 31.1904 38.7931 30.9858 38.8489C30.8184 38.8861 29.6747 39.9647 27.6663 41.9639C25.9832 43.6469 24.4769 45.0696 24.3374 45.1254C23.203 45.5438 22.0593 44.5117 22.4126 43.3865C22.5056 43.1076 23.2123 42.3451 25.6299 39.9182C28.2707 37.2589 28.7356 36.7567 28.7356 36.5243C28.7356 36.1616 28.4008 35.8269 28.0475 35.8269C27.7964 35.8269 27.4245 36.1616 25.0162 38.5792C21.7803 41.8244 21.6037 41.9453 20.6831 41.4897C20.1717 41.2479 19.902 40.8202 19.902 40.253C19.902 39.6858 19.9857 39.537 20.7389 38.7559C21.4549 38.012 21.5479 37.8075 21.3526 37.4262C21.0829 36.9055 20.6924 36.9055 20.1252 37.4262L19.6975 37.8261L19.0931 37.1845C17.6518 35.6595 16.722 33.6325 16.4616 31.4101C16.2756 29.8201 15.9316 29.0483 14.9646 28.0627L14.4159 27.5048L18.9722 22.9485L23.5191 18.4016L24.105 18.9595C25.1371 19.9451 25.7508 20.2148 27.4617 20.4379C29.3586 20.689 30.9765 21.312 32.362 22.3441C32.6967 22.5952 34.0636 23.897 35.4026 25.2452C37.5226 27.3746 37.8388 27.7372 37.9039 28.0441C38.0434 28.8344 37.9411 28.9739 35.2166 31.7077C33.1152 33.7998 32.6224 34.2461 32.3155 34.3298C31.302 34.5995 30.3535 33.7254 30.5488 32.6933C30.6046 32.3865 30.8835 32.0703 32.5108 30.4245C34.1752 28.7415 34.4077 28.4811 34.4077 28.2207C34.4077 27.8209 34.1194 27.5513 33.7196 27.5513C33.5429 27.5513 33.3662 27.5977 33.3383 27.6442C33.3011 27.7 33.0594 27.8674 32.799 28.0162C32.4178 28.2393 32.2039 28.2951 31.7762 28.2951C30.6511 28.2951 29.8793 27.6628 29.6747 26.5656C29.5632 25.9984 29.7026 25.4684 30.0839 24.8919C30.2605 24.6315 30.4093 24.3061 30.4093 24.1759C30.4093 23.8226 30.1025 23.5529 29.7212 23.5529C29.3493 23.5529 28.9774 23.9156 28.5682 24.6966C28.3358 25.1429 28.3172 25.2638 28.3172 26.203C28.3172 27.2072 28.3265 27.2351 28.6705 27.8767L29.0145 28.5276L25.6671 31.875C23.5006 34.0416 22.3196 35.2969 22.3196 35.4178C22.3196 35.9106 22.9054 36.2918 23.3239 36.0686C23.4634 35.9943 25.0534 34.4507 26.8666 32.6282C30.1118 29.383 30.1676 29.3366 30.4 29.4481C30.5302 29.5225 30.7813 29.6062 30.9486 29.6434L31.2648 29.7085L30.3814 30.6012C29.3679 31.6426 29.154 32.0796 29.1633 33.0373C29.1726 34.4228 30.1676 35.5479 31.5902 35.7804C32.1016 35.8641 33.0036 35.6223 33.5057 35.2783C33.7196 35.1295 35.0121 33.8835 36.3789 32.5073C39.2243 29.6434 39.2894 29.5504 39.2894 28.3416C39.2801 27.2165 39.1313 26.9747 37.1507 24.957C36.2302 24.0178 34.9935 22.809 34.4077 22.2697C33.8219 21.7304 33.329 21.2655 33.3104 21.2283C33.2825 21.1446 34.482 20.7355 35.198 20.5867C35.4584 20.5309 36.0256 20.4472 36.4719 20.3914C37.8109 20.2334 38.5269 19.8986 39.5032 18.9595L40.089 18.4016L43.2691 21.5816C46.6909 24.9942 46.663 24.9756 47.1838 24.5664C47.3511 24.4363 47.4255 24.2875 47.4255 24.0829C47.4255 23.8133 47.0536 23.4134 43.8456 20.2055C41.8743 18.2342 40.2657 16.5884 40.2657 16.5326C40.2657 16.4396 42.9622 13.6965 43.0552 13.6965C43.0831 13.6965 45.5379 16.1327 48.5227 19.1175ZM41.1955 37.3146C41.5396 37.4169 43.3342 39.1092 43.576 39.5649C43.7526 39.9089 43.7433 40.4575 43.5388 40.8481C43.1575 41.6105 42.1254 41.843 41.4187 41.3223C40.7027 40.7923 39.5497 39.5184 39.4288 39.1092C39.2057 38.3747 39.5032 37.7145 40.2099 37.3983C40.6562 37.1938 40.7585 37.1845 41.1955 37.3146ZM38.4711 40.5784C38.7686 40.69 40.8608 42.7264 41.0654 43.0983C41.2606 43.4795 41.2327 44.1583 40.991 44.5489C40.7213 44.9952 40.1076 45.2555 39.5404 45.1719C39.1499 45.1161 39.0104 45.0045 37.9597 43.9816C37.3274 43.3587 36.7509 42.7357 36.6765 42.5962C36.4812 42.2149 36.5091 41.5269 36.7416 41.1549C37.0856 40.597 37.8481 40.3366 38.4711 40.5784ZM35.5049 43.5818C35.8675 43.7678 37.5412 45.5066 37.6621 45.8134C38.062 46.8735 37.1972 47.9428 36.0814 47.7754C35.7094 47.7196 35.5607 47.6081 34.6494 46.7247C33.3662 45.4601 33.2082 45.1161 33.5336 44.2885C33.8219 43.5632 34.7982 43.2192 35.5049 43.5818ZM32.6038 46.7154C33.1059 47.0222 34.0171 48.0637 34.1194 48.4449C34.2868 49.0679 34.0543 49.6723 33.515 50.0443C33.2453 50.2302 33.1152 50.2581 32.6409 50.2209C32.0737 50.1837 32.0737 50.1744 31.3299 49.4399C30.4372 48.5658 30.3907 48.4821 30.3907 47.9056C30.3907 46.734 31.5902 46.0831 32.6038 46.7154Z" fill="white"/>
</svg>
