<svg width="64" height="64" viewBox="0 0 64 64" fill="none" xmlns="http://www.w3.org/2000/svg">
<rect width="64" height="64" rx="32" fill="#BF9E77"/>
<path d="M22.8958 16.1095C22.4673 16.2494 21.7329 17.0013 21.6017 17.4472C21.5405 17.6571 21.4968 18.3216 21.4968 19.0036V20.1927H17.16C14.0035 20.1927 12.7182 20.219 12.4559 20.2976C12.2286 20.3676 11.9313 20.5687 11.6602 20.8485C11.3804 21.1195 11.1793 21.4168 11.1094 21.6442C10.9695 22.1163 10.9608 27.9483 11.1007 28.4467C11.2231 28.8926 11.7652 29.4697 12.2898 29.7057C12.8144 29.9506 23.4553 33.3081 23.6914 33.3081C24.1811 33.3081 24.4871 32.46 24.1199 32.1277C24.0237 32.0403 21.593 31.2271 18.7251 30.3265C15.8484 29.4172 13.3215 28.6128 13.1117 28.5341C12.3597 28.2456 12.4034 28.4554 12.4034 25.0454V22.0201L12.622 21.8103L12.8319 21.5917H28.4917H44.1514L44.3613 21.8103L44.5799 22.0201V25.0367V28.0445L44.3176 28.2631C44.0465 28.4991 43.8017 28.5778 37.1653 30.6763C34.892 31.3933 32.9509 32.049 32.8547 32.1365C32.4875 32.4687 32.8022 33.3081 33.2919 33.3081C33.5367 33.3081 44.1689 29.9418 44.6148 29.732C45.1569 29.4609 45.6378 29.0325 45.8127 28.639C45.9613 28.3155 45.9788 28.0095 45.9788 25.1416C45.9788 22.9295 45.9439 21.8977 45.8739 21.6442C45.734 21.1633 45.0083 20.4375 44.5274 20.2976C44.2651 20.219 42.9798 20.1927 39.8233 20.1927H35.4865V19.0036C35.4865 18.3216 35.4428 17.6571 35.3816 17.4472C35.2417 16.9663 34.516 16.2406 34.0351 16.1007C33.5542 15.9608 23.3504 15.9696 22.8958 16.1095ZM33.869 17.6134C34.0788 17.8145 34.0876 17.8669 34.0876 19.0123V20.1927H28.4917H22.8958V19.0123C22.8958 17.8669 22.9045 17.8145 23.1143 17.6134L23.3242 17.3948H28.4917H33.6591L33.869 17.6134Z" fill="white"/>
<path d="M25.9036 30.2039L25.6851 30.4225L25.7113 33.3778L25.7375 36.3244L26.0348 36.8752C26.3671 37.4873 26.6469 37.7583 27.3026 38.0993C27.6786 38.2917 27.8622 38.3267 28.4918 38.3267C29.13 38.3267 29.2962 38.2917 29.6896 38.0906C30.2667 37.7933 30.6951 37.3649 31.0099 36.779L31.246 36.3244L31.2722 33.3778L31.2984 30.4225L31.0799 30.2039L30.8613 29.9853H28.4918H26.1222L25.9036 30.2039ZM29.8732 33.7363C29.847 35.9571 29.8383 36.1058 29.6634 36.3331C29.3224 36.7965 29.0426 36.9364 28.4918 36.9364C27.9409 36.9364 27.6611 36.7965 27.3201 36.3331C27.1452 36.1058 27.1365 35.9571 27.1103 33.7363L27.084 31.3843H28.4918H29.8995L29.8732 33.7363Z" fill="white"/>
<path d="M12.6219 31.6033L12.4033 31.8131V39.0878C12.4033 44.3514 12.4296 46.4499 12.5082 46.6947C12.6481 47.1756 13.1465 47.7264 13.6624 47.9625L14.1083 48.1724H25.9297C32.4261 48.1724 37.8122 48.1461 37.8909 48.1199C38.1095 48.0325 38.3018 47.5778 38.2406 47.2893C38.1182 46.7384 38.9576 46.7734 26.0171 46.7734H14.2307L14.0209 46.5548L13.8023 46.345V39.079V31.8131L13.5837 31.6033C13.4526 31.4634 13.2689 31.3847 13.1028 31.3847C12.9367 31.3847 12.7531 31.4634 12.6219 31.6033Z" fill="white"/>
<path d="M43.4346 31.5509C43.2423 31.6995 43.2248 31.8045 43.1811 32.6263L43.1373 33.5269L42.6302 33.5881C42.0969 33.6581 41.2225 33.9466 39.9197 34.4887C38.6431 35.0221 37.5065 34.9871 36.7196 34.4013C36.5534 34.2789 36.3086 34.1827 36.1862 34.1827C35.7315 34.1827 35.3643 34.7685 35.5567 35.1795C35.6703 35.433 36.3086 35.8615 36.807 36.0189C37.0168 36.0801 37.2092 36.15 37.2267 36.1588C37.2442 36.1762 36.6933 37.4528 36.0113 39.0004L34.761 41.8246L34.8572 42.4279C35.0758 43.6957 35.8452 44.7275 36.842 45.1034C37.9174 45.5144 39.3164 45.4182 40.1995 44.8674C41.0127 44.369 41.6422 43.3023 41.7471 42.2356C41.7996 41.7547 41.7821 41.7022 40.6104 39.0791C39.9547 37.6102 39.4126 36.3599 39.3951 36.2987C39.3863 36.22 39.5612 36.115 39.8585 36.0276C40.1208 35.9402 40.6104 35.7478 40.9427 35.5904C41.8695 35.1707 42.6215 34.9696 43.4871 34.9084C44.5538 34.8472 45.4544 35.0221 46.7484 35.5729C47.3168 35.809 47.9201 36.0451 48.0862 36.0888C48.2698 36.1325 48.3748 36.2112 48.366 36.2899C48.3485 36.3599 47.8064 37.6102 47.1594 39.0704C46.4512 40.6704 45.979 41.8333 45.979 41.9995C45.979 42.1481 46.0402 42.5066 46.1102 42.7777C46.5648 44.5264 47.8851 45.4707 49.7213 45.357C51.4525 45.2433 52.5979 44.1854 52.9039 42.4279L53.0001 41.8246L51.7673 39.0354C51.0853 37.4965 50.5607 36.22 50.5956 36.185C50.6306 36.1588 50.8842 36.0451 51.164 35.9314C51.8022 35.6779 52.2744 35.2582 52.2744 34.9347C52.2744 34.6461 51.846 34.1827 51.5837 34.1827C51.4875 34.1827 51.2252 34.2964 51.0066 34.4363C50.1235 34.9959 49.1092 35.0133 47.8501 34.4887C46.4949 33.9291 45.673 33.6581 45.1134 33.6056L44.58 33.5444V32.6788C44.58 31.8744 44.5626 31.7957 44.3614 31.6033C44.1079 31.341 43.7144 31.3236 43.4346 31.5509ZM39.1415 39.2278C39.5874 40.2333 39.9459 41.0727 39.9459 41.1076C39.9459 41.1513 39.194 41.1776 38.2759 41.1776C36.7196 41.1776 36.6059 41.1688 36.6583 41.0202C36.8594 40.4956 38.2409 37.4178 38.2847 37.4178C38.3109 37.4178 38.6956 38.231 39.1415 39.2278ZM50.2809 39.1491C50.7006 40.0934 51.0678 40.9415 51.1028 41.0202C51.1552 41.1688 51.0415 41.1776 49.4852 41.1776C48.5671 41.1776 47.8152 41.1513 47.8152 41.1076C47.8152 41.0027 49.424 37.4178 49.4764 37.4178C49.5027 37.4178 49.8612 38.196 50.2809 39.1491ZM40.2082 42.664C40.2082 42.8563 39.9459 43.2586 39.6487 43.5209C38.7393 44.3165 37.0256 44.0367 36.4835 42.9962C36.4135 42.8651 36.3611 42.7164 36.3611 42.664C36.3611 42.6028 36.9993 42.5766 38.2847 42.5766C39.57 42.5766 40.2082 42.6028 40.2082 42.664ZM51.4 42.664C51.4 42.8563 51.1377 43.2586 50.8404 43.5209C50.1759 44.0979 48.9781 44.1417 48.1999 43.6083C47.9288 43.4159 47.5529 42.8826 47.5529 42.6727C47.5529 42.6028 48.1212 42.5766 49.4764 42.5766C50.7618 42.5766 51.4 42.6028 51.4 42.664Z" fill="white"/>
<path d="M43.3996 36.4997L43.181 36.7095V41.7458V46.7734H41.6509C40.1383 46.7734 40.112 46.7734 39.9022 46.992C39.7623 47.1231 39.6836 47.3067 39.6836 47.4729C39.6836 47.639 39.7623 47.8226 39.9022 47.9538L40.112 48.1724H43.8805H47.649L47.8589 47.9538C48.1212 47.7002 48.1386 47.3067 47.9113 47.027C47.7452 46.8259 47.7015 46.8171 46.1626 46.7909L44.58 46.7646V41.7371V36.7095L44.3614 36.4997C44.2303 36.3598 44.0466 36.2811 43.8805 36.2811C43.7144 36.2811 43.5308 36.3598 43.3996 36.4997Z" fill="white"/>
</svg>
