<svg width="28" height="11" viewBox="0 0 28 11" fill="none" xmlns="http://www.w3.org/2000/svg">
<path d="M2.86669 10.28L0.625081 7.97861C0.416139 7.76583 0.252786 7.5106 0.145483 7.22925C0.0381812 6.94791 -0.0107044 6.64665 0.00195691 6.34479C0.0146182 6.04293 0.088547 5.7471 0.21901 5.47627C0.349472 5.20544 0.533593 4.96557 0.759577 4.77202C3.30868 2.66793 6.30297 1.20706 9.50185 0.506785C12.4544 -0.168929 15.5157 -0.168928 18.4683 0.506785C21.6804 1.2116 24.6856 2.68332 27.2404 4.8027C27.4657 4.99567 27.6494 5.23468 27.7798 5.50453C27.9102 5.77437 27.9845 6.06914 27.9978 6.37005C28.0112 6.67097 27.9633 6.97144 27.8574 7.25235C27.7514 7.53325 27.5897 7.78842 27.3824 8.00162L25.1408 10.303C24.7817 10.679 24.3018 10.9081 23.7904 10.9476C23.279 10.9871 22.771 10.8343 22.3612 10.5178C21.5492 9.87844 20.6694 9.33545 19.7385 8.89916C19.3705 8.7278 19.0581 8.45173 18.8383 8.10367C18.6185 7.75561 18.5004 7.35014 18.4982 6.93532V4.98681C15.5638 4.15832 12.4661 4.15832 9.53173 4.98681V6.93532C9.52947 7.35014 9.41143 7.75561 9.1916 8.10367C8.97176 8.45173 8.65935 8.7278 8.29138 8.89916C7.3605 9.33545 6.48067 9.87844 5.6687 10.5178C5.25453 10.8379 4.74022 10.9905 4.22359 10.9467C3.70696 10.9028 3.22404 10.6655 2.86669 10.28Z" fill="white"/>
</svg>
