<svg width="10" height="16" viewBox="0 0 10 16" fill="none" xmlns="http://www.w3.org/2000/svg">
<g clip-path="url(#clip0_172_120)">
<path d="M5.6 16H3C2.6 16 2.2 15.7 2.2 15.2V9.4H0.8C0.3 9.4 0 9.1 0 8.7V6.2C0 5.8 0.3 5.4 0.8 5.4H2.3V4.2C2.3 3 2.7 1.9 3.4 1.2C4.1 0.4 5.1 0 6.4 0H8.4C8.8 0 9.2 0.3 9.2 0.8V3.1C9.2 3.5 8.9 3.9 8.4 3.9H7C6.6 3.9 6.5 3.9 6.5 4C6.5 4 6.4 4.2 6.4 4.5V5.5H8.2C8.3 5.5 8.5 5.5 8.6 5.6C8.8 5.7 9 5.9 9 6.2V8.7C9 9.1 8.7 9.5 8.2 9.5H6.4V15.3C6.4 15.7 6 16 5.6 16Z" fill="white"/>
</g>
<defs>
<clipPath id="clip0_172_120">
<rect width="9.1" height="16" fill="white"/>
</clipPath>
</defs>
</svg>
