<svg width="11" height="13" viewBox="0 0 11 13" fill="none" xmlns="http://www.w3.org/2000/svg">
<path d="M8.52858 0.301049C6.51904 -0.10035 4.48107 -0.10035 2.47108 0.301049C1.59196 0.506643 0.485958 1.61946 0.26973 2.51457C-0.0899101 4.2465 -0.0899101 6.00221 0.26973 7.73415C0.485958 8.62925 1.59196 9.74207 2.47108 9.94766C2.47131 9.94771 2.47153 9.94776 2.47175 9.9478C2.51091 9.95587 2.53946 9.99149 2.53946 10.0334V12.5706C2.53946 12.6974 2.68687 12.7598 2.77078 12.668L3.91853 11.4312C3.91853 11.4312 4.83312 10.4453 4.99758 10.2681C5.01365 10.2507 5.03585 10.2414 5.05885 10.242C6.21765 10.2757 7.37769 10.1775 8.52858 9.94771C9.4077 9.74212 10.5142 8.6293 10.7299 7.73419C11.09 6.00226 11.09 4.24655 10.7299 2.51461C10.5141 1.61946 9.40815 0.506643 8.52858 0.301049ZM8.55922 7.86333C8.38339 8.25531 8.12756 8.58142 7.75851 8.78958C7.65439 8.84832 7.52994 8.86729 7.41241 8.90529C7.27726 8.86221 7.14845 8.83326 7.02884 8.78114C5.78937 8.24119 4.64864 7.54459 3.74505 6.47676C3.23121 5.86953 2.82899 5.18398 2.48907 4.45848C2.32785 4.11443 2.19199 3.7569 2.0535 3.4017C1.92718 3.07778 2.11322 2.74315 2.30907 2.49909C2.49284 2.27005 2.72931 2.09475 2.98541 1.96557C3.1853 1.86473 3.38248 1.92287 3.52847 2.10077C3.84407 2.48538 4.13395 2.88967 4.3687 3.3355C4.51304 3.60972 4.47344 3.94492 4.21183 4.13154C4.14825 4.1769 4.09031 4.23014 4.03108 4.28137C3.97913 4.32627 3.93025 4.37163 3.89464 4.43242C3.82955 4.54361 3.82644 4.67485 3.86835 4.79578C4.19096 5.72669 4.73473 6.45056 5.62708 6.84044C5.76992 6.90282 5.91329 6.97545 6.07779 6.95531C6.35329 6.92151 6.44249 6.60422 6.63554 6.43844C6.82424 6.27643 7.06538 6.27429 7.26864 6.40934C7.47195 6.54445 7.66904 6.68948 7.86493 6.83606C8.05723 6.97993 8.24868 7.12067 8.42606 7.28468C8.59651 7.44235 8.65525 7.64925 8.55922 7.86333ZM6.95886 4.82981C6.88192 4.83126 6.91215 4.82967 6.94141 4.82879C6.8174 4.82422 6.74996 4.74757 6.73664 4.62296C6.72692 4.53191 6.71923 4.43965 6.69854 4.35107C6.65779 4.17662 6.56947 4.01494 6.42975 3.90804C6.36377 3.85755 6.289 3.82072 6.21068 3.79704C6.11118 3.76687 6.00786 3.77517 5.90858 3.74963C5.80078 3.72193 5.74115 3.63023 5.75806 3.52403C5.77347 3.42739 5.86303 3.35196 5.96359 3.3596C6.59216 3.40725 7.0414 3.74846 7.10552 4.52548C7.11004 4.5803 7.11537 4.6382 7.10378 4.69065C7.08496 4.77592 7.02693 4.8203 6.96827 4.82837C6.97307 4.82846 6.97214 4.82888 6.95886 4.82981ZM6.56801 3.0527C6.37514 2.95354 6.16654 2.89191 5.95511 2.85517C5.86271 2.83914 5.76934 2.82939 5.6765 2.81583C5.56399 2.79942 5.50396 2.72412 5.50925 2.60771C5.51422 2.49862 5.59014 2.42016 5.70336 2.42688C6.07544 2.44907 6.43481 2.5335 6.76559 2.71741C7.43825 3.09144 7.82249 3.68184 7.93464 4.47018C7.93975 4.5059 7.94787 4.54128 7.95045 4.57713C7.95684 4.66562 7.96079 4.75424 7.96728 4.87093C7.96461 4.89219 7.96319 4.94216 7.95138 4.98925C7.90836 5.16016 7.66158 5.18156 7.60475 5.00907C7.58792 4.95788 7.58539 4.89965 7.5853 4.84454C7.58472 4.48398 7.51009 4.1238 7.33693 3.81009C7.15893 3.48776 6.88693 3.21671 6.56801 3.0527ZM8.64646 5.48911C8.5165 5.49074 8.45803 5.37657 8.44959 5.25419C8.4329 5.01196 8.42136 4.76865 8.38952 4.52841C8.22169 3.2603 7.25865 2.21116 6.05656 1.98604C5.87568 1.95214 5.69049 1.94324 5.50729 1.92305C5.39145 1.91028 5.23974 1.90291 5.21407 1.75172C5.19254 1.62496 5.29444 1.52403 5.40939 1.51755C5.44065 1.51578 5.47208 1.51727 5.50347 1.51741C7.06036 1.56324 5.59849 1.52096 5.50765 1.51765C7.12701 1.5672 8.45656 2.69634 8.7417 4.37783C8.79032 4.66459 8.80763 4.95778 8.82926 5.24883C8.83832 5.37121 8.77229 5.48753 8.64646 5.48911Z" fill="#E41D10"/>
</svg>
