<svg width="16" height="18" viewBox="0 0 16 18" fill="none" xmlns="http://www.w3.org/2000/svg">
<path d="M12.4052 0.417038C9.48224 -0.139013 6.51793 -0.139013 3.59431 0.417038C2.31558 0.701844 0.706849 2.24341 0.392335 3.48339C-0.130778 5.8826 -0.130778 8.31476 0.392335 10.714C0.706849 11.954 2.31558 13.4955 3.59431 13.7803C3.59463 13.7804 3.59495 13.7805 3.59527 13.7805C3.65224 13.7917 3.69376 13.841 3.69376 13.8991V17.4138C3.69376 17.5894 3.90817 17.676 4.03023 17.5487L5.69968 15.8354C5.69968 15.8354 7.03 14.4697 7.26921 14.2242C7.29259 14.2002 7.32488 14.1872 7.35833 14.1881C9.04386 14.2348 10.7312 14.0986 12.4052 13.7804C13.6839 13.4956 15.2933 11.954 15.6072 10.714C16.1309 8.31482 16.1309 5.88267 15.6072 3.48345C15.2933 2.24341 13.6846 0.701844 12.4052 0.417038ZM12.4498 10.8929C12.194 11.4359 11.8219 11.8877 11.2851 12.176C11.1337 12.2574 10.9526 12.2837 10.7817 12.3363C10.5851 12.2767 10.3978 12.2366 10.2238 12.1644C8.4209 11.4164 6.76166 10.4514 5.44736 8.97214C4.69995 8.13096 4.1149 7.18128 3.62046 6.17626C3.38596 5.69964 3.18834 5.20436 2.98691 4.71232C2.80318 4.2636 3.07378 3.80003 3.35865 3.46195C3.62595 3.14465 3.96991 2.90183 4.34242 2.72287C4.63317 2.58318 4.91998 2.66371 5.13232 2.91016C5.59137 3.44296 6.01303 4.00301 6.35447 4.62061C6.56443 5.00048 6.50682 5.46482 6.1263 5.72335C6.03382 5.78618 5.94954 5.85994 5.86339 5.93091C5.78783 5.9931 5.71673 6.05594 5.66493 6.14016C5.57025 6.29418 5.56573 6.47598 5.6267 6.64351C6.09595 7.93308 6.88689 8.93584 8.18485 9.47594C8.39261 9.56235 8.60115 9.66297 8.84042 9.63507C9.24116 9.58825 9.3709 9.14871 9.6517 8.91905C9.92617 8.69463 10.2769 8.69166 10.5726 8.87875C10.8683 9.06591 11.155 9.26683 11.4399 9.46987C11.7196 9.66917 11.9981 9.86414 12.2561 10.0913C12.504 10.3098 12.5895 10.5964 12.4498 10.8929ZM10.122 6.69065C10.0101 6.69265 10.054 6.69046 10.0966 6.68923C9.91623 6.6829 9.81813 6.57673 9.79875 6.4041C9.78461 6.27797 9.77344 6.15017 9.74334 6.02746C9.68406 5.7858 9.5556 5.56183 9.35236 5.41374C9.2564 5.3438 9.14764 5.29278 9.03372 5.25997C8.88899 5.21819 8.73871 5.22968 8.5943 5.19429C8.4375 5.15593 8.35076 5.0289 8.37537 4.88178C8.39778 4.7479 8.52804 4.64341 8.67432 4.654C9.58861 4.72 10.242 5.19268 10.3353 6.26906C10.3419 6.34501 10.3496 6.42522 10.3328 6.49788C10.3054 6.616 10.221 6.67748 10.1357 6.68865C10.1427 6.68878 10.1413 6.68936 10.122 6.69065ZM9.55347 4.22886C9.27293 4.09149 8.96952 4.00611 8.66198 3.95522C8.52759 3.93301 8.39177 3.91951 8.25673 3.90071C8.09308 3.87798 8.00577 3.77368 8.01345 3.61242C8.02069 3.4613 8.13112 3.35261 8.29581 3.36191C8.837 3.39265 9.35973 3.50961 9.84086 3.76438C10.8193 4.28252 11.3782 5.10039 11.5413 6.19247C11.5487 6.24194 11.5605 6.29096 11.5643 6.34062C11.5736 6.46319 11.5793 6.58597 11.5888 6.74761C11.5849 6.77706 11.5828 6.84629 11.5657 6.91152C11.5031 7.14828 11.1441 7.17792 11.0615 6.93897C11.037 6.86806 11.0333 6.7874 11.0332 6.71106C11.0323 6.21158 10.9238 5.71262 10.6719 5.27805C10.413 4.83153 10.0174 4.45605 9.55347 4.22886ZM12.5767 7.60397C12.3876 7.60623 12.3026 7.44807 12.2903 7.27854C12.266 6.94297 12.2493 6.60592 12.2029 6.27313C11.9588 4.51644 10.558 3.06309 8.80955 2.75122C8.54645 2.70427 8.27708 2.69194 8.01061 2.66397C7.84212 2.64628 7.62144 2.63607 7.58411 2.42663C7.55279 2.25103 7.70101 2.11122 7.86821 2.10224C7.91367 2.09978 7.9594 2.10185 8.00506 2.10204C10.2696 2.16553 8.14326 2.10695 8.01113 2.10237C10.3666 2.17102 12.3005 3.73519 12.7152 6.06453C12.7859 6.46177 12.8111 6.86793 12.8426 7.27111C12.8557 7.44064 12.7597 7.60177 12.5767 7.60397Z" fill="white"/>
</svg>
