<svg width="16" height="18" viewBox="0 0 16 18" fill="none" xmlns="http://www.w3.org/2000/svg">
<path d="M12.4052 0.417037C9.48222 -0.139012 6.51792 -0.139012 3.5943 0.417037C2.31558 0.701842 0.706848 2.24341 0.392334 3.48338C-0.130778 5.88259 -0.130778 8.31474 0.392334 10.714C0.706848 11.9539 2.31558 13.4955 3.5943 13.7803C3.59462 13.7804 3.59494 13.7804 3.59527 13.7805C3.65223 13.7917 3.69376 13.841 3.69376 13.8991V17.4137C3.69376 17.5894 3.90817 17.6759 4.03023 17.5487L5.69967 15.8354C5.69967 15.8354 7.02998 14.4697 7.2692 14.2242C7.29257 14.2001 7.32487 14.1872 7.35832 14.1881C9.04384 14.2348 10.7312 14.0986 12.4052 13.7804C13.6839 13.4956 15.2933 11.954 15.6072 10.714C16.1309 8.31481 16.1309 5.88266 15.6072 3.48344C15.2932 2.24341 13.6846 0.701842 12.4052 0.417037ZM12.4498 10.8929C12.194 11.4359 11.8219 11.8877 11.2851 12.176C11.1336 12.2574 10.9526 12.2837 10.7817 12.3363C10.5851 12.2766 10.3977 12.2365 10.2237 12.1643C8.42088 11.4163 6.76165 10.4514 5.44734 8.97212C4.69994 8.13094 4.11489 7.18127 3.62045 6.17625C3.38596 5.69963 3.18834 5.20435 2.98691 4.71231C2.80317 4.26359 3.07377 3.80002 3.35864 3.46194C3.62594 3.14465 3.96991 2.90182 4.34241 2.72287C4.63316 2.58317 4.91997 2.66371 5.13231 2.91015C5.59136 3.44295 6.01302 4.003 6.35446 4.6206C6.56441 5.00047 6.50681 5.46481 6.12629 5.72333C6.03381 5.78617 5.94953 5.85992 5.86338 5.9309C5.78782 5.99309 5.71671 6.05593 5.66492 6.14014C5.57024 6.29417 5.56572 6.47597 5.62669 6.6435C6.09594 7.93306 6.88687 8.93583 8.18484 9.47592C8.3926 9.56233 8.60113 9.66295 8.84041 9.63505C9.24114 9.58823 9.37088 9.14869 9.65168 8.91903C9.92616 8.69461 10.2769 8.69164 10.5726 8.87874C10.8683 9.06589 11.155 9.26681 11.4399 9.46985C11.7196 9.66915 11.9981 9.86412 12.2561 10.0913C12.504 10.3097 12.5894 10.5964 12.4498 10.8929ZM10.122 6.69064C10.01 6.69264 10.054 6.69045 10.0966 6.68922C9.91621 6.68289 9.81811 6.57672 9.79874 6.40409C9.78459 6.27796 9.77342 6.15015 9.74332 6.02745C9.68404 5.78578 9.55559 5.56182 9.35235 5.41373C9.25638 5.34379 9.14762 5.29277 9.0337 5.25996C8.88897 5.21818 8.73869 5.22967 8.59429 5.19428C8.43748 5.15592 8.35075 5.02889 8.37535 4.88177C8.39776 4.74789 8.52802 4.6434 8.6743 4.65399C9.58859 4.71999 10.242 5.19267 10.3353 6.26905C10.3419 6.345 10.3496 6.42521 10.3328 6.49786C10.3054 6.61598 10.221 6.67747 10.1357 6.68864C10.1426 6.68877 10.1413 6.68935 10.122 6.69064ZM9.55345 4.22885C9.27291 4.09148 8.96951 4.00611 8.66197 3.95521C8.52757 3.933 8.39176 3.9195 8.25672 3.90071C8.09307 3.87797 8.00575 3.77367 8.01344 3.61241C8.02067 3.46129 8.13111 3.3526 8.29579 3.3619C8.83698 3.39264 9.35971 3.5096 9.84084 3.76438C10.8193 4.28251 11.3781 5.10038 11.5413 6.19246C11.5487 6.24193 11.5605 6.29094 11.5643 6.34061C11.5736 6.46318 11.5793 6.58595 11.5887 6.7476C11.5849 6.77705 11.5828 6.84628 11.5656 6.91151C11.503 7.14827 11.1441 7.17791 11.0614 6.93896C11.037 6.86805 11.0333 6.78738 11.0332 6.71105C11.0323 6.21157 10.9238 5.71261 10.6719 5.27804C10.413 4.83152 10.0173 4.45605 9.55345 4.22885ZM12.5767 7.60395C12.3876 7.60622 12.3026 7.44806 12.2903 7.27853C12.266 6.94296 12.2492 6.60591 12.2029 6.27312C11.9588 4.51643 10.558 3.06308 8.80954 2.75122C8.54643 2.70427 8.27706 2.69193 8.0106 2.66397C7.8421 2.64627 7.62143 2.63607 7.5841 2.42663C7.55278 2.25103 7.70099 2.11121 7.86819 2.10223C7.91366 2.09978 7.95938 2.10185 8.00504 2.10204C10.2696 2.16552 8.14325 2.10695 8.01111 2.10236C10.3665 2.17101 12.3004 3.73518 12.7152 6.06452C12.7859 6.46176 12.8111 6.86792 12.8425 7.2711C12.8557 7.44063 12.7597 7.60176 12.5767 7.60395Z" fill="white"/>
</svg>
