<svg width="16" height="18" viewBox="0 0 16 18" fill="none" xmlns="http://www.w3.org/2000/svg">
<path d="M12.4052 0.417038C9.48226 -0.139013 6.51794 -0.139013 3.59431 0.417038C2.31559 0.701845 0.70685 2.24342 0.392336 3.48339C-0.130779 5.88262 -0.130779 8.31478 0.392336 10.714C0.70685 11.954 2.31559 13.4955 3.59431 13.7804C3.59464 13.7804 3.59496 13.7805 3.59528 13.7805C3.65224 13.7917 3.69377 13.8411 3.69377 13.8991V17.4138C3.69377 17.5895 3.90818 17.676 4.03024 17.5488L5.69969 15.8354C5.69969 15.8354 7.03001 14.4698 7.26922 14.2242C7.2926 14.2002 7.32489 14.1872 7.35835 14.1881C9.04387 14.2348 10.7312 14.0987 12.4052 13.7804C13.684 13.4956 15.2933 11.954 15.6072 10.7141C16.131 8.31484 16.131 5.88268 15.6072 3.48346C15.2933 2.24342 13.6846 0.701845 12.4052 0.417038ZM12.4498 10.893C12.1941 11.436 11.8219 11.8877 11.2851 12.1761C11.1337 12.2574 10.9527 12.2837 10.7817 12.3364C10.5851 12.2767 10.3978 12.2366 10.2238 12.1644C8.42092 11.4164 6.76167 10.4514 5.44737 8.97216C4.69996 8.13097 4.11491 7.1813 3.62047 6.17627C3.38597 5.69965 3.18835 5.20438 2.98692 4.71232C2.80318 4.26361 3.07378 3.80004 3.35865 3.46195C3.62596 3.14466 3.96992 2.90183 4.34243 2.72288C4.63318 2.58318 4.91999 2.66372 5.13233 2.91016C5.59138 3.44297 6.01304 4.00302 6.35448 4.62062C6.56444 5.00049 6.50683 5.46483 6.12632 5.72336C6.03383 5.78619 5.94956 5.85995 5.8634 5.93092C5.78784 5.99312 5.71674 6.05595 5.66494 6.14017C5.57026 6.2942 5.56574 6.476 5.62671 6.64352C6.09596 7.93309 6.8869 8.93586 8.18487 9.47596C8.39263 9.56237 8.60116 9.66299 8.84044 9.63509C9.24117 9.58827 9.37092 9.14872 9.65172 8.91907C9.92619 8.69465 10.2769 8.69168 10.5726 8.87877C10.8683 9.06593 11.155 9.26684 11.4399 9.46989C11.7196 9.66919 11.9981 9.86416 12.2561 10.0914C12.5041 10.3098 12.5895 10.5964 12.4498 10.893ZM10.122 6.69067C10.0101 6.69267 10.0541 6.69047 10.0966 6.68925C9.91625 6.68292 9.81815 6.57674 9.79877 6.40412C9.78463 6.27799 9.77346 6.15018 9.74336 6.02747C9.68408 5.78581 9.55562 5.56184 9.35238 5.41375C9.25641 5.34381 9.14766 5.29279 9.03374 5.25998C8.88901 5.2182 8.73872 5.22969 8.59432 5.1943C8.43751 5.15594 8.35078 5.02891 8.37539 4.88179C8.3978 4.74791 8.52806 4.64342 8.67434 4.65401C9.58862 4.72001 10.2421 5.19269 10.3353 6.26907C10.3419 6.34502 10.3497 6.42523 10.3328 6.49789C10.3054 6.61601 10.221 6.67749 10.1357 6.68866C10.1427 6.68879 10.1413 6.68937 10.122 6.69067ZM9.55349 4.22886C9.27295 4.0915 8.96954 4.00612 8.662 3.95523C8.52761 3.93301 8.39179 3.91952 8.25675 3.90072C8.0931 3.87799 8.00578 3.77369 8.01347 3.61243C8.0207 3.46131 8.13114 3.35261 8.29582 3.36191C8.83702 3.39266 9.35974 3.50961 9.84088 3.76439C10.8193 4.28253 11.3782 5.1004 11.5413 6.19248C11.5488 6.24195 11.5606 6.29097 11.5643 6.34063C11.5736 6.46321 11.5794 6.58598 11.5888 6.74763C11.5849 6.77708 11.5829 6.84631 11.5657 6.91154C11.5031 7.14829 11.1441 7.17794 11.0615 6.93898C11.037 6.86807 11.0333 6.78741 11.0332 6.71107C11.0324 6.2116 10.9238 5.71263 10.6719 5.27806C10.413 4.83154 10.0174 4.45606 9.55349 4.22886ZM12.5767 7.60398C12.3877 7.60624 12.3026 7.44808 12.2903 7.27856C12.2661 6.94299 12.2493 6.60593 12.203 6.27314C11.9588 4.51645 10.5581 3.06309 8.80957 2.75123C8.54646 2.70428 8.27709 2.69194 8.01063 2.66398C7.84213 2.64628 7.62146 2.63608 7.58413 2.42664C7.5528 2.25104 7.70102 2.11122 7.86822 2.10224C7.91369 2.09979 7.95941 2.10185 8.00507 2.10205C10.2696 2.16553 8.14328 2.10696 8.01114 2.10237C10.3666 2.17102 12.3005 3.7352 12.7152 6.06454C12.786 6.46179 12.8111 6.86794 12.8426 7.27113C12.8558 7.44066 12.7597 7.60179 12.5767 7.60398Z" fill="#E41D10"/>
</svg>
