<svg width="11" height="13" viewBox="0 0 11 13" fill="none" xmlns="http://www.w3.org/2000/svg">
<path d="M8.52859 0.301049C6.51904 -0.10035 4.48108 -0.10035 2.47109 0.301049C1.59196 0.506643 0.485959 1.61946 0.26973 2.51457C-0.0899101 4.2465 -0.0899101 6.00222 0.26973 7.73415C0.485959 8.62926 1.59196 9.74208 2.47109 9.94767C2.47131 9.94772 2.47153 9.94776 2.47175 9.94781C2.51091 9.95588 2.53946 9.9915 2.53946 10.0334V12.5706C2.53946 12.6974 2.68687 12.7598 2.77079 12.668L3.91853 11.4312C3.91853 11.4312 4.83312 10.4453 4.99758 10.2681C5.01366 10.2507 5.03586 10.2414 5.05885 10.242C6.21765 10.2757 7.37769 10.1775 8.52859 9.94772C9.40771 9.74212 10.5142 8.6293 10.7299 7.7342C11.09 6.00226 11.09 4.24655 10.7299 2.51462C10.5141 1.61946 9.40815 0.506643 8.52859 0.301049ZM8.55922 7.86334C8.3834 8.25532 8.12757 8.58142 7.75851 8.78958C7.65439 8.84832 7.52994 8.8673 7.41241 8.90529C7.27726 8.86222 7.14846 8.83327 7.02884 8.78114C5.78937 8.24119 4.64864 7.54459 3.74506 6.47676C3.23121 5.86954 2.82899 5.18399 2.48907 4.45849C2.32785 4.11443 2.19199 3.7569 2.0535 3.4017C1.92718 3.07779 2.11322 2.74315 2.30907 2.49909C2.49284 2.27005 2.72932 2.09476 2.98542 1.96557C3.1853 1.86473 3.38249 1.92287 3.52847 2.10077C3.84407 2.48539 4.13396 2.88967 4.3687 3.3355C4.51304 3.60972 4.47344 3.94492 4.21184 4.13154C4.14825 4.1769 4.09031 4.23014 4.03108 4.28138C3.97913 4.32627 3.93025 4.37163 3.89464 4.43242C3.82955 4.54361 3.82644 4.67485 3.86836 4.79578C4.19097 5.72669 4.73473 6.45056 5.62709 6.84044C5.76992 6.90282 5.91329 6.97546 6.07779 6.95532C6.35329 6.92152 6.44249 6.60422 6.63555 6.43844C6.82425 6.27644 7.06538 6.27429 7.26865 6.40935C7.47195 6.54445 7.66905 6.68949 7.86494 6.83606C8.05724 6.97993 8.24869 7.12068 8.42607 7.28469C8.59652 7.44236 8.65526 7.64926 8.55922 7.86334ZM6.95887 4.82981C6.88192 4.83126 6.91216 4.82967 6.94142 4.82879C6.81741 4.82422 6.74996 4.74758 6.73664 4.62296C6.72692 4.53191 6.71924 4.43965 6.69855 4.35107C6.65779 4.17662 6.56948 4.01494 6.42975 3.90804C6.36377 3.85755 6.289 3.82072 6.21068 3.79704C6.11118 3.76688 6.00786 3.77518 5.90858 3.74963C5.80078 3.72194 5.74115 3.63023 5.75807 3.52403C5.77347 3.42739 5.86303 3.35196 5.9636 3.3596C6.59217 3.40725 7.04141 3.74846 7.10552 4.52548C7.11005 4.5803 7.11538 4.63821 7.10379 4.69065C7.08496 4.77592 7.02693 4.8203 6.96828 4.82837C6.97307 4.82846 6.97214 4.82888 6.95887 4.82981ZM6.56801 3.05271C6.37514 2.95354 6.16655 2.89191 5.95512 2.85518C5.86272 2.83914 5.76934 2.82939 5.6765 2.81583C5.56399 2.79942 5.50397 2.72413 5.50925 2.60772C5.51422 2.49863 5.59015 2.42016 5.70337 2.42688C6.07544 2.44907 6.43481 2.5335 6.76559 2.71741C7.43825 3.09145 7.82249 3.68184 7.93465 4.47019C7.93975 4.5059 7.94788 4.54128 7.95045 4.57713C7.95685 4.66562 7.9608 4.75424 7.96728 4.87093C7.96462 4.89219 7.9632 4.94217 7.95139 4.98925C7.90836 5.16016 7.66159 5.18156 7.60476 5.00907C7.58793 4.95788 7.5854 4.89965 7.58531 4.84455C7.58473 4.48399 7.51009 4.1238 7.33693 3.81009C7.15893 3.48776 6.88694 3.21671 6.56801 3.05271ZM8.64647 5.48911C8.51651 5.49075 8.45804 5.37657 8.4496 5.2542C8.4329 5.01196 8.42136 4.76865 8.38953 4.52842C8.22169 3.2603 7.25866 2.21117 6.05657 1.98604C5.87568 1.95215 5.69049 1.94324 5.5073 1.92305C5.39146 1.91028 5.23974 1.90291 5.21408 1.75173C5.19254 1.62497 5.29444 1.52403 5.40939 1.51755C5.44065 1.51578 5.47209 1.51727 5.50348 1.51741C7.06037 1.56324 5.59849 1.52096 5.50765 1.51765C7.12701 1.5672 8.45657 2.69634 8.74171 4.37783C8.79033 4.66459 8.80764 4.95779 8.82926 5.24884C8.83832 5.37121 8.7723 5.48753 8.64647 5.48911Z" fill="#E41D10"/>
</svg>
