<svg width="20" height="20" viewBox="0 0 20 20" fill="none" xmlns="http://www.w3.org/2000/svg">
<g opacity="0.4">
<path d="M13.3 2.79999H6.69999C4.59999 2.79999 2.79999 4.49999 2.79999 6.69999V13.3C2.79999 15.4 4.49999 17.2 6.69999 17.2H13.3C15.4 17.2 17.2 15.5 17.2 13.3V6.69999C17.2 4.49999 15.5 2.79999 13.3 2.79999ZM12.6 11.9C12.1 12.6 11.3 13 10.5 13.2C10.3 13.2 10.2 13.2 9.99999 13.2C9.29999 13.2 8.59999 13 8.09999 12.6C7.39999 12.1 6.99999 11.3 6.79999 10.5C6.69999 9.59999 6.89999 8.69999 7.39999 7.99999C7.89999 7.29999 8.69999 6.89999 9.49999 6.69999C9.79999 6.69999 10.1 6.69999 10.4 6.69999C11.1 6.79999 11.7 7.09999 12.2 7.59999C12.7 8.09999 13 8.69999 13.1 9.39999C13.3 10.4 13.1 11.2 12.6 11.9ZM14.1 6.79999C14 6.89999 13.8 6.99999 13.7 6.99999C13.5 6.99999 13.4 6.89999 13.3 6.79999C13.2 6.69999 13.1 6.49999 13.1 6.39999C13.1 6.19999 13.2 6.09999 13.3 5.99999C13.4 5.89999 13.6 5.79999 13.7 5.79999C13.9 5.79999 14 5.89999 14.1 5.99999C14.2 6.09999 14.3 6.29999 14.3 6.39999C14.3 6.49999 14.2 6.69999 14.1 6.79999Z" fill="#E41D10"/>
</g>
</svg>
