<svg width="20" height="20" viewBox="0 0 20 20" fill="none" xmlns="http://www.w3.org/2000/svg">
<path d="M13.3 2.80005H6.70005C4.60005 2.80005 2.80005 4.50005 2.80005 6.70005V13.3C2.80005 15.4 4.50005 17.2 6.70005 17.2H13.3C15.4 17.2 17.2 15.5 17.2 13.3V6.70005C17.2 4.50005 15.5 2.80005 13.3 2.80005ZM12.6 11.9C12.1 12.6 11.3 13 10.5 13.2C10.3 13.2 10.2 13.2 10 13.2C9.30005 13.2 8.60005 13 8.10005 12.6C7.40005 12.1 7.00005 11.3 6.80005 10.5C6.70005 9.60005 6.90005 8.70005 7.40005 8.00005C7.90005 7.30005 8.70005 6.90005 9.50005 6.70005C9.80005 6.70005 10.1 6.70005 10.4 6.70005C11.1 6.80005 11.7 7.10005 12.2 7.60005C12.7 8.10005 13 8.70005 13.1 9.40005C13.3 10.4 13.1 11.2 12.6 11.9ZM14.1 6.80005C14 6.90005 13.8 7.00005 13.7 7.00005C13.5 7.00005 13.4 6.90005 13.3 6.80005C13.2 6.70005 13.1 6.50005 13.1 6.40005C13.1 6.20005 13.2 6.10005 13.3 6.00005C13.4 5.90005 13.6 5.80005 13.7 5.80005C13.9 5.80005 14 5.90005 14.1 6.00005C14.2 6.10005 14.3 6.30005 14.3 6.40005C14.3 6.50005 14.2 6.70005 14.1 6.80005Z" fill="#E41D10" fill-opacity="0.4"/>
</svg>
