<svg width="150" height="33" viewBox="0 0 150 33" fill="none" xmlns="http://www.w3.org/2000/svg">
<path d="M21.0135 7.6314L1.26338 5.36714V5.32521L21.0135 3.06095V0L0.0421523 2.47392V8.00878L21.0135 10.6504V7.6314Z" fill="#828999"/>
<path d="M21.0134 22.307V13.6693H13.6018V16.7721H17.3076V22.307H21.0134Z" fill="#828999"/>
<path d="M8.25383 20.9233H11.9596L13.602 19.6234H10.2331V13.6693H0.0421523V16.7721H8.25383V20.9233Z" fill="#828999"/>
<path d="M3.49523 26.836L2.90567 23.817C1.85289 23.8589 0.926446 23.9847 0 24.2782V27.9262C0.505334 27.2973 1.64234 26.8779 3.49523 26.836Z" fill="#828999"/>
<path d="M15.2862 23.7752C8.29578 23.7752 6.94822 30.0648 2.06333 30.0648C1.09477 30.0648 0.378877 29.7294 0.084099 29.1843V32.7065C0.715767 32.8742 1.51588 33 2.40021 33C9.05378 33 11.0751 26.7104 15.2441 26.7104C16.7601 26.7104 17.6866 27.2974 17.6866 28.2618C17.6866 28.9746 17.0549 29.7713 14.9494 29.9391L15.4126 32.8742C18.9078 32.5807 21.3924 31.0712 21.3924 28.5553C21.4345 25.4944 19.2026 23.7752 15.2862 23.7752Z" fill="#828999"/>
<path d="M36.7631 14.8857L41.5217 0.964735H38.4897L35.4577 11.5313L32.4257 0.964735H29.3094L33.9838 14.8857H36.7631Z" fill="#828999"/>
<path d="M50.8703 14.8857H54.0707L49.1437 0.964735H45.8591L40.8057 14.8857H43.8798L44.8063 12.0764H49.9438L50.8703 14.8857ZM45.6485 9.56054L47.5014 4.06761L49.2279 9.56054H45.6485Z" fill="#828999"/>
<path d="M58.5767 14.8857V5.03202L64.2196 14.8857H67.1253V0.964735H64.3881V10.6507L58.8294 0.964735H55.8394L55.8395 14.8857H58.5767Z" fill="#828999"/>
<path d="M81.4008 10.1471H78.4951C78.3267 10.8599 78.074 11.405 77.7793 11.7824C77.2739 12.4113 76.5159 12.7468 75.5052 12.7468C74.5367 12.7468 73.6945 12.3275 73.0628 11.5727C72.4311 10.776 72.1364 9.60198 72.1364 8.05054C72.1364 6.4991 72.4733 5.28311 73.0628 4.40257C73.6524 3.52202 74.4525 3.14464 75.5052 3.14464C76.558 3.14464 77.316 3.48009 77.8214 4.06712C78.1161 4.40257 78.3267 4.8638 78.5373 5.57663H81.4429C81.4429 4.69608 81.106 3.85747 80.5165 2.97692C79.4216 1.42548 77.7371 0.670728 75.421 0.670728C73.6945 0.670728 72.2206 1.25776 71.1257 2.38989C69.8624 3.73167 69.2307 5.57663 69.1465 8.05054C69.1465 10.3148 69.6518 12.0759 70.8309 13.3757C72.01 14.6337 73.5681 15.2626 75.5052 15.2626C77.1476 15.2626 78.4109 14.7595 79.4637 13.837C80.5165 12.9145 81.1481 11.6566 81.4008 10.1471Z" fill="#828999"/>
<path d="M89.9496 15.2212C91.9709 15.2212 93.4869 14.718 94.5397 13.5859C95.9715 12.2441 96.6874 10.3572 96.6452 7.88331C96.6452 5.32553 95.9294 3.43865 94.5397 2.18073C93.4869 1.09053 91.9288 0.545428 89.9496 0.545428C87.9282 0.545428 86.4122 1.0486 85.3594 2.18073C83.9277 3.43865 83.2118 5.36747 83.2118 7.88331C83.2118 10.3572 83.9698 12.286 85.3594 13.5859C86.4122 14.718 87.9703 15.2212 89.9496 15.2212ZM87.2544 4.1934C87.9703 3.31286 88.8968 2.93548 90.0338 2.93548C91.1287 2.93548 92.0551 3.35479 92.771 4.1934C93.4869 5.07395 93.8238 6.28994 93.8238 7.84138C93.8238 9.39282 93.4869 10.6088 92.771 11.4894C92.0551 12.3699 91.1287 12.7473 90.0338 12.7473C88.8547 12.7473 87.9282 12.328 87.2544 11.4894C86.5385 10.6088 86.2017 9.39282 86.2017 7.84138C86.2017 6.28994 86.5385 5.07395 87.2544 4.1934Z" fill="#828999"/>
<path d="M109.447 12.9989C109.91 12.2022 110.163 11.0281 110.163 9.51861V0.964735H107.215V9.51861C107.215 10.4411 107.089 11.1539 106.878 11.6151C106.457 12.3699 105.699 12.7892 104.562 12.7892C103.341 12.7892 102.583 12.3699 102.246 11.6151C101.993 11.1958 101.909 10.5249 101.909 9.51861V0.964735H98.9613V9.51861C98.9613 11.0281 99.214 12.1603 99.6772 12.9989C100.562 14.5084 102.162 15.2631 104.604 15.2631C106.92 15.2212 108.563 14.4664 109.447 12.9989Z" fill="#828999"/>
<path d="M119.343 14.8857L124.102 0.964735H121.07L117.996 11.5313L115.006 0.964735H111.847L116.564 14.8857H119.343Z" fill="#828999"/>
<path d="M136.482 12.328H128.776V8.76386H135.556V6.33187H128.776V3.39672H136.188V0.964735H125.955V14.8438H136.482V12.328Z" fill="#828999"/>
<path d="M149.579 13.6696C149.537 13.418 149.537 13.0406 149.537 12.4117V11.4892C149.537 10.5248 149.41 9.77003 149.116 9.30879C148.821 8.84755 148.358 8.42825 147.726 8.21859C148.526 7.96701 149.074 7.50577 149.41 6.87681C149.747 6.24785 149.916 5.53502 149.916 4.90606C149.916 4.40289 149.874 3.85779 149.663 3.48042C149.495 3.06111 149.242 2.68373 148.947 2.30635C148.526 1.84512 148.147 1.5516 147.6 1.34195C147.094 1.09036 146.378 1.0065 145.41 1.0065H138.672V14.7598H141.494V9.35072H144.315C145.115 9.35072 145.705 9.51845 145.999 9.81196C146.294 10.1055 146.463 10.7344 146.463 11.615V12.8729C146.463 13.2922 146.505 13.6696 146.589 14.0889C146.589 14.2566 146.631 14.5501 146.757 14.8437H150V14.5082C149.789 14.2986 149.621 14.005 149.579 13.6696ZM146.168 6.87681C145.873 7.04453 145.41 7.12839 144.778 7.12839H141.662V3.43849H144.862C145.452 3.43849 145.915 3.48042 146.21 3.69007C146.715 3.98359 147.01 4.48675 147.01 5.3673C146.968 6.03819 146.757 6.58329 146.168 6.87681Z" fill="#828999"/>
<path d="M30.4042 31.7838H33.0151V26.4586H38.6158V24.2782H33.0151V21.385H39.3738V19.2046H30.4043L30.4042 31.7838Z" fill="#828999"/>
<path d="M43.5009 19.1628H40.89V31.784H43.5009V19.1628Z" fill="#828999"/>
<path d="M48.6383 19.1628H45.9853V31.7421H54.955V29.4778H48.6383V19.1628Z" fill="#828999"/>
<path d="M62.7878 29.058L60.4717 19.1204H56.6396V31.7416H59.082V23.1877C59.082 22.9361 59.082 22.6007 59.082 22.1394C59.082 21.6782 59.082 21.3428 59.082 21.0912L61.4402 31.6577H64.0932L66.4515 21.0912C66.4515 21.3428 66.4515 21.6782 66.4515 22.1394C66.4515 22.6007 66.4515 22.9361 66.4515 23.1877V31.6577H68.8939V19.0785H65.0618L62.7878 29.058Z" fill="#828999"/>
<path d="M84.9804 25.4523C84.4751 25.033 83.7592 24.7395 82.7907 24.5298L80.6009 24.0267C79.7165 23.8589 79.2112 23.6912 78.9164 23.5235C78.4953 23.3558 78.2848 23.0203 78.2848 22.5591C78.2848 22.0559 78.5374 21.6785 78.9164 21.385C79.3375 21.0915 79.885 20.9657 80.6009 20.9657C81.2325 20.9657 81.78 21.0076 82.159 21.2592C82.7907 21.5947 83.1275 22.1398 83.2118 22.8945H85.7806C85.7384 21.5527 85.191 20.5464 84.2645 19.8336C83.296 19.1208 82.1169 18.7853 80.7693 18.7853C79.2112 18.7853 77.9479 19.1208 77.1056 19.8755C76.2213 20.6303 75.8423 21.5527 75.8423 22.6849C75.8423 23.9009 76.2634 24.8233 77.1056 25.4104C77.611 25.7458 78.5374 26.1232 79.885 26.3748L81.2747 26.6683C82.0748 26.836 82.6643 27.0037 83.0012 27.2553C83.4223 27.5069 83.5908 27.8424 83.5908 28.2197C83.5908 28.9326 83.1697 29.3938 82.4117 29.6454C81.9905 29.8131 81.4852 29.897 80.8535 29.897C79.8008 29.897 79.0428 29.6454 78.5795 29.1422C78.3269 28.8487 78.1584 28.4294 78.1163 27.8843H75.6318C75.6318 29.2261 76.1371 30.2324 77.0635 30.9872C78.0321 31.7419 79.3375 32.0774 81.022 32.0774C82.6643 32.0774 83.9277 31.6581 84.7699 30.9033C85.6542 30.1485 86.1174 29.1841 86.1174 28.0101C86.1174 26.8779 85.7384 25.9974 84.9804 25.4523Z" fill="#828999"/>
<path d="M93.1499 21.1749C94.0763 21.1749 94.7922 21.4684 95.2554 21.9716C95.5081 22.307 95.7186 22.7682 95.8871 23.3553H98.5401C98.498 22.5586 98.2032 21.8038 97.6558 21.0071C96.6872 19.6234 95.087 18.9106 93.0235 18.9106C91.4654 18.9106 90.2021 19.4138 89.1493 20.462C87.9702 21.678 87.3385 23.3553 87.4227 25.5357C87.4227 27.5483 87.9281 29.1836 88.9809 30.3158C90.0336 31.4898 91.4233 32.0349 93.192 32.0349C94.6237 32.0349 95.845 31.6156 96.7714 30.777C97.6979 29.8965 98.2874 28.8063 98.498 27.4226H95.8871C95.7186 28.0515 95.5502 28.5128 95.2554 28.8482C94.7922 29.4772 94.0763 29.7707 93.1499 29.7707C92.2234 29.7707 91.5075 29.4352 90.9601 28.7224C90.3705 28.0096 90.0757 26.9194 90.0757 25.5357C90.0757 24.11 90.3705 22.9779 90.8759 22.2651C91.4654 21.5942 92.2234 21.1749 93.1499 21.1749Z" fill="#828999"/>
<path d="M108.142 23.943H103.215V19.1628H100.604V31.7421H103.215V26.1234H108.142V31.7421H110.752V19.1628H108.142V23.943Z" fill="#828999"/>
<path d="M118.88 18.7853C117.027 18.7853 115.637 19.2465 114.711 20.211C113.448 21.385 112.816 23.1042 112.816 25.4104C112.816 27.6746 113.448 29.3938 114.711 30.6098C115.679 31.5742 117.027 32.0354 118.88 32.0354C120.733 32.0354 122.122 31.5742 123.049 30.6098C124.312 29.3938 124.944 27.6746 124.944 25.4104C124.944 23.1042 124.312 21.385 123.049 20.211C122.038 19.2885 120.733 18.7853 118.88 18.7853ZM121.364 28.7229C120.775 29.4777 119.933 29.897 118.88 29.897C117.827 29.897 117.027 29.4777 116.395 28.7229C115.764 27.9681 115.469 26.8779 115.469 25.4523C115.469 24.0267 115.764 22.8945 116.395 22.1817C117.027 21.4269 117.827 21.0076 118.88 21.0076C119.933 21.0076 120.733 21.4269 121.364 22.1817C121.996 22.9784 122.291 24.0686 122.291 25.4523C122.291 26.8779 121.996 27.9681 121.364 28.7229Z" fill="#828999"/>
<path d="M132.524 18.7853C130.671 18.7853 129.281 19.2465 128.355 20.211C127.092 21.385 126.46 23.1042 126.46 25.4104C126.46 27.6746 127.092 29.3938 128.355 30.6098C129.323 31.5742 130.671 32.0354 132.524 32.0354C134.377 32.0354 135.766 31.5742 136.693 30.6098C137.956 29.3938 138.588 27.6746 138.588 25.4104C138.588 23.1042 137.956 21.385 136.693 20.211C135.724 19.2885 134.419 18.7853 132.524 18.7853ZM135.051 28.7229C134.461 29.4777 133.619 29.897 132.566 29.897C131.513 29.897 130.713 29.4777 130.081 28.7229C129.45 27.9681 129.155 26.8779 129.155 25.4523C129.155 24.0267 129.45 22.8945 130.081 22.1817C130.713 21.4269 131.513 21.0076 132.566 21.0076C133.619 21.0076 134.419 21.4269 135.051 22.1817C135.682 22.9784 135.977 24.0686 135.977 25.4523C135.977 26.8779 135.682 27.9681 135.051 28.7229Z" fill="#828999"/>
<path d="M143.304 19.1628H140.651V31.7421H149.621V29.4778H143.304V19.1628Z" fill="#828999"/>
</svg>
