<svg width="10" height="10" viewBox="0 0 10 10" fill="none" xmlns="http://www.w3.org/2000/svg">
<path fill-rule="evenodd" clip-rule="evenodd" d="M7.26262 4.1659C7.01276 4.41577 6.59057 4.18982 6.65987 3.84333L7.14283 1.42857L5.71426 2.14285L4.99998 0L4.2857 2.14285L2.85713 1.42857L3.34008 3.84333C3.40938 4.18982 2.9872 4.41577 2.73734 4.1659L2.39539 3.82395C2.25591 3.68448 2.02978 3.68448 1.89031 3.82395L1.42857 4.2857L0 3.57141L0.714283 4.99998L0.252537 5.46172C0.113064 5.6012 0.113065 5.82733 0.252537 5.9668L2.14285 7.85711H4.2857L4.64284 9.99996H5.35712L5.71426 7.85711H7.85711L9.74742 5.9668C9.88689 5.82733 9.88689 5.6012 9.74742 5.46172L9.28567 4.99998L9.99996 3.57141L8.57139 4.2857L8.10965 3.82395C7.97017 3.68448 7.74404 3.68448 7.60457 3.82395L7.26262 4.1659Z" fill="#FF3131"/>
</svg>
