<svg width="50" height="50" viewBox="0 0 50 50" fill="none" xmlns="http://www.w3.org/2000/svg">
<path d="M44.9881 5.00539C44.9881 5.41002 44.6677 5.51629 44.2761 5.51629L43.7454 5.51547V4.54271H44.2879C44.6423 4.54271 44.9881 4.61465 44.9881 5.00539Z" fill="#2A67E8"/>
<path fill-rule="evenodd" clip-rule="evenodd" d="M44.2625 3.38031C45.7256 3.38031 46.5648 4.42337 46.5648 5.7182C46.5648 7.04818 45.7264 8.05773 44.2625 8.05773C42.7842 8.05773 41.9365 7.04818 41.9365 5.7182C41.9365 4.42337 42.785 3.38031 44.2625 3.38031ZM44.3736 6.00349L45.0262 7.2738H45.7146L44.9525 5.84899C45.3712 5.69531 45.5815 5.38632 45.5815 4.99394C45.5815 4.31792 45.0737 4.04571 44.2489 4.04571H43.1436V7.2738H43.7454V6.00349H44.3736Z" fill="#2A67E8"/>
<path d="M8.64967 23.6306C10.124 23.6306 11.4214 23.1164 11.4214 21.2882C11.4214 19.5172 10.065 19.1744 8.64967 19.1744H7.05741V23.6306H8.64967Z" fill="#2A67E8"/>
<path d="M8.94453 30.8863C10.9496 30.8863 11.7752 30.2007 11.7752 28.4296C11.7752 26.6014 10.8316 25.8587 8.94453 25.8587H7.05741V30.8863H8.94453Z" fill="#2A67E8"/>
<path fill-rule="evenodd" clip-rule="evenodd" d="M50 0H0V50H50V0ZM44.2625 2.85714C42.4638 2.85714 41.372 4.11601 41.372 5.7182C41.372 7.28442 42.4638 8.57926 44.2625 8.57926C46.0596 8.57926 47.1429 7.28442 47.1429 5.7182C47.1429 4.11601 46.0596 2.85714 44.2625 2.85714ZM27.167 27.9155C26.6362 31.629 25.044 33.5714 21.9184 33.5714C17.7904 33.5714 16.434 30.315 16.434 24.9446C16.434 20.1456 17.8493 16.4892 21.9184 16.4892C25.2209 16.4892 26.5183 18.4888 26.9901 21.8596L24.3363 22.0881C23.9825 19.9742 23.2158 18.9459 21.9774 18.9459C20.2082 18.9459 19.3237 20.7169 19.3237 24.9446C19.3237 29.5723 20.0903 31.1148 21.9774 31.1148C23.3338 31.1148 24.1594 29.915 24.5132 27.6298L27.167 27.9155ZM4.28571 16.6606H8.53172C12.4829 16.6606 14.252 17.9175 14.252 21.0026C14.252 22.7165 13.4854 23.9163 12.0111 24.5447V24.6019C13.9572 25.2874 14.6648 26.7157 14.6648 28.601C14.6648 32.4288 12.129 33.4 8.76761 33.4H4.28571V16.6606ZM29.5848 16.6606V33.3429H32.4155V16.6606H29.5848ZM38.3127 33.3429V19.1744H34.7744V16.6606H44.6818V19.1744H41.1434V33.3429H38.3127Z" fill="#2A67E8"/>
</svg>
