<svg width="15" height="15" viewBox="0 0 15 15" fill="none" xmlns="http://www.w3.org/2000/svg">
<path d="M0.419929 0.41921C-0.138713 0.977853 -0.138712 1.88359 0.419929 2.44223L5.47709 7.4994L0.419018 12.5575C-0.139623 13.1161 -0.139623 14.0218 0.419018 14.5805C0.977659 15.1391 1.8834 15.1391 2.44204 14.5805L7.50011 9.52242L12.5581 14.5804C13.1167 15.139 14.0224 15.139 14.5811 14.5804C15.1397 14.0217 15.1397 13.116 14.5811 12.5573L9.52313 7.4994L14.5802 2.44236C15.1388 1.88372 15.1388 0.977983 14.5802 0.419341C14.0215 -0.1393 13.1158 -0.1393 12.5572 0.419341L7.50012 5.47638L2.44295 0.419211C1.88431 -0.139431 0.978571 -0.139431 0.419929 0.41921Z" fill="white"/>
</svg>
