<svg width="60" height="57" viewBox="0 0 60 57" fill="none" xmlns="http://www.w3.org/2000/svg">
<path d="M14.5045 15.5913C14.4736 15.6389 14.4632 15.6347 14.4731 15.5788L17.2288 0.0153921C17.2296 0.0118057 17.2314 0.00848286 17.2339 0.00583509C17.2365 0.00318731 17.2397 0.00133096 17.2432 0.000495957C17.2467 -0.00033905 17.2503 -0.000116027 17.2536 0.0011374C17.2569 0.00239084 17.2598 0.00461961 17.2618 0.00754766L22.4368 6.8479C22.4504 6.86569 22.4496 6.88242 22.4344 6.89811C20.1004 9.39473 17.7623 11.8955 15.4199 14.4005C15.0748 14.7692 14.7798 15.1677 14.5045 15.5913Z" fill="#2A67E8"/>
<path d="M14.8324 7.38211C14.8549 7.39309 14.864 7.41114 14.8598 7.43624L13.5647 15.0297C13.5584 15.0663 13.5498 15.0668 13.5388 15.0312L10.434 5.16135C10.424 5.13049 10.4337 5.12239 10.463 5.13703L14.8324 7.38211Z" fill="#2A67E8"/>
<path d="M14.4762 17.7023C14.8428 16.8859 15.2479 16.1904 15.6913 15.6156C15.9068 15.3364 16.2295 14.9674 16.6593 14.5088C19.5236 11.4536 22.4054 8.36711 25.3047 5.24921C25.3251 5.22724 25.335 5.23116 25.3345 5.26097C25.3256 5.63855 25.3055 6.01169 25.2741 6.38038C24.9279 10.4579 24.5548 14.5339 24.1547 18.6083C24.1532 18.6246 24.1463 18.64 24.1351 18.6522L11.8601 31.7148C11.8334 31.743 11.8232 31.7381 11.8295 31.6999C12.5067 27.6004 13.178 23.5527 13.8432 19.5567C13.9211 19.0865 14.1321 18.4684 14.4762 17.7023Z" fill="#2A67E8"/>
<path d="M10.6317 27.2803C10.479 26.9608 10.286 26.6439 10.0527 26.3296C7.1184 22.3749 3.92414 18.078 0.469968 13.4388C0.400937 13.3462 0.34315 13.2369 0.296606 13.1109C0.287193 13.0863 0.295299 13.0767 0.320924 13.0819C1.69789 13.3679 3.07668 13.6613 4.4573 13.962C5.21586 14.1276 5.79086 14.1456 6.38076 13.6718C6.64485 13.4595 6.80436 13.1635 6.85927 12.7838C6.93458 12.2676 7.00988 11.7298 7.08519 11.1702C7.08592 11.1657 7.08793 11.1615 7.09099 11.1581C7.09404 11.1548 7.09801 11.1524 7.10241 11.1512C7.10681 11.15 7.11145 11.1502 7.11578 11.1516C7.1201 11.153 7.12392 11.1557 7.12677 11.1592L12.9222 18.6758C12.9265 18.6814 12.9295 18.6879 12.9311 18.6948C12.9327 18.7017 12.9329 18.7088 12.9317 18.7158C12.381 22.034 11.8065 25.3428 11.2082 28.6421C11.1967 28.7049 11.1818 28.7059 11.1635 28.6453C11.0255 28.1892 10.8482 27.7343 10.6317 27.2803Z" fill="#2A67E8"/>
<path d="M39.4647 22.2426C39.5432 22.2688 39.6187 22.3038 39.6914 22.3477C39.7207 22.365 39.7228 22.3854 39.6977 22.4089C37.5786 24.3591 35.428 26.3458 33.2456 28.3691C31.7528 29.7529 29.9063 31.0527 27.9028 31.4206C27.5236 31.4907 27.076 31.525 26.5598 31.5234C22.8269 31.5155 19.2485 31.5153 15.8247 31.5226C14.4587 31.5252 13.2661 31.9708 12.2468 32.8593C12.2416 32.8635 12.2369 32.8632 12.2327 32.8585L12.2319 32.8577C12.2277 32.8535 12.2277 32.8491 12.2319 32.8444C18.5582 26.0903 24.8845 19.3357 31.2108 12.5806C31.2359 12.554 31.2558 12.5576 31.2704 12.5916C31.4153 12.9258 31.5586 13.2694 31.7003 13.6224C31.8702 14.0475 32.0297 14.349 32.1788 14.5268C32.724 15.1748 33.6316 15.4415 34.4702 15.2517C35.719 14.9687 37.0669 14.6649 38.514 14.3401C38.5527 14.3312 38.5697 14.3467 38.565 14.3864C38.3464 16.1739 38.133 17.9713 37.9248 19.7787C37.8872 20.1055 37.9531 20.4951 38.1225 20.9475C38.3647 21.596 38.8121 22.0277 39.4647 22.2426Z" fill="#2A67E8"/>
<path d="M9.495 27.3219L0.0110683 21.7578C0.00813092 21.7561 0.00562802 21.7537 0.00374615 21.7508C0.00186428 21.748 0.000651969 21.7447 0.000199558 21.7413C-0.000252852 21.7379 6.63017e-05 21.7345 0.00113324 21.7312C0.00220017 21.728 0.00398738 21.725 0.00636167 21.7225L3.0453 18.5934C3.04755 18.591 3.05032 18.5891 3.05342 18.5879C3.05651 18.5866 3.05986 18.5861 3.06322 18.5863C3.06658 18.5866 3.06988 18.5875 3.07288 18.5891C3.07588 18.5908 3.07852 18.593 3.0806 18.5957C5.14055 21.3622 7.20181 24.129 9.26438 26.896C9.36374 27.0288 9.44715 27.1648 9.51462 27.3039C9.52769 27.3311 9.52115 27.3371 9.495 27.3219Z" fill="#2A67E8"/>
<path d="M11.38 34.4478L10.0841 35.7602C10.0804 35.7642 10.0755 35.767 10.0701 35.768C10.0647 35.769 10.0591 35.7681 10.0542 35.7656C10.0493 35.7631 10.0453 35.7591 10.0429 35.7542C10.0406 35.7492 10.0399 35.7436 10.041 35.7382L10.1837 34.8683C10.1847 34.8632 10.1871 34.8585 10.1908 34.8549L11.4946 33.53C11.4983 33.5264 11.5031 33.524 11.5082 33.5232C11.5133 33.5224 11.5186 33.5233 11.5232 33.5256C11.5279 33.5279 11.5317 33.5316 11.5341 33.5362C11.5366 33.5408 11.5376 33.546 11.5369 33.5512L11.3871 34.4345C11.3862 34.4395 11.3837 34.4442 11.38 34.4478Z" fill="#2A67E8"/>
<path d="M16.0405 42.6562C15.6357 43.0458 15.1256 43.1972 14.51 43.1104C13.3012 42.941 12.9411 41.8671 12.9451 40.801C12.9482 39.7632 13.3373 38.7238 14.4261 38.4712C14.994 38.3394 15.5777 38.461 16.0201 38.8469C16.0483 38.8715 16.0624 38.8652 16.0624 38.8281L16.0632 36.2991C16.0632 36.2672 16.0792 36.2499 16.1111 36.2473C16.3903 36.2253 16.6931 36.2818 16.8179 36.5564C16.855 36.6374 16.8736 36.7948 16.8736 37.0286C16.8757 39.1204 16.8759 41.1014 16.8743 42.9716C16.8743 42.9867 16.8668 42.9943 16.8516 42.9943L16.1229 42.9935C16.0925 42.9935 16.0776 42.9786 16.0781 42.9488L16.0844 42.675C16.0849 42.6337 16.0703 42.6274 16.0405 42.6562ZM15.1305 39.1262C13.7421 38.9897 13.6895 40.6206 13.8864 41.5211C14.0904 42.4585 15.0199 42.6695 15.7761 42.2428C15.9675 42.1351 16.0632 41.9758 16.0632 41.7651C16.0632 41.0444 16.063 40.3358 16.0624 39.6392C16.0624 39.6094 16.052 39.5843 16.0311 39.5639C15.7764 39.3056 15.4762 39.1597 15.1305 39.1262Z" fill="#2A67E8"/>
<path d="M45.6556 42.6688C45.3314 42.9799 44.9339 43.1345 44.4633 43.1324C43.3807 43.1284 42.7532 42.4389 42.6182 41.4309C42.4559 40.2174 42.7398 38.6767 44.1879 38.4469C44.7396 38.3595 45.2242 38.4898 45.6415 38.8375C45.6771 38.8673 45.6948 38.859 45.6948 38.8124L45.6941 36.2912C45.694 36.2806 45.698 36.2702 45.7052 36.2623C45.7125 36.2543 45.7225 36.2492 45.7333 36.2481C46.142 36.2096 46.502 36.361 46.5028 36.8395C46.5039 38.8953 46.5044 40.9364 46.5044 42.9629C46.5044 42.9712 46.501 42.9792 46.495 42.9851C46.4889 42.991 46.4808 42.9943 46.4722 42.9943H45.7584C45.7239 42.9943 45.7066 42.977 45.7066 42.9425V42.6907C45.7071 42.6436 45.6901 42.6363 45.6556 42.6688ZM45.6658 39.5733C45.0673 38.9277 43.8467 38.912 43.5557 39.8989C43.3815 40.4898 43.386 41.0865 43.569 41.689C43.8012 42.453 44.588 42.5927 45.2681 42.315C45.5215 42.2114 45.698 42.0302 45.6964 41.7455C45.6922 41.0191 45.692 40.3206 45.6956 39.6502C45.6956 39.6204 45.6857 39.5948 45.6658 39.5733Z" fill="#2A67E8"/>
<path d="M24.94 37.373C24.7439 37.4373 24.5556 37.5638 24.3752 37.7526C23.6472 38.5159 23.6143 39.9287 23.8473 40.8873C24.0434 41.6913 24.5854 42.2969 25.4303 42.4013C26.1117 42.4855 26.6901 42.2794 27.1655 41.7831C27.2288 41.7172 27.2892 41.7198 27.3467 41.791C27.4115 41.8725 27.4711 41.9557 27.5255 42.0404C27.6191 42.1858 27.6097 42.3241 27.4973 42.4554C26.8815 43.1771 25.5762 43.2516 24.7376 43.0084C22.9381 42.486 22.6651 40.3915 22.9679 38.7771C23.2315 37.3722 24.2199 36.4944 25.6954 36.5132C26.2979 36.5211 27.1835 36.7297 27.5169 37.2451C27.6479 37.4475 27.4934 37.7181 27.353 37.8766C27.3383 37.8931 27.3204 37.9064 27.3003 37.9157C27.2803 37.925 27.2586 37.93 27.2365 37.9305C27.2144 37.9311 27.1925 37.927 27.172 37.9187C27.1516 37.9103 27.133 37.8979 27.1176 37.8821C26.5162 37.265 25.7903 37.0953 24.94 37.373Z" fill="#2A67E8"/>
<path d="M9.40644 40.0997L9.40565 42.2452C9.40565 42.2541 9.40921 42.2627 9.41553 42.269C9.42186 42.2753 9.43044 42.2789 9.43938 42.2789C10.1731 42.2799 10.9688 42.2794 11.8264 42.2773C12.2406 42.2765 12.4571 42.5205 12.4046 42.9543C12.4014 42.981 12.3865 42.9943 12.3599 42.9943L8.62435 42.9935C8.59297 42.9935 8.57728 42.9778 8.57728 42.9464L8.57649 36.6725C8.57649 36.6453 8.59009 36.6317 8.61729 36.6317H12.2053C12.2351 36.6317 12.2527 36.6463 12.2579 36.6756C12.3026 36.936 12.2265 37.2671 11.9269 37.3228C11.8061 37.3453 11.6813 37.3562 11.5527 37.3557C10.8509 37.3526 10.1501 37.352 9.45037 37.3541C9.42108 37.3541 9.40644 37.3688 9.40644 37.3981L9.40565 39.2627C9.40565 39.2894 9.41899 39.3027 9.44566 39.3027H11.544C11.5566 39.3027 11.5629 39.309 11.5629 39.3215L11.5637 40.0016C11.5637 40.0278 11.5506 40.0409 11.5244 40.0409H9.46527C9.42605 40.0409 9.40644 40.0605 9.40644 40.0997Z" fill="#2A67E8"/>
<path d="M31.1724 40.0777C31.2109 39.3364 30.8335 39.1129 30.166 39.116C29.7183 39.1186 29.3209 39.2407 28.9736 39.4823C28.8591 39.5618 28.7775 39.5362 28.7289 39.4055L28.6355 39.1584C28.5853 39.0245 28.6172 38.9139 28.7312 38.8265C29.2741 38.41 30.2719 38.3614 30.89 38.4775C31.7341 38.6367 31.9765 39.2588 31.9757 40.0181C31.9741 40.7205 31.9752 41.4076 31.9788 42.0796C31.9804 42.3816 32.0149 42.617 32.3914 42.5982C32.426 42.5966 32.4432 42.6131 32.4432 42.6476V42.9433C32.4432 42.9747 32.4278 42.9938 32.3969 43.0006C31.9671 43.0955 31.3011 43.0916 31.2171 42.5731C31.216 42.5661 31.2129 42.5596 31.2083 42.5543C31.2037 42.549 31.1976 42.545 31.1908 42.5429C31.184 42.5408 31.1767 42.5406 31.1697 42.5423C31.1628 42.544 31.1564 42.5476 31.1512 42.5527C30.7235 42.982 30.1477 43.1486 29.4239 43.0523C28.7665 42.9653 28.3665 42.5087 28.3335 41.8514C28.2606 40.3805 29.9385 40.0887 31.1199 40.1264C31.1528 40.1274 31.1703 40.1112 31.1724 40.0777ZM31.1418 40.7555C30.4248 40.7061 29.1109 40.7869 29.1493 41.7502C29.1635 42.1024 29.3815 42.3715 29.7494 42.4091C30.1971 42.4541 30.6 42.3411 30.9583 42.0702C31.1099 41.9552 31.185 41.8176 31.1834 41.6576C31.1803 41.3825 31.1808 41.0975 31.185 40.8026C31.1855 40.7733 31.1711 40.7576 31.1418 40.7555Z" fill="#2A67E8"/>
<path d="M34.0537 38.9434C34.4653 38.5862 34.9574 38.4118 35.53 38.4202C35.9505 38.4265 36.2721 38.5245 36.4949 38.7144C36.806 38.979 36.9687 39.3213 36.9828 39.7412C37.0027 40.3363 37.0069 41.4066 36.9953 42.9519C36.9953 42.9797 36.9812 42.9935 36.953 42.9935L36.236 42.9943C36.2041 42.9948 36.1882 42.9789 36.1882 42.9464C36.1897 41.9345 36.1897 40.9626 36.1882 40.0307C36.1876 39.7582 36.1123 39.5427 35.9622 39.3843C35.5504 38.9473 34.0505 39.134 34.0521 39.8855C34.0553 40.9827 34.0558 42.0015 34.0537 42.9417C34.0537 42.9768 34.0362 42.9943 34.0011 42.9943H33.2983C33.2648 42.9943 33.2481 42.9776 33.2481 42.9441V38.5536C33.2481 38.5149 33.2671 38.4952 33.3053 38.4947C33.7127 38.4837 33.9457 38.6276 34.0043 38.9262C34.0111 38.9602 34.0275 38.9659 34.0537 38.9434Z" fill="#2A67E8"/>
<path d="M40.7599 42.537C40.239 43.017 39.6146 43.1805 38.8866 43.0272C38.291 42.9023 37.9675 42.5163 37.9163 41.8694C37.7955 40.3609 39.5879 40.0942 40.7042 40.1264C40.7351 40.1269 40.751 40.112 40.7521 40.0817C40.7709 39.6408 40.6469 39.2305 40.1449 39.1505C39.5351 39.0532 38.9952 39.1691 38.525 39.498C38.4314 39.5634 38.3637 39.5427 38.3218 39.4361L38.2112 39.1552C38.1896 39.1003 38.1861 39.0399 38.2012 38.9828C38.2163 38.9257 38.2492 38.8748 38.2952 38.8375C38.7792 38.4453 39.6946 38.3786 40.301 38.4461C41.2941 38.5575 41.5577 39.2188 41.5561 40.1115C41.5545 40.7008 41.5548 41.3049 41.5569 41.9235C41.5577 42.2224 41.5067 42.6287 41.9617 42.5942C42.0004 42.5911 42.0197 42.6089 42.0197 42.6476V42.9449C42.0197 42.9736 42.0061 42.9914 41.9789 42.9982C41.5577 43.1033 40.8776 43.1002 40.7881 42.5472C40.7876 42.5442 40.7863 42.5413 40.7844 42.539C40.7824 42.5367 40.7799 42.5349 40.777 42.5338C40.7741 42.5328 40.771 42.5325 40.768 42.5331C40.765 42.5336 40.7622 42.535 40.7599 42.537ZM39.4209 40.8802C38.8945 41.0332 38.5831 41.4717 38.7925 42.0239C39.042 42.6797 40.0625 42.4005 40.4838 42.1102C40.643 42.0004 40.7693 41.8482 40.7646 41.6427C40.7589 41.341 40.7589 41.0604 40.7646 40.801C40.7657 40.7707 40.7507 40.7544 40.7199 40.7524C40.2445 40.7241 39.8115 40.7667 39.4209 40.8802Z" fill="#2A67E8"/>
<path d="M50.207 42.5566C49.706 43.0225 49.0852 43.1781 48.3447 43.0233C47.8411 42.9177 47.5341 42.6125 47.4238 42.1079C47.3296 41.6775 47.3887 41.3054 47.601 40.9916C48.1337 40.2072 49.3409 40.1028 50.1921 40.1248C50.2098 40.1253 50.2193 40.1167 50.2203 40.0989C50.2525 39.6769 50.1293 39.2439 49.6586 39.1599C49.04 39.0491 48.4924 39.1581 48.016 39.487C47.9088 39.5613 47.8319 39.5375 47.7854 39.4157L47.692 39.1725C47.6345 39.0234 47.6714 38.9029 47.8026 38.8109C47.9909 38.6791 48.2163 38.5839 48.4788 38.5253C49.2837 38.3449 50.5372 38.2994 50.8847 39.1843C50.9809 39.4285 51.0283 39.7083 51.0267 40.0236C51.023 40.762 51.0259 41.4665 51.0353 42.1369C51.04 42.4499 51.1177 42.6366 51.477 42.5919C51.4784 42.5917 51.4799 42.5917 51.4814 42.5922C51.4828 42.5926 51.4841 42.5933 51.4852 42.5942C51.4863 42.5952 51.4872 42.5964 51.4878 42.5978C51.4885 42.5991 51.4888 42.6006 51.4887 42.6021L51.4927 42.9637C51.4927 42.9789 51.4853 42.9883 51.4707 42.9919C51.0644 43.1041 50.3646 43.1018 50.2674 42.577C50.2595 42.533 50.2394 42.5262 50.207 42.5566ZM48.6577 42.3769C49.1582 42.492 49.6233 42.3767 50.0532 42.031C50.1761 41.9327 50.2365 41.8077 50.2344 41.656C50.2313 41.36 50.2315 41.0727 50.2352 40.7939C50.2357 40.7641 50.2211 40.7487 50.1913 40.7476C49.519 40.7241 47.9886 40.7837 48.2215 41.8796C48.2806 42.1578 48.426 42.3236 48.6577 42.3769Z" fill="#2A67E8"/>
<path d="M20.9519 42.6288C20.4593 43.0939 19.8796 43.1896 19.2245 43.1143C18.4448 43.0257 18.0855 42.4444 18.0793 41.7047C18.0698 40.7309 18.068 39.6693 18.0738 38.5198C18.0738 38.4916 18.0876 38.4762 18.1153 38.4735C18.4981 38.4343 18.8723 38.5747 18.8747 39.0242C18.8778 39.7689 18.8794 40.5141 18.8794 41.2599C18.8786 41.7282 18.8708 42.2475 19.4324 42.3801C19.9423 42.5014 20.3949 42.4057 20.7903 42.093C20.8954 42.009 20.995 41.8584 20.9958 41.7204C20.9984 40.7555 20.9984 39.6894 20.9958 38.5222C20.9958 38.4939 21.0099 38.4783 21.0382 38.4751C21.4382 38.4273 21.8038 38.5842 21.8046 39.0517C21.8062 40.3575 21.8067 41.6555 21.8062 42.9457C21.8062 42.9776 21.7902 42.9935 21.7583 42.9935L21.0484 42.9943C21.0139 42.9943 20.9966 42.977 20.9966 42.9425V42.6476C20.9966 42.6068 20.9817 42.6005 20.9519 42.6288Z" fill="#2A67E8"/>
<path d="M52.5626 39.0148L52.5728 39.4729C52.5728 39.4881 52.5653 39.4959 52.5501 39.4965L52.507 39.4972C52.4913 39.4978 52.4834 39.4899 52.4834 39.4737L52.4779 38.8626C52.4774 38.8344 52.4886 38.8116 52.5117 38.7944C52.5373 38.775 52.5676 38.7742 52.6027 38.792C52.6116 38.7965 52.6195 38.8027 52.626 38.8102C52.6324 38.8178 52.6373 38.8265 52.6403 38.836L52.7925 39.2941C52.8118 39.3526 52.8312 39.3526 52.8505 39.2941C52.9013 39.1445 52.9543 38.9926 53.0098 38.8383C53.0312 38.7803 53.0681 38.7641 53.1204 38.7897C53.1444 38.8017 53.1562 38.8211 53.1557 38.8477L53.1549 39.4565C53.1549 39.481 53.1426 39.4933 53.118 39.4933H53.0945C53.0694 39.4933 53.0568 39.4808 53.0568 39.4557L53.0584 39.1176C53.0589 38.9894 53.038 38.9858 52.9957 39.1066L52.8968 39.3945C52.8398 39.5587 52.7865 39.5574 52.7368 39.3906C52.6934 39.2457 52.6463 39.1178 52.5956 39.007C52.5726 38.9557 52.5616 38.9583 52.5626 39.0148Z" fill="#2A67E8"/>
<path d="M51.9924 38.8713C51.9526 38.8796 51.9129 38.8807 51.8731 38.8744C51.8459 38.8697 51.8295 38.8537 51.8237 38.8265C51.8211 38.8145 51.8237 38.8054 51.8315 38.7991C51.8399 38.7933 51.8491 38.7905 51.859 38.7905C52.0305 38.7884 52.1963 38.7881 52.3563 38.7897C52.3814 38.7897 52.3922 38.8022 52.3885 38.8273L52.3846 38.8587C52.3825 38.877 52.372 38.8854 52.3532 38.8838L52.2151 38.8713C52.1754 38.8676 52.1555 38.8856 52.1555 38.9254L52.1547 39.4619C52.1547 39.4923 52.1398 39.5056 52.11 39.502L52.0779 39.498C52.0723 39.4974 52.0671 39.4949 52.0633 39.4908C52.0595 39.4868 52.0575 39.4815 52.0575 39.4761V38.9246C52.0569 38.8807 52.0352 38.8629 51.9924 38.8713Z" fill="#2A67E8"/>
<path d="M51.9751 40.1279L51.9743 40.4911C51.9743 40.511 51.9641 40.5204 51.9437 40.5194L51.9014 40.517C51.8878 40.5165 51.881 40.5094 51.881 40.4958V39.8636C51.881 39.8524 51.885 39.8415 51.8922 39.8331C51.8993 39.8246 51.9093 39.819 51.9202 39.8173C51.949 39.8121 51.9775 39.8149 52.0057 39.8259C52.0143 39.8294 52.022 39.8346 52.0284 39.8414C52.0348 39.8482 52.0396 39.8563 52.0426 39.8651L52.1995 40.3374C52.2146 40.3829 52.23 40.3829 52.2457 40.3374L52.4089 39.8651C52.4173 39.8411 52.434 39.8254 52.4591 39.8181C52.4774 39.8134 52.4955 39.8134 52.5132 39.8181C52.5237 39.8206 52.533 39.8265 52.5397 39.8351C52.5464 39.8436 52.5501 39.8542 52.5501 39.8651L52.5493 40.4943C52.5493 40.5079 52.5425 40.5155 52.5289 40.517L52.4921 40.5202C52.4877 40.5205 52.4833 40.5199 52.4792 40.5185C52.4751 40.517 52.4714 40.5147 52.4683 40.5118C52.4651 40.5088 52.4627 40.5052 52.4611 40.5012C52.4595 40.4973 52.4589 40.493 52.4591 40.4888C52.4664 40.3345 52.4643 40.2121 52.4528 40.1217C52.4371 39.9982 52.4173 39.9975 52.3932 40.1193C52.3697 40.2412 52.3257 40.3685 52.2614 40.5013C52.2569 40.5104 52.2498 40.5179 52.2411 40.5229C52.2323 40.528 52.2223 40.5304 52.2122 40.5298C52.2021 40.5292 52.1924 40.5257 52.1843 40.5197C52.1761 40.5136 52.17 40.5053 52.1665 40.4958L52.0339 40.1177C51.9952 40.0074 51.9756 40.0108 51.9751 40.1279Z" fill="#2A67E8"/>
<path d="M53.0467 39.8934C52.6285 39.8361 52.7242 40.6253 53.1094 40.4103C53.1528 40.3863 53.1824 40.3486 53.1981 40.2974C53.209 40.2618 53.2292 40.2553 53.2585 40.2778L53.2804 40.2942C53.2914 40.3026 53.2945 40.3133 53.2898 40.3264C53.2365 40.4744 53.1285 40.5426 52.9659 40.5311C52.6387 40.5084 52.5776 40.0063 52.8294 39.8542C52.9494 39.782 53.2639 39.7875 53.2679 39.9891C53.2689 40.0482 53.2475 40.0579 53.2035 40.0181C53.1533 39.9726 53.1212 39.9036 53.0467 39.8934Z" fill="#2A67E8"/>
<path d="M29.2694 47.5755V49.6221C29.2694 49.6399 29.2602 49.6487 29.2419 49.6487L28.8403 49.6495C28.8235 49.6495 28.8152 49.6412 28.8152 49.6244C28.8178 48.818 28.817 47.918 28.8128 46.9244C28.8105 46.409 28.9642 45.9532 29.5282 45.8607C29.8289 45.8115 30.1053 45.8628 30.3574 46.0144C30.4771 46.0871 30.5093 46.1878 30.4539 46.3164C30.4455 46.3352 30.4371 46.3543 30.4288 46.3737C30.3775 46.4919 30.3069 46.5047 30.217 46.4121C29.9769 46.165 29.3737 46.1336 29.2937 46.5808C29.2654 46.7392 29.2579 46.9157 29.2709 47.1103C29.273 47.1349 29.2864 47.1471 29.3109 47.1471H30.1346C30.1396 47.1471 30.1444 47.1491 30.1479 47.1524C30.1514 47.1558 30.1534 47.1604 30.1534 47.1652L30.1542 47.5158C30.1542 47.5305 30.1469 47.5378 30.1322 47.5378H29.3078C29.2976 47.5378 29.2878 47.5418 29.2806 47.5488C29.2734 47.5559 29.2694 47.5655 29.2694 47.5755Z" fill="#2A67E8"/>
<path d="M23.8763 47.2797V46.0207C23.8763 45.8779 23.9419 45.8337 24.0732 45.8881C24.1025 45.9001 24.121 45.908 24.1289 45.9116C24.2617 45.9666 24.3284 46.0599 24.3289 46.1917C24.33 47.3213 24.3302 48.4598 24.3297 49.6072C24.3297 49.6354 24.3156 49.6495 24.2873 49.6495H23.9242C23.8975 49.6495 23.8847 49.6362 23.8857 49.6095L23.8896 49.4801C23.8897 49.4762 23.8887 49.4724 23.8867 49.4691C23.8846 49.4659 23.8816 49.4633 23.8781 49.4617C23.8746 49.4601 23.8707 49.4596 23.8669 49.4602C23.8631 49.4608 23.8595 49.4625 23.8567 49.4652C23.6271 49.6765 23.3481 49.7588 23.0197 49.7123C22.2494 49.6032 22.0901 48.8745 22.1505 48.1865C22.1882 47.7551 22.4039 47.3127 22.8306 47.1621C23.1946 47.0334 23.5257 47.0813 23.8237 47.3056C23.8588 47.3323 23.8763 47.3236 23.8763 47.2797ZM22.7004 47.879C22.6267 48.0757 22.6024 48.3181 22.6275 48.6062C22.6737 49.1459 22.9812 49.4613 23.5586 49.2973C23.721 49.251 23.8794 49.1357 23.8787 48.9514C23.8755 48.5283 23.875 48.1429 23.8771 47.7951C23.8773 47.7806 23.8745 47.7661 23.8686 47.7528C23.8628 47.7394 23.8542 47.7273 23.8434 47.7174C23.4935 47.3958 22.891 47.3668 22.7004 47.879Z" fill="#2A67E8"/>
<path d="M43.2262 49.5162L43.2285 49.6134C43.2291 49.6375 43.2176 49.6495 43.194 49.6495H42.8191C42.794 49.6495 42.7814 49.6372 42.7814 49.6127V45.9901C42.7814 45.875 42.8353 45.8379 42.943 45.8787C42.9765 45.8913 43.0173 45.9067 43.0654 45.925C43.1778 45.9679 43.234 46.0492 43.234 46.1689L43.2348 47.3033C43.2348 47.3336 43.2471 47.3399 43.2717 47.3221C43.8004 46.9314 44.6147 47.0224 44.8673 47.7002C45.0532 48.1999 45.0453 48.9906 44.6445 49.4252C44.2954 49.8048 43.642 49.8205 43.2725 49.495C43.2411 49.4673 43.2257 49.4743 43.2262 49.5162ZM44.0279 49.3091C44.5464 49.182 44.537 48.3654 44.4421 47.974C44.3631 47.6487 44.1552 47.4834 43.8184 47.4782C43.5831 47.4743 43.2364 47.588 43.2356 47.872C43.2346 48.2501 43.2346 48.6261 43.2356 49C43.2356 49.0335 43.2474 49.062 43.2709 49.0855C43.4926 49.3036 43.745 49.3781 44.0279 49.3091Z" fill="#2A67E8"/>
<path d="M47.2065 49.2597C47.2072 49.3663 47.2873 49.4558 47.4018 49.4393C47.441 49.4335 47.4601 49.4505 47.4591 49.4903L47.4559 49.6095C47.4554 49.6336 47.4434 49.648 47.4198 49.6527C46.9962 49.7335 46.7452 49.6511 46.746 49.1749C46.7481 48.0945 46.7476 47.0428 46.7444 46.0199C46.7439 45.8756 46.8127 45.8319 46.9507 45.8889C46.957 45.8915 46.9758 45.8994 47.0072 45.9124C47.1395 45.9668 47.2054 46.0657 47.2049 46.209C47.2018 47.2371 47.2023 48.254 47.2065 49.2597Z" fill="#2A67E8"/>
<path d="M21.5991 49.4118C21.6367 49.4333 21.677 49.4435 21.7199 49.4424C21.7559 49.4419 21.7743 49.4594 21.7748 49.495L21.7763 49.5946C21.7763 49.6244 21.762 49.6427 21.7332 49.6495C21.421 49.7233 21.0719 49.6911 21.0719 49.2699C21.0709 48.0116 21.0696 46.9293 21.068 46.023C21.0675 45.8766 21.1344 45.8319 21.2688 45.8889C21.2772 45.892 21.2942 45.8991 21.3198 45.9101C21.4552 45.9671 21.523 46.0691 21.523 46.216V49.2801C21.523 49.3068 21.53 49.333 21.5434 49.3561C21.5567 49.3793 21.5759 49.3985 21.5991 49.4118Z" fill="#2A67E8"/>
<path d="M41.7577 46.6231C41.9197 46.6231 42.0511 46.4918 42.0511 46.3298C42.0511 46.1677 41.9197 46.0364 41.7577 46.0364C41.5957 46.0364 41.4643 46.1677 41.4643 46.3298C41.4643 46.4918 41.5957 46.6231 41.7577 46.6231Z" fill="#2A67E8"/>
<path d="M45.767 46.6231C45.929 46.6231 46.0604 46.4918 46.0604 46.3298C46.0604 46.1677 45.929 46.0364 45.767 46.0364C45.605 46.0364 45.4736 46.1677 45.4736 46.3298C45.4736 46.4918 45.605 46.6231 45.767 46.6231Z" fill="#2A67E8"/>
<path d="M48.2074 46.6224C48.3694 46.6224 48.5008 46.491 48.5008 46.329C48.5008 46.1669 48.3694 46.0356 48.2074 46.0356C48.0454 46.0356 47.914 46.1669 47.914 46.329C47.914 46.491 48.0454 46.6224 48.2074 46.6224Z" fill="#2A67E8"/>
<path d="M51.3311 46.6231C51.4931 46.6231 51.6245 46.4918 51.6245 46.3298C51.6245 46.1677 51.4931 46.0364 51.3311 46.0364C51.169 46.0364 51.0377 46.1677 51.0377 46.3298C51.0377 46.4918 51.169 46.6231 51.3311 46.6231Z" fill="#2A67E8"/>
<path d="M9.30367 48.7333L8.98127 49.6268C8.97898 49.6334 8.97473 49.6392 8.9691 49.6433C8.96348 49.6473 8.95676 49.6495 8.94989 49.6495L8.52001 49.6487C8.50799 49.6487 8.50406 49.6432 8.50825 49.6323L9.77042 46.176C9.77505 46.1628 9.7826 46.1508 9.79252 46.1408C9.80243 46.1309 9.81445 46.1234 9.82768 46.1187C9.99242 46.0591 10.1315 46.0657 10.245 46.1384C10.2994 46.1729 10.359 46.2796 10.4239 46.4584C10.8046 47.5049 11.1921 48.5636 11.5864 49.6346C11.587 49.6363 11.5873 49.6381 11.5871 49.6398C11.5868 49.6416 11.5862 49.6433 11.5852 49.6447C11.5842 49.6462 11.5829 49.6474 11.5813 49.6482C11.5797 49.6491 11.578 49.6495 11.5762 49.6495H11.1197C11.1087 49.6495 11.1014 49.6443 11.0977 49.6338L10.7651 48.7404C10.7531 48.7085 10.7301 48.6925 10.6961 48.6925H9.36251C9.33322 48.6925 9.31361 48.7061 9.30367 48.7333ZM9.44958 48.2783C9.44834 48.282 9.44798 48.2858 9.44853 48.2896C9.44908 48.2934 9.45052 48.2971 9.45274 48.3002C9.45496 48.3033 9.4579 48.3059 9.4613 48.3077C9.46471 48.3095 9.46849 48.3104 9.47233 48.3105H10.5894C10.5932 48.3104 10.597 48.3095 10.6004 48.3077C10.6038 48.3059 10.6067 48.3033 10.609 48.3002C10.6112 48.2971 10.6126 48.2934 10.6132 48.2896C10.6137 48.2858 10.6134 48.282 10.6121 48.2783L10.0536 46.6953C10.0519 46.6907 10.0487 46.6867 10.0447 46.6839C10.0406 46.6811 10.0358 46.6796 10.0309 46.6796C10.0259 46.6796 10.0211 46.6811 10.017 46.6839C10.013 46.6867 10.0099 46.6907 10.0081 46.6953L9.44958 48.2783Z" fill="#2A67E8"/>
<path d="M49.6837 47.5896C49.6848 48.0351 49.6851 48.4925 49.6845 48.9616C49.6845 49.4416 50.1905 49.4009 50.4368 49.1389C50.4583 49.1158 50.4784 49.1171 50.4972 49.1428C50.5631 49.2322 50.6651 49.3671 50.5929 49.4809C50.4235 49.7492 49.8963 49.7562 49.6461 49.677C49.3056 49.5703 49.2217 49.2408 49.2264 48.9176C49.2369 48.1599 49.2366 47.3608 49.2256 46.5204C49.2241 46.3781 49.2889 46.3342 49.4202 46.3886C49.462 46.4053 49.4868 46.4153 49.4947 46.4184C49.6202 46.4702 49.6832 46.5614 49.6837 46.6922L49.6853 47.1064C49.6853 47.1336 49.6989 47.1471 49.7261 47.1471H50.4423C50.4616 47.1471 50.4713 47.1566 50.4713 47.1754V47.5049C50.4713 47.5252 50.4611 47.5354 50.4407 47.5354H49.7371C49.7015 47.5354 49.6837 47.5535 49.6837 47.5896Z" fill="#2A67E8"/>
<path d="M16.4154 48.9561C16.1087 47.9002 16.7347 46.7934 17.9435 47.1621C18.239 47.2525 18.4445 47.4502 18.5601 47.7551C18.8049 48.4007 18.6943 49.4056 17.9232 49.6582C17.3011 49.8613 16.6116 49.6323 16.4154 48.9561ZM17.6227 47.4962C16.8359 47.4154 16.7237 48.2454 16.8704 48.8188C16.9421 49.0996 17.1055 49.2685 17.3607 49.3256C17.6964 49.4001 18.011 49.2322 18.1185 48.8972C18.255 48.4721 18.2707 47.5621 17.6227 47.4962Z" fill="#2A67E8"/>
<path d="M19.7313 47.3527C19.9311 47.1152 20.1837 47.0418 20.4891 47.1322C20.7315 47.2036 20.6287 47.4774 20.5393 47.6241C20.5252 47.6476 20.5066 47.6518 20.4836 47.6366C20.2451 47.4813 20.0184 47.4954 19.8035 47.679C19.7402 47.7334 19.7088 47.8097 19.7093 47.9081C19.7109 48.464 19.7104 49.0348 19.7078 49.6205C19.7072 49.6393 19.6978 49.6487 19.6795 49.6487L19.2873 49.6495C19.2827 49.6496 19.2781 49.6488 19.2739 49.6471C19.2696 49.6453 19.2657 49.6428 19.2624 49.6395C19.2591 49.6362 19.2565 49.6323 19.2547 49.6279C19.2529 49.6236 19.252 49.6189 19.252 49.6142L19.2528 47.1832C19.2528 47.1571 19.2659 47.1424 19.292 47.1393C19.485 47.1189 19.6162 47.1877 19.6858 47.3456C19.6973 47.3723 19.7125 47.3746 19.7313 47.3527Z" fill="#2A67E8"/>
<path d="M25.9723 48.9372C25.686 47.9112 26.2555 46.8506 27.4463 47.1409C28.4104 47.3762 28.4614 48.949 27.804 49.4864C27.4659 49.7625 26.9341 49.7899 26.5497 49.6276C26.2589 49.5041 26.0665 49.274 25.9723 48.9372ZM26.4305 48.0093C26.2987 48.487 26.3724 49.2903 27.018 49.3389C27.7703 49.3954 27.8315 48.476 27.7052 47.9826C27.6304 47.6918 27.4591 47.5307 27.1914 47.4994C26.7908 47.4523 26.5371 47.6223 26.4305 48.0093Z" fill="#2A67E8"/>
<path d="M32.1224 49.5334V50.7666C32.1224 50.773 32.1198 50.7792 32.1153 50.7838C32.1107 50.7883 32.1045 50.7909 32.0981 50.7909H31.6933C31.6862 50.7909 31.6794 50.7881 31.6744 50.7831C31.6694 50.7781 31.6666 50.7713 31.6666 50.7642V47.1848C31.6666 47.1576 31.6797 47.1424 31.7058 47.1393C31.8742 47.12 31.999 47.1699 32.08 47.2891C32.0861 47.2977 32.0889 47.308 32.0879 47.3182C32.0858 47.3359 32.0921 47.3485 32.1067 47.3558C32.1136 47.3592 32.1214 47.3605 32.129 47.3593C32.1366 47.3582 32.1436 47.3548 32.1491 47.3495C32.3106 47.1968 32.4973 47.1137 32.7091 47.1001C33.3775 47.0567 33.7572 47.3885 33.8482 48.0955C33.9337 48.7631 33.7572 49.557 32.9955 49.7037C32.6707 49.7669 32.3964 49.7023 32.1726 49.5099C32.1391 49.4811 32.1224 49.489 32.1224 49.5334ZM33.3289 47.981C33.2041 47.4397 32.6252 47.3433 32.2251 47.6327C32.1551 47.6834 32.1206 47.7561 32.1216 47.8508C32.1242 48.2252 32.124 48.6094 32.1208 49.0031C32.1203 49.035 32.1313 49.0622 32.1538 49.0847C32.3514 49.2845 32.5844 49.3637 32.8527 49.3224C33.4316 49.233 33.4222 48.3858 33.3289 47.981Z" fill="#2A67E8"/>
<path d="M36.4863 49.0871C36.236 49.6778 35.5551 49.8464 35.0005 49.6527C34.6642 49.5355 34.448 49.2916 34.3518 48.9208C34.1415 48.1128 34.4334 47.1032 35.4351 47.0946C35.9408 47.0899 36.2886 47.2881 36.4784 47.6892C36.6722 48.0987 36.6627 48.669 36.4863 49.0871ZM34.7879 48.1018C34.7008 48.589 34.7934 49.3114 35.4147 49.3373C36.1419 49.3679 36.2078 48.5419 36.0925 48.0077C36.0318 47.7237 35.871 47.5558 35.61 47.5041C35.1739 47.417 34.864 47.6735 34.7879 48.1018Z" fill="#2A67E8"/>
<path d="M38.3626 49.0408C38.4638 48.3003 36.9483 48.7961 37.0401 47.7378C37.1005 47.0397 38.0128 47.0091 38.5266 47.2099C38.7635 47.3025 38.8184 47.479 38.6615 47.7025C38.6301 47.747 38.5948 47.7506 38.5556 47.7135C38.3318 47.5017 38.0666 47.4251 37.7602 47.4837C37.3868 47.5551 37.3891 47.9771 37.7461 48.0728C38.2732 48.2132 38.9188 48.3395 38.8035 49.0635C38.6858 49.8088 37.6896 49.8143 37.153 49.5703C37.0448 49.5211 37.0074 49.4393 37.0408 49.3248C37.0508 49.2923 37.0623 49.2534 37.0754 49.2079C37.1088 49.0934 37.1719 49.0737 37.2644 49.149C37.5065 49.3452 37.7981 49.3967 38.1391 49.3036C38.2473 49.2746 38.3469 49.153 38.3626 49.0408Z" fill="#2A67E8"/>
<path d="M40.5442 49.0533C40.654 48.3277 39.2993 48.7686 39.2208 47.8665C39.1494 47.053 40.2061 46.9958 40.7152 47.2138C40.9605 47.3184 41.0033 47.4829 40.8438 47.7072C40.8146 47.748 40.7816 47.7514 40.745 47.7174C40.4992 47.4868 40.2171 47.4133 39.8986 47.497C39.5785 47.5809 39.5942 47.9528 39.8947 48.0587C40.3708 48.2273 41.0196 48.2571 41.0031 48.9498C40.9827 49.8088 39.8711 49.8284 39.3236 49.5601C39.2268 49.5125 39.1941 49.4372 39.2255 49.3342C39.2527 49.2448 39.2668 49.1985 39.2679 49.1953C39.2993 49.0923 39.3568 49.0748 39.4405 49.1428C39.6578 49.3201 40.2194 49.4762 40.4642 49.2142C40.5086 49.1666 40.5353 49.113 40.5442 49.0533Z" fill="#2A67E8"/>
<path d="M52.645 48.5458C52.7046 49.1216 53.0038 49.3841 53.5424 49.3334C53.7657 49.3119 53.9409 49.2309 54.068 49.0902C54.1098 49.0437 54.1457 49.0479 54.1755 49.1028L54.261 49.2644C54.2908 49.3203 54.2858 49.3731 54.2461 49.4228C54.1718 49.5159 54.073 49.5842 53.9496 49.6276C53.2483 49.8723 52.4379 49.6935 52.2316 48.8855C52.0041 47.9959 52.3838 46.9981 53.4695 47.1024C54.1817 47.1715 54.392 47.8414 54.3206 48.4525C54.3198 48.4611 54.3158 48.4691 54.3094 48.4749C54.3031 48.4807 54.2947 48.4839 54.2861 48.4838L52.6999 48.4846C52.6591 48.4846 52.6408 48.505 52.645 48.5458ZM52.6819 48.1473L53.8664 48.1395C53.8693 48.1395 53.8721 48.1389 53.8748 48.1378C53.8775 48.1367 53.8799 48.1351 53.8819 48.133C53.884 48.131 53.8856 48.1286 53.8867 48.1259C53.8878 48.1232 53.8884 48.1204 53.8884 48.1175L53.8876 48.0846C53.8865 47.9211 53.8255 47.7647 53.7181 47.6498C53.6107 47.535 53.4657 47.471 53.3149 47.4719H53.2239C53.0732 47.4731 52.9291 47.5391 52.8233 47.6554C52.7176 47.7718 52.6588 47.929 52.6599 48.0924V48.1254C52.6599 48.1312 52.6622 48.1368 52.6664 48.1409C52.6705 48.145 52.6761 48.1473 52.6819 48.1473Z" fill="#2A67E8"/>
<path d="M55.5514 47.4696C55.1042 47.5166 55.0799 47.9857 55.5114 48.0893C56.0707 48.2234 56.6778 48.3936 56.5147 49.1224C56.357 49.8252 55.3498 49.8096 54.8391 49.5483C54.7998 49.5282 54.7694 49.4942 54.7539 49.4528C54.7383 49.4114 54.7388 49.3658 54.7552 49.3248L54.7975 49.2165C54.842 49.1051 54.911 49.0868 55.0046 49.1616C55.2185 49.3326 55.4889 49.3849 55.8157 49.3185C55.9624 49.2895 56.0919 49.1467 56.0911 48.9937C56.09 48.772 55.9501 48.6334 55.6714 48.578C55.4784 48.5393 55.3064 48.4857 55.1552 48.4172C54.5912 48.1614 54.6257 47.4005 55.2109 47.1785C55.5318 47.0569 56.1452 47.046 56.4253 47.3331C56.4516 47.3599 56.4693 47.394 56.476 47.4311C56.4828 47.4681 56.4782 47.5064 56.4629 47.5409L56.4009 47.6814C56.3701 47.7514 56.3269 47.7601 56.2715 47.7072C56.0738 47.5195 55.8338 47.4403 55.5514 47.4696Z" fill="#2A67E8"/>
<path d="M42.1217 49.4283C42.1484 49.4382 42.1761 49.4435 42.2049 49.444C42.2383 49.4445 42.2553 49.4615 42.2558 49.495L42.2566 49.5946C42.2571 49.6276 42.2412 49.6472 42.2088 49.6534C41.873 49.7193 41.5561 49.6911 41.5538 49.2424C41.5501 48.55 41.548 47.8921 41.5475 47.2687C41.5475 47.1375 41.6105 47.0896 41.7365 47.1252L41.7899 47.1409C41.9337 47.1817 42.0056 47.2768 42.0056 47.4264L42.0072 49.2636C42.0074 49.2994 42.0184 49.3343 42.0389 49.3637C42.0593 49.3931 42.0882 49.4156 42.1217 49.4283Z" fill="#2A67E8"/>
<path d="M46.1231 49.426C46.1545 49.4385 46.187 49.4445 46.2204 49.444C46.2487 49.443 46.2649 49.4566 46.2691 49.4848C46.2753 49.5313 46.273 49.5755 46.262 49.6174C46.2573 49.6367 46.245 49.6482 46.2251 49.6519C45.8329 49.7319 45.5607 49.6644 45.5599 49.211C45.5589 48.5782 45.5573 47.9292 45.5552 47.264C45.5547 47.1181 45.6219 47.0726 45.7568 47.1275C45.7793 47.1364 45.7958 47.143 45.8062 47.1471C45.9438 47.2031 46.0125 47.3053 46.0125 47.4539L46.0141 49.2628C46.0141 49.2976 46.0244 49.3317 46.0439 49.3608C46.0633 49.3898 46.0908 49.4125 46.1231 49.426Z" fill="#2A67E8"/>
<path d="M48.4529 49.2173C48.4537 49.3467 48.5079 49.4432 48.6498 49.4393C48.6875 49.4383 48.7063 49.4563 48.7063 49.4934V49.5978C48.7063 49.6276 48.6917 49.6456 48.6624 49.6519C48.3345 49.7217 48.0019 49.688 48.0011 49.251C47.9995 48.5759 47.9974 47.9162 47.9948 47.2719C47.9943 47.1396 48.0578 47.0909 48.1855 47.126L48.2357 47.1393C48.38 47.1796 48.4522 47.2748 48.4522 47.4248C48.4506 48.0341 48.4509 48.6316 48.4529 49.2173Z" fill="#2A67E8"/>
<path d="M51.579 49.1828C51.579 49.3083 51.6041 49.4526 51.7688 49.4393C51.808 49.4362 51.8289 49.4542 51.8315 49.4934L51.8363 49.575C51.8394 49.6221 51.8177 49.6493 51.7711 49.6566C51.4393 49.7076 51.1271 49.6942 51.1248 49.2447C51.1206 48.5246 51.1185 47.862 51.1185 47.257C51.1185 47.1158 51.187 47.0729 51.324 47.1283C51.3256 47.1288 51.3444 47.1364 51.3805 47.1511C51.5102 47.2039 51.5753 47.3001 51.5758 47.4397C51.5763 48.0317 51.5774 48.6128 51.579 49.1828Z" fill="#2A67E8"/>
<path d="M13.6754 49.1036C13.6864 49.1375 13.6984 49.1381 13.7115 49.1051L14.1798 47.963C14.1923 47.9321 14.1929 47.901 14.1813 47.8696L13.9735 47.2962C13.9275 47.1686 13.9714 47.115 14.1053 47.1354C14.1534 47.1427 14.1819 47.1469 14.1908 47.1479C14.3283 47.1688 14.4196 47.2421 14.4645 47.3676C14.6842 47.9805 14.8889 48.5526 15.0788 49.0839C15.0971 49.1347 15.113 49.1339 15.1266 49.0816L15.5635 47.3997C15.6007 47.257 15.6922 47.1738 15.8381 47.1503C15.8585 47.1466 15.8836 47.1424 15.9134 47.1377C16.0536 47.1152 16.103 47.1717 16.0617 47.3072L15.3564 49.6205C15.3524 49.6343 15.344 49.6465 15.3325 49.6551C15.3211 49.6637 15.3072 49.6684 15.2929 49.6684L14.9305 49.6691C14.9028 49.6691 14.884 49.6563 14.874 49.6307L14.412 48.4383C14.3979 48.4012 14.3832 48.401 14.368 48.4376L13.8605 49.6378C13.8521 49.6582 13.837 49.6684 13.815 49.6684L13.4706 49.6691C13.4508 49.6691 13.4377 49.6597 13.4314 49.6409L12.6203 47.3017C12.5738 47.1683 12.6203 47.1132 12.7599 47.1362C12.7856 47.1403 12.8114 47.1435 12.8376 47.1456C12.9924 47.1571 13.0928 47.2371 13.1388 47.3856L13.6754 49.1036Z" fill="#2A67E8"/>
<path d="M26.5811 55.1469C26.3504 55.3504 26.073 55.4277 25.7488 55.3791C24.9016 55.2536 24.7753 54.3366 24.9235 53.6384C25.0412 53.083 25.4522 52.7293 26.021 52.7653C26.2249 52.7784 26.4124 52.8548 26.5834 52.9944C26.5861 52.9964 26.5892 52.9977 26.5926 52.998C26.5959 52.9984 26.5993 52.9978 26.6023 52.9963C26.6053 52.9948 26.6078 52.9926 26.6096 52.9897C26.6114 52.9869 26.6124 52.9836 26.6124 52.9803L26.6117 51.6922C26.6117 51.5447 26.6794 51.5003 26.8148 51.5589C26.8363 51.5683 26.8538 51.5759 26.8674 51.5816C27.0013 51.6391 27.0682 51.7411 27.0682 51.8875V55.2614C27.0682 55.2975 27.0504 55.3158 27.0149 55.3164L26.6674 55.3171C26.6344 55.3177 26.6187 55.3015 26.6203 55.2685L26.6258 55.1681C26.6279 55.1257 26.613 55.1187 26.5811 55.1469ZM25.8594 53.1693C25.3463 53.2627 25.3173 53.9428 25.3746 54.3648C25.4483 54.91 25.8327 55.1336 26.3575 54.943C26.516 54.8849 26.6179 54.768 26.6156 54.5986C26.6093 54.2137 26.6093 53.8377 26.6156 53.4706C26.6158 53.4557 26.613 53.441 26.6074 53.4274C26.6017 53.4137 26.5933 53.4015 26.5826 53.3913C26.3766 53.1931 26.1355 53.1191 25.8594 53.1693Z" fill="#2A67E8"/>
<path d="M32.7382 52.9465V51.6883C32.7382 51.5502 32.8025 51.5063 32.9311 51.5565C32.9468 51.5623 32.9625 51.5678 32.9782 51.573C33.0405 51.5942 33.0945 51.6343 33.1327 51.6877C33.171 51.741 33.1916 51.8048 33.1916 51.8703V55.2599C33.1916 55.297 33.1728 55.3158 33.1351 55.3164L32.7954 55.3171C32.7557 55.3177 32.7377 55.2981 32.7413 55.2583L32.7476 55.1806C32.7512 55.1388 32.7363 55.1307 32.7029 55.1563C32.1161 55.6011 31.2752 55.4144 31.0704 54.6582C30.9041 54.0456 30.9849 53.134 31.647 52.8493C31.9616 52.7144 32.4126 52.7269 32.6793 52.9724C32.7186 53.009 32.7382 53.0004 32.7382 52.9465ZM31.9639 53.1764C31.4281 53.309 31.436 54.0463 31.5239 54.4864C31.5999 54.8684 31.8941 55.0575 32.284 54.9987C32.4895 54.9681 32.7421 54.8559 32.7397 54.6166C32.7366 54.238 32.7366 53.8565 32.7397 53.4721C32.74 53.4554 32.7366 53.4387 32.7298 53.4233C32.7231 53.4079 32.7131 53.394 32.7005 53.3827C32.4756 53.1798 32.2301 53.111 31.9639 53.1764Z" fill="#2A67E8"/>
<path d="M48.5455 55.1791L48.5432 55.263C48.5428 55.2775 48.5367 55.2913 48.5263 55.3014C48.5159 55.3115 48.502 55.3171 48.4875 55.3171L48.1329 55.3164C48.1083 55.3164 48.096 55.3041 48.096 55.2795V51.6687C48.096 51.5474 48.1528 51.5079 48.2663 51.5502C48.2809 51.5555 48.3188 51.5696 48.38 51.5926C48.4295 51.611 48.4722 51.6442 48.5023 51.6876C48.5325 51.7311 48.5487 51.7828 48.5486 51.8358L48.5494 52.9842C48.5493 52.9878 48.5502 52.9913 48.5521 52.9943C48.554 52.9974 48.5567 52.9998 48.56 53.0014C48.5633 53.003 48.567 53.0036 48.5707 53.0032C48.5744 53.0028 48.5779 53.0014 48.5808 52.9991C48.8758 52.768 49.2115 52.7044 49.588 52.8085C50.3089 53.0085 50.3843 53.942 50.236 54.5554C50.1126 55.0664 49.8001 55.3443 49.2986 55.3893C49.0177 55.4144 48.7814 55.3381 48.5894 55.1603C48.5617 55.1346 48.5471 55.1409 48.5455 55.1791ZM48.5777 54.7421C48.8193 55.023 49.2954 55.1053 49.5653 54.852C49.6913 54.7343 49.7674 54.5562 49.7936 54.3178C49.8414 53.8879 49.8069 53.269 49.2954 53.1638C49.0311 53.1097 48.551 53.1944 48.5502 53.5498C48.5492 53.92 48.5486 54.2916 48.5486 54.6645C48.5486 54.6928 48.5589 54.7204 48.5777 54.7421Z" fill="#2A67E8"/>
<path d="M52.3618 54.9265C52.3618 55.0434 52.4505 55.1187 52.5666 55.1116C52.5737 55.1112 52.5809 55.1122 52.5876 55.1147C52.5943 55.1173 52.6005 55.1211 52.6056 55.1262C52.6107 55.1312 52.6147 55.1373 52.6173 55.144C52.6199 55.1506 52.621 55.1578 52.6207 55.165L52.6152 55.2661C52.6136 55.2981 52.5969 55.3169 52.565 55.3226C52.1445 55.3987 51.9014 55.3187 51.9037 54.8418C51.9089 53.6865 51.9076 52.637 51.8998 51.693C51.8987 51.544 51.967 51.4985 52.1045 51.5565C52.1317 51.568 52.1498 51.5756 52.1587 51.5793C52.2931 51.6363 52.3605 51.7309 52.3611 51.8632C52.3626 52.8966 52.3629 53.9177 52.3618 54.9265Z" fill="#2A67E8"/>
<path d="M57.2929 51.6224C57.3274 51.6323 57.3614 51.6418 57.3948 51.6506C57.5073 51.6799 57.524 51.7369 57.445 51.8217L56.9524 52.3527C56.8766 52.4348 56.7835 52.4678 56.6731 52.4516C56.6569 52.4495 56.6376 52.4469 56.6151 52.4437C56.5089 52.428 56.4885 52.3776 56.5539 52.2923L56.9916 51.7212C57.0261 51.6764 57.0733 51.643 57.127 51.6254C57.1807 51.6078 57.2385 51.6067 57.2929 51.6224Z" fill="#2A67E8"/>
<path d="M47.1531 52.2915C47.3152 52.2915 47.4465 52.1602 47.4465 51.9982C47.4465 51.8361 47.3152 51.7048 47.1531 51.7048C46.9911 51.7048 46.8597 51.8361 46.8597 51.9982C46.8597 52.1602 46.9911 52.2915 47.1531 52.2915Z" fill="#2A67E8"/>
<path d="M50.9757 52.2915C51.1378 52.2915 51.2691 52.1602 51.2691 51.9982C51.2691 51.8361 51.1378 51.7048 50.9757 51.7048C50.8137 51.7048 50.6823 51.8361 50.6823 51.9982C50.6823 52.1602 50.8137 52.2915 50.9757 52.2915Z" fill="#2A67E8"/>
<path d="M53.2577 52.2923C53.4197 52.2923 53.5511 52.161 53.5511 51.9989C53.5511 51.8369 53.4197 51.7056 53.2577 51.7056C53.0956 51.7056 52.9643 51.8369 52.9643 51.9989C52.9643 52.161 53.0956 52.2923 53.2577 52.2923Z" fill="#2A67E8"/>
<path d="M9.8371 54.9547C10.4741 55.0763 10.8969 54.8025 10.9032 54.1436C10.911 53.3628 10.9128 52.6058 10.9086 51.8726C10.9076 51.7503 10.9651 51.7084 11.0812 51.7471C11.145 51.7686 11.1829 51.7814 11.195 51.7856C11.3111 51.8243 11.3704 51.9048 11.373 52.0272C11.3856 52.6594 11.3872 53.3084 11.3777 53.9742C11.3725 54.3204 11.3307 54.5813 11.2522 54.757C10.9549 55.4207 10.045 55.5125 9.44723 55.292C8.90204 55.0904 8.77025 54.4809 8.77653 53.9342C8.78385 53.2512 8.78306 52.5779 8.77417 51.9142C8.7726 51.7699 8.84137 51.7163 8.98048 51.7534L9.01814 51.7636C9.17346 51.8054 9.25059 51.9066 9.24955 52.0672C9.24275 53.0383 9.24249 53.7305 9.24876 54.1436C9.25504 54.5209 9.4488 54.881 9.8371 54.9547Z" fill="#2A67E8"/>
<path d="M54.6265 53.258C54.6239 53.7328 54.6255 54.1839 54.6312 54.6111C54.6383 55.0716 55.0815 55.1014 55.3404 54.8418C55.4047 54.7774 55.4544 54.7874 55.4894 54.8716C55.5046 54.9087 55.5231 54.9539 55.5451 55.0073C55.561 55.0452 55.5631 55.0874 55.551 55.1267C55.539 55.1659 55.5136 55.1997 55.4792 55.2222C54.9787 55.5509 54.1794 55.4529 54.177 54.6904C54.1739 53.9253 54.1718 53.0932 54.1708 52.1943C54.1708 52.0489 54.238 52.0039 54.3724 52.0593C54.3996 52.0708 54.4184 52.0787 54.4288 52.0829C54.5606 52.1378 54.6265 52.2364 54.6265 52.3786V52.7716C54.6265 52.804 54.6427 52.8203 54.6752 52.8203L55.3914 52.8218C55.4107 52.8218 55.4204 52.8312 55.4204 52.8501L55.418 53.1764C55.418 53.1841 55.415 53.1915 55.4095 53.1969C55.4041 53.2024 55.3967 53.2054 55.389 53.2054H54.6791C54.6446 53.2054 54.627 53.2229 54.6265 53.258Z" fill="#2A67E8"/>
<path d="M12.3709 53.0399C12.7921 52.6767 13.6981 52.5935 13.9272 53.2274C13.9748 53.3576 13.9981 53.5043 13.997 53.6675C13.9939 54.2532 13.9931 54.7947 13.9947 55.292C13.9952 55.3082 13.9871 55.3164 13.9703 55.3164L13.5632 55.3171C13.548 55.3171 13.5405 55.3093 13.5405 55.2936C13.5431 54.7304 13.5426 54.1789 13.5389 53.6392C13.5373 53.3777 13.4168 53.2274 13.1773 53.1882C12.8815 53.1403 12.3497 53.2133 12.3528 53.6172C12.3565 54.203 12.3567 54.7602 12.3536 55.2889C12.3531 55.3072 12.3437 55.3164 12.3254 55.3164L11.9331 55.3171C11.9238 55.3171 11.9148 55.3134 11.9082 55.3068C11.9016 55.3002 11.8978 55.2912 11.8978 55.2818V52.8524C11.8978 52.8252 11.9114 52.8106 11.9386 52.8085C12.1405 52.7912 12.2702 52.8647 12.3277 53.0289C12.3366 53.0535 12.351 53.0572 12.3709 53.0399Z" fill="#2A67E8"/>
<path d="M16.1056 53.0375C16.4908 52.6783 17.163 52.6539 17.5247 53.0462C17.544 53.0671 17.5647 53.0684 17.5866 53.0501C17.8973 52.7891 18.2487 52.7055 18.6409 52.7991C19.0582 52.8995 19.1775 53.2807 19.179 53.6659C19.1806 54.1993 19.1801 54.7398 19.1775 55.2873C19.1775 55.3067 19.1678 55.3164 19.1485 55.3164L18.7547 55.3171C18.7343 55.3171 18.7241 55.3069 18.7241 55.2865C18.722 54.762 18.7222 54.2291 18.7249 53.6878C18.7256 53.4666 18.6503 53.2399 18.4056 53.1936C18.1315 53.1424 17.8978 53.1957 17.7043 53.3537C17.6766 53.3762 17.6627 53.4052 17.6627 53.4408L17.6713 55.2881C17.6719 55.3064 17.6627 55.3156 17.6439 55.3156L17.2446 55.3171C17.2221 55.3171 17.2111 55.3062 17.2117 55.2842C17.2164 54.7299 17.2143 54.1802 17.2054 53.6353C17.1936 52.9269 16.0828 53.1309 16.0797 53.5812C16.0766 54.1559 16.0768 54.7246 16.0805 55.2873C16.0805 55.3067 16.0708 55.3164 16.0515 55.3164L15.6592 55.3171C15.6357 55.3171 15.6239 55.3054 15.6239 55.2818V52.8642C15.6239 52.8312 15.6404 52.8129 15.6734 52.8093C15.8752 52.7873 16.002 52.8587 16.0538 53.0234C16.0638 53.0553 16.081 53.06 16.1056 53.0375Z" fill="#2A67E8"/>
<path d="M21.8666 53.5718C22.0478 54.2785 21.8697 55.1932 21.0452 55.3642C19.9831 55.5838 19.4858 54.7508 19.616 53.8047C19.685 53.3074 20.0004 52.8893 20.5048 52.792C21.126 52.672 21.7018 52.9277 21.8666 53.5718ZM20.3832 53.2721C19.9141 53.6063 19.9423 54.8661 20.6122 54.9932C21.4594 55.1548 21.5418 54.1405 21.3873 53.6102C21.2586 53.1701 20.7385 53.0187 20.3832 53.2721Z" fill="#2A67E8"/>
<path d="M27.9687 54.204C27.9946 54.6582 28.2308 55.0041 28.7226 55.0089C29.0139 55.0115 29.2448 54.9213 29.4153 54.7382C29.4372 54.7142 29.4576 54.7155 29.4765 54.7421C29.534 54.8232 29.5729 54.9056 29.5933 54.9892C29.597 55.004 29.5976 55.0195 29.5949 55.0345C29.5922 55.0495 29.5863 55.0637 29.5776 55.0763C29.3188 55.4497 28.5806 55.4372 28.2111 55.3109C27.5287 55.0771 27.3961 54.2307 27.5475 53.6172C27.7012 52.9983 28.2276 52.6869 28.8426 52.7787C29.5267 52.8807 29.7173 53.5372 29.6365 54.1342C29.6359 54.1398 29.6332 54.145 29.629 54.1488C29.6248 54.1525 29.6194 54.1546 29.6137 54.1546L28.0158 54.1538C27.9823 54.1538 27.9667 54.1705 27.9687 54.204ZM28.0174 53.8251L29.1721 53.8094C29.1769 53.8093 29.1817 53.8083 29.1861 53.8063C29.1906 53.8044 29.1946 53.8016 29.1979 53.7981C29.2013 53.7946 29.2039 53.7905 29.2057 53.786C29.2074 53.7814 29.2083 53.7766 29.2082 53.7718V53.7357C29.2071 53.6564 29.1911 53.5782 29.1612 53.5053C29.1313 53.4325 29.088 53.3666 29.0338 53.3113C28.9796 53.256 28.9156 53.2124 28.8453 53.1831C28.7751 53.1538 28.7001 53.1392 28.6245 53.1403L28.5461 53.1419C28.3937 53.144 28.2484 53.2096 28.1422 53.3242C28.036 53.4388 27.9775 53.593 27.9797 53.753V53.789C27.9798 53.7939 27.9809 53.7987 27.9828 53.8031C27.9848 53.8075 27.9876 53.8115 27.9911 53.8149C27.9946 53.8182 27.9987 53.8209 28.0032 53.8226C28.0077 53.8244 28.0125 53.8252 28.0174 53.8251Z" fill="#2A67E8"/>
<path d="M34.1894 54.215C34.2459 54.7759 34.5495 55.0638 35.0923 55.0018C35.3088 54.9772 35.4798 54.8985 35.6053 54.7657C35.6529 54.7149 35.6932 54.7204 35.7261 54.7821L35.7967 54.9163C35.8406 54.9994 35.8273 55.0719 35.7567 55.1336C35.3817 55.4646 34.7079 55.4552 34.3086 55.2583C33.7799 54.9979 33.6662 54.3421 33.7336 53.7922C33.8168 53.1238 34.3055 52.7128 34.9974 52.77C35.7089 52.8289 35.9458 53.5011 35.8642 54.113C35.86 54.1402 35.844 54.1538 35.8163 54.1538H34.2443C34.2035 54.1538 34.1852 54.1742 34.1894 54.215ZM34.2168 53.822L35.4131 53.8016C35.4155 53.8016 35.4178 53.8011 35.4199 53.8002C35.4221 53.7993 35.424 53.798 35.4256 53.7963C35.4272 53.7946 35.4285 53.7926 35.4293 53.7904C35.4301 53.7882 35.4305 53.7859 35.4304 53.7836L35.4296 53.7475C35.4267 53.5836 35.3631 53.4276 35.2526 53.3136C35.1421 53.1996 34.9939 53.137 34.8405 53.1395L34.7667 53.1411C34.6907 53.1423 34.6156 53.1596 34.5458 53.1918C34.476 53.2241 34.4129 53.2707 34.3601 53.3291C34.3073 53.3874 34.2658 53.4564 34.238 53.5319C34.2102 53.6075 34.1966 53.6882 34.198 53.7694L34.1988 53.8055C34.1989 53.8078 34.1995 53.81 34.2004 53.8121C34.2014 53.8141 34.2027 53.816 34.2044 53.8175C34.2061 53.819 34.208 53.8202 34.2102 53.821C34.2123 53.8218 34.2146 53.8221 34.2168 53.822Z" fill="#2A67E8"/>
<path d="M40.0633 53.4533C40.3292 52.7975 41.1004 52.5935 41.695 52.8924C42.3131 53.2031 42.3798 54.0848 42.1813 54.6637C41.9609 55.3054 41.2972 55.5234 40.6909 55.3313C39.9213 55.0881 39.8068 54.0856 40.0633 53.4533ZM41.3176 53.185C41.0483 53.117 40.8281 53.1683 40.6571 53.3388C40.2265 53.7686 40.3324 55.1163 41.2031 55.0034C41.8024 54.9249 41.8542 54.2032 41.7663 53.7302C41.7104 53.4279 41.5608 53.2462 41.3176 53.185Z" fill="#2A67E8"/>
<path d="M56.2095 54.2166C56.2723 54.6174 56.4033 54.9406 56.8426 54.9963C57.1747 55.0387 57.4356 54.9626 57.6255 54.768C57.6757 54.7168 57.7172 54.7228 57.7502 54.7861L57.8231 54.9226C57.8416 54.9578 57.8475 54.9983 57.8398 55.0373C57.832 55.0763 57.8112 55.1114 57.7808 55.1367C57.4741 55.3917 57.0277 55.4356 56.6433 55.365C56.1876 55.2811 55.8879 54.9665 55.7899 54.5178C55.6087 53.6863 55.8903 52.7983 56.8755 52.7638C57.667 52.7355 57.98 53.4298 57.8875 54.1114C57.8833 54.1397 57.8671 54.1538 57.8388 54.1538L56.2621 54.1546C56.2203 54.1546 56.2027 54.1752 56.2095 54.2166ZM56.2464 53.8149L57.4372 53.8071C57.4418 53.8071 57.4462 53.8053 57.4494 53.802C57.4526 53.7988 57.4544 53.7944 57.4544 53.7898L57.4537 53.7443C57.4526 53.5833 57.3909 53.4294 57.2822 53.3162C57.1735 53.2031 57.0266 53.1401 56.874 53.1411H56.8002C56.7246 53.1416 56.6498 53.1578 56.5801 53.1887C56.5104 53.2197 56.4473 53.2649 56.3942 53.3216C56.341 53.3784 56.2991 53.4456 56.2706 53.5195C56.2422 53.5933 56.2278 53.6724 56.2284 53.7522L56.2291 53.7977C56.2291 53.8022 56.231 53.8066 56.2342 53.8099C56.2374 53.8131 56.2418 53.8149 56.2464 53.8149Z" fill="#2A67E8"/>
<path d="M22.8299 53.0289C23.1666 52.769 23.5424 52.6981 23.9571 52.8163C24.3344 52.923 24.4521 53.3184 24.4497 53.6863C24.4455 54.2532 24.4453 54.7871 24.4489 55.2881C24.4489 55.3064 24.4398 55.3158 24.4215 55.3164L24.0151 55.3171C24.001 55.3171 23.994 55.3101 23.994 55.296C23.995 54.7547 23.9942 54.2045 23.9916 53.6455C23.99 53.3715 23.8598 53.2177 23.601 53.1842C23.3335 53.1489 22.804 53.2219 22.8055 53.5851C22.8071 54.1316 22.8076 54.6998 22.8071 55.2897C22.8071 55.2932 22.8064 55.2967 22.8051 55.2999C22.8037 55.3031 22.8018 55.3061 22.7993 55.3085C22.7968 55.311 22.7939 55.313 22.7906 55.3143C22.7874 55.3157 22.7839 55.3164 22.7804 55.3164H22.3772C22.3737 55.3164 22.3703 55.3157 22.367 55.3143C22.3638 55.313 22.3608 55.311 22.3584 55.3085C22.3559 55.3061 22.3539 55.3031 22.3526 55.2999C22.3512 55.2967 22.3506 55.2932 22.3506 55.2897V52.8532C22.3506 52.8271 22.3634 52.8127 22.389 52.8101C22.5851 52.7897 22.7101 52.8561 22.764 53.0093C22.777 53.0459 22.799 53.0525 22.8299 53.0289Z" fill="#2A67E8"/>
<path d="M37.8818 56.4585H37.4354L37.4346 52.8587C37.4346 52.8278 37.4498 52.8111 37.4801 52.8085C37.6773 52.7917 37.8054 52.8584 37.8645 53.0085C37.875 53.0357 37.8909 53.0394 37.9124 53.0195C38.1623 52.7899 38.4777 52.7136 38.8584 52.7904C39.2867 52.8767 39.5346 53.2391 39.5997 53.6541C39.6978 54.2762 39.5942 55.1744 38.8396 55.3564C38.4698 55.4453 38.1691 55.3838 37.9375 55.172C37.9071 55.1448 37.892 55.1514 37.892 55.1916L37.8818 56.4585ZM38.7172 54.9641C39.1447 54.8245 39.1792 54.175 39.1259 53.8055C39.0475 53.2674 38.7447 53.06 38.2175 53.1834C37.9926 53.2363 37.8813 53.3701 37.8833 53.5851C37.887 53.9255 37.887 54.2832 37.8833 54.6582C37.8833 54.6785 37.8875 54.6985 37.8954 54.717C37.9034 54.7355 37.915 54.7521 37.9296 54.7657C38.1733 54.9895 38.4359 55.0557 38.7172 54.9641Z" fill="#2A67E8"/>
<path d="M42.6339 54.8724C42.6622 54.7693 42.7194 54.7492 42.8057 54.812C43.0724 55.007 43.3603 55.0635 43.6694 54.9814C43.8161 54.9414 43.9228 54.8057 43.922 54.6543C43.9204 54.2676 43.4192 54.2252 43.1336 54.1444C42.3884 53.9334 42.4041 53.0007 43.1517 52.8093C43.4979 52.7204 43.8399 52.7606 44.1777 52.9301C44.3006 52.9918 44.338 53.0867 44.2899 53.2148L44.2601 53.2956C44.2167 53.4112 44.15 53.4266 44.0601 53.3419C43.8524 53.1468 43.5897 53.0891 43.2717 53.1685C42.9297 53.254 42.972 53.6486 43.2889 53.738C43.8161 53.8863 44.4593 53.9922 44.3605 54.7186C44.2577 55.4709 43.2552 55.485 42.7187 55.2434C42.5926 55.1869 42.5542 55.0941 42.6033 54.9649C42.6148 54.9341 42.6251 54.9032 42.6339 54.8724Z" fill="#2A67E8"/>
<path d="M46.2102 53.3968C45.9663 53.1599 45.6156 53.0634 45.2963 53.1858C45.1876 53.2276 45.1269 53.3069 45.1143 53.4235C45.0524 53.9985 46.6691 53.618 46.4291 54.7759C46.2824 55.4803 45.3152 55.474 44.7943 55.2426C44.6829 55.1935 44.6439 55.11 44.6774 54.9924C44.6863 54.962 44.6975 54.9233 44.7111 54.8763C44.7436 54.7618 44.8061 54.7421 44.8986 54.8174C45.1256 55.0036 45.4054 55.0593 45.738 54.9845C45.8902 54.9508 46.0039 54.8065 46.0016 54.6488C45.9929 54.0495 44.8884 54.3687 44.697 53.6847C44.5629 53.2046 44.8774 52.8603 45.3465 52.7842C45.6486 52.7355 46.1569 52.7724 46.3663 53.0391C46.3834 53.0608 46.3913 53.0881 46.3883 53.1152C46.3763 53.2167 46.3433 53.3077 46.2894 53.3882C46.2852 53.3945 46.2797 53.3999 46.2732 53.4038C46.2667 53.4078 46.2594 53.4103 46.2519 53.4111C46.2443 53.4119 46.2366 53.4111 46.2294 53.4086C46.2222 53.4061 46.2157 53.4021 46.2102 53.3968Z" fill="#2A67E8"/>
<path d="M60 54.4621V54.7508C59.9105 55.0604 59.7076 55.2557 59.3912 55.3367C59.0236 55.4309 58.6675 55.3956 58.3228 55.2308C58.225 55.1843 58.1918 55.109 58.2232 55.0049C58.2493 54.9192 58.2637 54.8721 58.2664 54.8637C58.2977 54.7602 58.3553 54.7429 58.4389 54.812C58.6356 54.9751 58.8816 55.0405 59.1771 55.0081C59.6768 54.9532 59.6721 54.3609 59.1998 54.2636C58.6845 54.1577 58.1063 53.9977 58.2405 53.3097C58.2828 53.0953 58.4225 52.9434 58.6594 52.854C59.05 52.7065 59.436 52.7347 59.8172 52.9387C59.9328 53.0009 59.967 53.093 59.92 53.2148L59.8894 53.2948C59.8454 53.4078 59.7788 53.4235 59.6893 53.3419C59.4869 53.1578 59.2341 53.0964 58.9308 53.1576C58.5762 53.2289 58.5723 53.6361 58.9198 53.7365C59.3669 53.8659 59.8737 53.9302 60 54.4621Z" fill="#2A67E8"/>
<path d="M47.3987 54.8747C47.3979 55.0245 47.4536 55.1069 47.6112 55.1124C47.6458 55.114 47.6617 55.1317 47.6591 55.1657L47.6497 55.2795C47.6476 55.3051 47.634 55.32 47.6089 55.3242C47.1821 55.3909 46.9374 55.3273 46.9413 54.8316C46.946 54.1637 46.9458 53.5304 46.9405 52.9316C46.9395 52.7863 47.0062 52.7408 47.1406 52.7952C47.1709 52.8077 47.1916 52.8161 47.2025 52.8203C47.3317 52.8725 47.3966 52.9683 47.3971 53.1074C47.4002 53.6727 47.4007 54.2618 47.3987 54.8747Z" fill="#2A67E8"/>
<path d="M51.226 54.921C51.2267 55.0661 51.3099 55.0967 51.433 55.1108C51.4655 55.115 51.4812 55.1331 51.4801 55.165L51.477 55.2646C51.4759 55.2996 51.4582 55.32 51.4236 55.3258C51.1044 55.3791 50.7733 55.3619 50.771 54.9343C50.7673 54.2409 50.7655 53.5733 50.7655 52.9316C50.7655 52.7868 50.8324 52.7415 50.9663 52.7959C50.9893 52.8053 51.0108 52.8142 51.0306 52.8226C51.1561 52.8733 51.2192 52.9664 51.2197 53.1019C51.2213 53.7195 51.2233 54.3259 51.226 54.921Z" fill="#2A67E8"/>
<path d="M53.5824 55.0787C53.6196 55.1012 53.6601 55.1114 53.704 55.1093C53.7432 55.1072 53.7623 55.126 53.7613 55.1657L53.7589 55.2669C53.7579 55.2973 53.7425 55.3156 53.7126 55.3218C53.3251 55.3972 53.0506 55.3313 53.0498 54.8873C53.0482 54.2095 53.0469 53.5576 53.0459 52.9316C53.0459 52.7863 53.1131 52.741 53.2475 52.7959C53.2621 52.8017 53.2791 52.8085 53.2985 52.8163C53.435 52.8723 53.5032 52.974 53.5032 53.1215L53.5056 54.943C53.5056 54.9703 53.5127 54.9972 53.5261 55.0209C53.5396 55.0447 53.559 55.0646 53.5824 55.0787Z" fill="#2A67E8"/>
</svg>
