<svg width="1443" height="1011" viewBox="0 0 1443 1011" fill="none" xmlns="http://www.w3.org/2000/svg">
<path d="M69.1667 20.6845L34.8333 0.57959L0.5 20.6845V60.8944L34.8333 80.9994L69.1667 60.8944M69.1667 20.6845V60.8944M69.1667 20.6845L103.5 0.57959L137.833 20.6845M69.1667 60.8944L103.5 80.9994M137.833 20.6845V60.8944M137.833 20.6845L172.167 0.57959L206.5 20.6845M137.833 60.8944L103.5 80.9994M137.833 60.8944L172.167 80.9994M103.5 80.9994L137.833 101.104M103.5 80.9994L69.1667 101.104V141.314L103.5 161.419L137.833 141.314M206.5 20.6845V60.8944M206.5 20.6845L240.833 0.57959L275.167 20.6845M206.5 60.8944L172.167 80.9994M206.5 60.8944L240.833 80.9994M172.167 80.9994L206.5 101.104M172.167 80.9994L137.833 101.104M275.167 20.6845V60.8944M275.167 20.6845L309.5 0.57959L343.833 20.6845M275.167 60.8944L240.833 80.9994M275.167 60.8944L309.5 80.9994M240.833 80.9994L275.167 101.104M240.833 80.9994L206.5 101.104M343.833 20.6845V60.8944M343.833 20.6845L378.167 0.57959L412.5 20.6845M343.833 60.8944L309.5 80.9994M343.833 60.8944L378.167 80.9994M309.5 80.9994L343.833 101.104M309.5 80.9994L275.167 101.104M412.5 20.6845V60.8944M412.5 20.6845L446.833 0.57959L481.167 20.6845M412.5 60.8944L378.167 80.9994M412.5 60.8944L446.833 80.9994M378.167 80.9994L412.5 101.104M378.167 80.9994L343.833 101.104M481.167 20.6845V60.8944M481.167 20.6845L515.5 0.57959L549.833 20.6845M481.167 60.8944L446.833 80.9994M481.167 60.8944L515.5 80.9994M446.833 80.9994L481.167 101.104M446.833 80.9994L412.5 101.104M549.833 20.6845V60.8944M549.833 20.6845L584.167 0.57959L618.5 20.6845M549.833 60.8944L515.5 80.9994M549.833 60.8944L584.167 80.9994M515.5 80.9994L549.833 101.104M515.5 80.9994L481.167 101.104M618.5 20.6845V60.8944M618.5 20.6845L652.833 0.57959L687.167 20.6845M618.5 60.8944L584.167 80.9994M618.5 60.8944L652.833 80.9994M584.167 80.9994L618.5 101.104M584.167 80.9994L549.833 101.104M687.167 20.6845V60.8944M687.167 20.6845L721.5 0.57959L755.833 20.6845M687.167 60.8944L652.833 80.9994M687.167 60.8944L721.5 80.9994M652.833 80.9994L687.167 101.104M652.833 80.9994L618.5 101.104M755.833 20.6845V60.8944M755.833 20.6845L790.167 0.57959L824.5 20.6845M755.833 60.8944L721.5 80.9994M755.833 60.8944L790.167 80.9994M721.5 80.9994L755.833 101.104M721.5 80.9994L687.167 101.104M824.5 20.6845V60.8944M824.5 20.6845L858.833 0.57959L893.167 20.6845M824.5 60.8944L790.167 80.9994M824.5 60.8944L858.833 80.9994M790.167 80.9994L824.5 101.104M790.167 80.9994L755.833 101.104M893.167 20.6845V60.8944M893.167 20.6845L927.5 0.57959L961.833 20.6845M893.167 60.8944L858.833 80.9994M893.167 60.8944L927.5 80.9994M858.833 80.9994L893.167 101.104M858.833 80.9994L824.5 101.104M961.833 20.6845V60.8944M961.833 20.6845L996.167 0.57959L1030.5 20.6845M961.833 60.8944L927.5 80.9994M961.833 60.8944L996.167 80.9994M927.5 80.9994L961.833 101.104M927.5 80.9994L893.167 101.104M1030.5 20.6845V60.8944M1030.5 20.6845L1064.83 0.57959L1099.17 20.6845M1030.5 60.8944L996.167 80.9994M1030.5 60.8944L1064.83 80.9994M996.167 80.9994L1030.5 101.104M996.167 80.9994L961.833 101.104M1099.17 20.6845V60.8944M1099.17 20.6845L1133.5 0.57959L1167.83 20.6845M1099.17 60.8944L1064.83 80.9994M1099.17 60.8944L1133.5 80.9994M1064.83 80.9994L1099.17 101.104M1064.83 80.9994L1030.5 101.104M1167.83 20.6845V60.8944M1167.83 20.6845L1202.17 0.57959L1236.5 20.6845M1167.83 60.8944L1133.5 80.9994M1167.83 60.8944L1202.17 80.9994M1133.5 80.9994L1167.83 101.104M1133.5 80.9994L1099.17 101.104M1236.5 20.6845V60.8944M1236.5 20.6845L1270.83 0.57959L1305.17 20.6845M1236.5 60.8944L1202.17 80.9994M1236.5 60.8944L1270.83 80.9994M1202.17 80.9994L1236.5 101.104M1202.17 80.9994L1167.83 101.104M1305.17 20.6845V60.8944M1305.17 20.6845L1339.5 0.57959L1373.83 20.6845V60.8944L1339.5 80.9994M1305.17 60.8944L1270.83 80.9994M1305.17 60.8944L1339.5 80.9994M1270.83 80.9994L1305.17 101.104M1270.83 80.9994L1236.5 101.104M1339.5 80.9994L1373.83 101.104M1339.5 80.9994L1305.17 101.104M69.1667 263.016L34.8333 242.911L0.5 263.016V303.226L34.8333 323.331L69.1667 303.226M69.1667 263.016V303.226M69.1667 263.016L103.5 242.911L137.833 263.016M69.1667 303.226L103.5 323.331M137.833 263.016V303.226M137.833 263.016L172.167 242.911L206.5 263.016M137.833 303.226L103.5 323.331M137.833 303.226L172.167 323.331M103.5 323.331L137.833 343.436M103.5 323.331L69.1667 343.436V383.646L103.5 403.751L137.833 383.646M206.5 263.016V303.226M206.5 263.016L240.833 242.911L275.167 263.016M206.5 303.226L172.167 323.331M206.5 303.226L240.833 323.331M172.167 323.331L206.5 343.436M172.167 323.331L137.833 343.436M275.167 263.016V303.226M275.167 263.016L309.5 242.911L343.833 263.016M275.167 303.226L240.833 323.331M275.167 303.226L309.5 323.331M240.833 323.331L275.167 343.436M240.833 323.331L206.5 343.436M343.833 263.016V303.226M343.833 263.016L378.167 242.911L412.5 263.016M343.833 303.226L309.5 323.331M343.833 303.226L378.167 323.331M309.5 323.331L343.833 343.436M309.5 323.331L275.167 343.436M412.5 263.016V303.226M412.5 263.016L446.833 242.911L481.167 263.016M412.5 303.226L378.167 323.331M412.5 303.226L446.833 323.331M378.167 323.331L412.5 343.436M378.167 323.331L343.833 343.436M481.167 263.016V303.226M481.167 263.016L515.5 242.911L549.833 263.016M481.167 303.226L446.833 323.331M481.167 303.226L515.5 323.331M446.833 323.331L481.167 343.436M446.833 323.331L412.5 343.436M549.833 263.016V303.226M549.833 263.016L584.167 242.911L618.5 263.016M549.833 303.226L515.5 323.331M549.833 303.226L584.167 323.331M515.5 323.331L549.833 343.436M515.5 323.331L481.167 343.436M618.5 263.016V303.226M618.5 263.016L652.833 242.911L687.167 263.016M618.5 303.226L584.167 323.331M618.5 303.226L652.833 323.331M584.167 323.331L618.5 343.436M584.167 323.331L549.833 343.436M687.167 263.016V303.226M687.167 263.016L721.5 242.911L755.833 263.016M687.167 303.226L652.833 323.331M687.167 303.226L721.5 323.331M652.833 323.331L687.167 343.436M652.833 323.331L618.5 343.436M755.833 263.016V303.226M755.833 263.016L790.167 242.911L824.5 263.016M755.833 303.226L721.5 323.331M755.833 303.226L790.167 323.331M721.5 323.331L755.833 343.436M721.5 323.331L687.167 343.436M824.5 263.016V303.226M824.5 263.016L858.833 242.911L893.167 263.016M824.5 303.226L790.167 323.331M824.5 303.226L858.833 323.331M790.167 323.331L824.5 343.436M790.167 323.331L755.833 343.436M893.167 263.016V303.226M893.167 263.016L927.5 242.911L961.833 263.016M893.167 303.226L858.833 323.331M893.167 303.226L927.5 323.331M858.833 323.331L893.167 343.436M858.833 323.331L824.5 343.436M961.833 263.016V303.226M961.833 263.016L996.167 242.911L1030.5 263.016M961.833 303.226L927.5 323.331M961.833 303.226L996.167 323.331M927.5 323.331L961.833 343.436M927.5 323.331L893.167 343.436M1030.5 263.016V303.226M1030.5 263.016L1064.83 242.911L1099.17 263.016M1030.5 303.226L996.167 323.331M1030.5 303.226L1064.83 323.331M996.167 323.331L1030.5 343.436M996.167 323.331L961.833 343.436M1099.17 263.016V303.226M1099.17 263.016L1133.5 242.911L1167.83 263.016M1099.17 303.226L1064.83 323.331M1099.17 303.226L1133.5 323.331M1064.83 323.331L1099.17 343.436M1064.83 323.331L1030.5 343.436M1167.83 263.016V303.226M1167.83 263.016L1202.17 242.911L1236.5 263.016M1167.83 303.226L1133.5 323.331M1167.83 303.226L1202.17 323.331M1133.5 323.331L1167.83 343.436M1133.5 323.331L1099.17 343.436M1236.5 263.016V303.226M1236.5 263.016L1270.83 242.911L1305.17 263.016M1236.5 303.226L1202.17 323.331M1236.5 303.226L1270.83 323.331M1202.17 323.331L1236.5 343.436M1202.17 323.331L1167.83 343.436M1305.17 263.016V303.226M1305.17 263.016L1339.5 242.911L1373.83 263.016V303.226L1339.5 323.331M1305.17 303.226L1270.83 323.331M1305.17 303.226L1339.5 323.331M1270.83 323.331L1305.17 343.436M1270.83 323.331L1236.5 343.436M1339.5 323.331L1373.83 343.436M1339.5 323.331L1305.17 343.436M69.1667 505.348L34.8333 485.243L0.5 505.348V545.558L34.8333 565.663L69.1667 545.558M69.1667 505.348V545.558M69.1667 505.348L103.5 485.243L137.833 505.348M69.1667 545.558L103.5 565.663M137.833 505.348V545.558M137.833 505.348L172.167 485.243L206.5 505.348M137.833 545.558L103.5 565.663M137.833 545.558L172.167 565.663M103.5 565.663L137.833 585.767M103.5 565.663L69.1667 585.767V625.977L103.5 646.082L137.833 625.977M206.5 505.348V545.558M206.5 505.348L240.833 485.243L275.167 505.348M206.5 545.558L172.167 565.663M206.5 545.558L240.833 565.663M172.167 565.663L206.5 585.767M172.167 565.663L137.833 585.767M275.167 505.348V545.558M275.167 505.348L309.5 485.243L343.833 505.348M275.167 545.558L240.833 565.663M275.167 545.558L309.5 565.663M240.833 565.663L275.167 585.767M240.833 565.663L206.5 585.767M343.833 505.348V545.558M343.833 505.348L378.167 485.243L412.5 505.348M343.833 545.558L309.5 565.663M343.833 545.558L378.167 565.663M309.5 565.663L343.833 585.767M309.5 565.663L275.167 585.767M412.5 505.348V545.558M412.5 505.348L446.833 485.243L481.167 505.348M412.5 545.558L378.167 565.663M412.5 545.558L446.833 565.663M378.167 565.663L412.5 585.767M378.167 565.663L343.833 585.767M481.167 505.348V545.558M481.167 505.348L515.5 485.243L549.833 505.348M481.167 545.558L446.833 565.663M481.167 545.558L515.5 565.663M446.833 565.663L481.167 585.767M446.833 565.663L412.5 585.767M549.833 505.348V545.558M549.833 505.348L584.167 485.243L618.5 505.348M549.833 545.558L515.5 565.663M549.833 545.558L584.167 565.663M515.5 565.663L549.833 585.767M515.5 565.663L481.167 585.767M618.5 505.348V545.558M618.5 505.348L652.833 485.243L687.167 505.348M618.5 545.558L584.167 565.663M618.5 545.558L652.833 565.663M584.167 565.663L618.5 585.767M584.167 565.663L549.833 585.767M687.167 505.348V545.558M687.167 505.348L721.5 485.243L755.833 505.348M687.167 545.558L652.833 565.663M687.167 545.558L721.5 565.663M652.833 565.663L687.167 585.767M652.833 565.663L618.5 585.767M755.833 505.348V545.558M755.833 505.348L790.167 485.243L824.5 505.348M755.833 545.558L721.5 565.663M755.833 545.558L790.167 565.663M721.5 565.663L755.833 585.767M721.5 565.663L687.167 585.767M824.5 505.348V545.558M824.5 505.348L858.833 485.243L893.167 505.348M824.5 545.558L790.167 565.663M824.5 545.558L858.833 565.663M790.167 565.663L824.5 585.767M790.167 565.663L755.833 585.767M893.167 505.348V545.558M893.167 505.348L927.5 485.243L961.833 505.348M893.167 545.558L858.833 565.663M893.167 545.558L927.5 565.663M858.833 565.663L893.167 585.767M858.833 565.663L824.5 585.767M961.833 505.348V545.558M961.833 505.348L996.167 485.243L1030.5 505.348M961.833 545.558L927.5 565.663M961.833 545.558L996.167 565.663M927.5 565.663L961.833 585.767M927.5 565.663L893.167 585.767M1030.5 505.348V545.558M1030.5 505.348L1064.83 485.243L1099.17 505.348M1030.5 545.558L996.167 565.663M1030.5 545.558L1064.83 565.663M996.167 565.663L1030.5 585.767M996.167 565.663L961.833 585.767M1099.17 505.348V545.558M1099.17 505.348L1133.5 485.243L1167.83 505.348M1099.17 545.558L1064.83 565.663M1099.17 545.558L1133.5 565.663M1064.83 565.663L1099.17 585.767M1064.83 565.663L1030.5 585.767M1167.83 505.348V545.558M1167.83 505.348L1202.17 485.243L1236.5 505.348M1167.83 545.558L1133.5 565.663M1167.83 545.558L1202.17 565.663M1133.5 565.663L1167.83 585.767M1133.5 565.663L1099.17 585.767M1236.5 505.348V545.558M1236.5 505.348L1270.83 485.243L1305.17 505.348M1236.5 545.558L1202.17 565.663M1236.5 545.558L1270.83 565.663M1202.17 565.663L1236.5 585.767M1202.17 565.663L1167.83 585.767M1305.17 505.348V545.558M1305.17 505.348L1339.5 485.243L1373.83 505.348V545.558L1339.5 565.663M1305.17 545.558L1270.83 565.663M1305.17 545.558L1339.5 565.663M1270.83 565.663L1305.17 585.767M1270.83 565.663L1236.5 585.767M1339.5 565.663L1373.83 585.767M1339.5 565.663L1305.17 585.767M69.1667 747.679L34.8333 727.574L0.5 747.679V787.889L34.8333 807.994L69.1667 787.889M69.1667 747.679V787.889M69.1667 747.679L103.5 727.574L137.833 747.679M69.1667 787.889L103.5 807.994M137.833 747.679V787.889M137.833 747.679L172.167 727.574L206.5 747.679M137.833 787.889L103.5 807.994M137.833 787.889L172.167 807.994M103.5 807.994L137.833 828.099M103.5 807.994L69.1667 828.099V868.309L103.5 888.414L137.833 868.309M206.5 747.679V787.889M206.5 747.679L240.833 727.574L275.167 747.679M206.5 787.889L172.167 807.994M206.5 787.889L240.833 807.994M172.167 807.994L206.5 828.099M172.167 807.994L137.833 828.099M275.167 747.679V787.889M275.167 747.679L309.5 727.574L343.833 747.679M275.167 787.889L240.833 807.994M275.167 787.889L309.5 807.994M240.833 807.994L275.167 828.099M240.833 807.994L206.5 828.099M343.833 747.679V787.889M343.833 747.679L378.167 727.574L412.5 747.679M343.833 787.889L309.5 807.994M343.833 787.889L378.167 807.994M309.5 807.994L343.833 828.099M309.5 807.994L275.167 828.099M412.5 747.679V787.889M412.5 747.679L446.833 727.574L481.167 747.679M412.5 787.889L378.167 807.994M412.5 787.889L446.833 807.994M378.167 807.994L412.5 828.099M378.167 807.994L343.833 828.099M481.167 747.679V787.889M481.167 747.679L515.5 727.574L549.833 747.679M481.167 787.889L446.833 807.994M481.167 787.889L515.5 807.994M446.833 807.994L481.167 828.099M446.833 807.994L412.5 828.099M549.833 747.679V787.889M549.833 747.679L584.167 727.574L618.5 747.679M549.833 787.889L515.5 807.994M549.833 787.889L584.167 807.994M515.5 807.994L549.833 828.099M515.5 807.994L481.167 828.099M618.5 747.679V787.889M618.5 747.679L652.833 727.574L687.167 747.679M618.5 787.889L584.167 807.994M618.5 787.889L652.833 807.994M584.167 807.994L618.5 828.099M584.167 807.994L549.833 828.099M687.167 747.679V787.889M687.167 747.679L721.5 727.574L755.833 747.679M687.167 787.889L652.833 807.994M687.167 787.889L721.5 807.994M652.833 807.994L687.167 828.099M652.833 807.994L618.5 828.099M755.833 747.679V787.889M755.833 747.679L790.167 727.574L824.5 747.679M755.833 787.889L721.5 807.994M755.833 787.889L790.167 807.994M721.5 807.994L755.833 828.099M721.5 807.994L687.167 828.099M824.5 747.679V787.889M824.5 747.679L858.833 727.574L893.167 747.679M824.5 787.889L790.167 807.994M824.5 787.889L858.833 807.994M790.167 807.994L824.5 828.099M790.167 807.994L755.833 828.099M893.167 747.679V787.889M893.167 747.679L927.5 727.574L961.833 747.679M893.167 787.889L858.833 807.994M893.167 787.889L927.5 807.994M858.833 807.994L893.167 828.099M858.833 807.994L824.5 828.099M961.833 747.679V787.889M961.833 747.679L996.167 727.574L1030.5 747.679M961.833 787.889L927.5 807.994M961.833 787.889L996.167 807.994M927.5 807.994L961.833 828.099M927.5 807.994L893.167 828.099M1030.5 747.679V787.889M1030.5 747.679L1064.83 727.574L1099.17 747.679M1030.5 787.889L996.167 807.994M1030.5 787.889L1064.83 807.994M996.167 807.994L1030.5 828.099M996.167 807.994L961.833 828.099M1099.17 747.679V787.889M1099.17 747.679L1133.5 727.574L1167.83 747.679M1099.17 787.889L1064.83 807.994M1099.17 787.889L1133.5 807.994M1064.83 807.994L1099.17 828.099M1064.83 807.994L1030.5 828.099M1167.83 747.679V787.889M1167.83 747.679L1202.17 727.574L1236.5 747.679M1167.83 787.889L1133.5 807.994M1167.83 787.889L1202.17 807.994M1133.5 807.994L1167.83 828.099M1133.5 807.994L1099.17 828.099M1236.5 747.679V787.889M1236.5 747.679L1270.83 727.574L1305.17 747.679M1236.5 787.889L1202.17 807.994M1236.5 787.889L1270.83 807.994M1202.17 807.994L1236.5 828.099M1202.17 807.994L1167.83 828.099M1305.17 747.679V787.889M1305.17 747.679L1339.5 727.574L1373.83 747.679V787.889L1339.5 807.994M1305.17 787.889L1270.83 807.994M1305.17 787.889L1339.5 807.994M1270.83 807.994L1305.17 828.099M1270.83 807.994L1236.5 828.099M1339.5 807.994L1373.83 828.099M1339.5 807.994L1305.17 828.099M69.1667 141.85L34.8333 121.745L0.5 141.85V182.06L34.8333 202.165L69.1667 182.06M69.1667 141.85V182.06M69.1667 141.85L103.5 121.745L137.833 141.85M69.1667 182.06L103.5 202.165M137.833 141.85V182.06M137.833 141.85L172.167 121.745L206.5 141.85M137.833 182.06L103.5 202.165M137.833 182.06L172.167 202.165M103.5 202.165L137.833 222.27M103.5 202.165L69.1667 222.27V262.48L103.5 282.585L137.833 262.48M206.5 141.85V182.06M206.5 141.85L240.833 121.745L275.167 141.85M206.5 182.06L172.167 202.165M206.5 182.06L240.833 202.165M172.167 202.165L206.5 222.27M172.167 202.165L137.833 222.27M275.167 141.85V182.06M275.167 141.85L309.5 121.745L343.833 141.85M275.167 182.06L240.833 202.165M275.167 182.06L309.5 202.165M240.833 202.165L275.167 222.27M240.833 202.165L206.5 222.27M343.833 141.85V182.06M343.833 141.85L378.167 121.745L412.5 141.85M343.833 182.06L309.5 202.165M343.833 182.06L378.167 202.165M309.5 202.165L343.833 222.27M309.5 202.165L275.167 222.27M412.5 141.85V182.06M412.5 141.85L446.833 121.745L481.167 141.85M412.5 182.06L378.167 202.165M412.5 182.06L446.833 202.165M378.167 202.165L412.5 222.27M378.167 202.165L343.833 222.27M481.167 141.85V182.06M481.167 141.85L515.5 121.745L549.833 141.85M481.167 182.06L446.833 202.165M481.167 182.06L515.5 202.165M446.833 202.165L481.167 222.27M446.833 202.165L412.5 222.27M549.833 141.85V182.06M549.833 141.85L584.167 121.745L618.5 141.85M549.833 182.06L515.5 202.165M549.833 182.06L584.167 202.165M515.5 202.165L549.833 222.27M515.5 202.165L481.167 222.27M618.5 141.85V182.06M618.5 141.85L652.833 121.745L687.167 141.85M618.5 182.06L584.167 202.165M618.5 182.06L652.833 202.165M584.167 202.165L618.5 222.27M584.167 202.165L549.833 222.27M687.167 141.85V182.06M687.167 141.85L721.5 121.745L755.833 141.85M687.167 182.06L652.833 202.165M687.167 182.06L721.5 202.165M652.833 202.165L687.167 222.27M652.833 202.165L618.5 222.27M755.833 141.85V182.06M755.833 141.85L790.167 121.745L824.5 141.85M755.833 182.06L721.5 202.165M755.833 182.06L790.167 202.165M721.5 202.165L755.833 222.27M721.5 202.165L687.167 222.27M824.5 141.85V182.06M824.5 141.85L858.833 121.745L893.167 141.85M824.5 182.06L790.167 202.165M824.5 182.06L858.833 202.165M790.167 202.165L824.5 222.27M790.167 202.165L755.833 222.27M893.167 141.85V182.06M893.167 141.85L927.5 121.745L961.833 141.85M893.167 182.06L858.833 202.165M893.167 182.06L927.5 202.165M858.833 202.165L893.167 222.27M858.833 202.165L824.5 222.27M961.833 141.85V182.06M961.833 141.85L996.167 121.745L1030.5 141.85M961.833 182.06L927.5 202.165M961.833 182.06L996.167 202.165M927.5 202.165L961.833 222.27M927.5 202.165L893.167 222.27M1030.5 141.85V182.06M1030.5 141.85L1064.83 121.745L1099.17 141.85M1030.5 182.06L996.167 202.165M1030.5 182.06L1064.83 202.165M996.167 202.165L1030.5 222.27M996.167 202.165L961.833 222.27M1099.17 141.85V182.06M1099.17 141.85L1133.5 121.745L1167.83 141.85M1099.17 182.06L1064.83 202.165M1099.17 182.06L1133.5 202.165M1064.83 202.165L1099.17 222.27M1064.83 202.165L1030.5 222.27M1167.83 141.85V182.06M1167.83 141.85L1202.17 121.745L1236.5 141.85M1167.83 182.06L1133.5 202.165M1167.83 182.06L1202.17 202.165M1133.5 202.165L1167.83 222.27M1133.5 202.165L1099.17 222.27M1236.5 141.85V182.06M1236.5 141.85L1270.83 121.745L1305.17 141.85M1236.5 182.06L1202.17 202.165M1236.5 182.06L1270.83 202.165M1202.17 202.165L1236.5 222.27M1202.17 202.165L1167.83 222.27M1305.17 141.85V182.06M1305.17 141.85L1339.5 121.745L1373.83 141.85V182.06L1339.5 202.165M1305.17 182.06L1270.83 202.165M1305.17 182.06L1339.5 202.165M1270.83 202.165L1305.17 222.27M1270.83 202.165L1236.5 222.27M1339.5 202.165L1373.83 222.27M1339.5 202.165L1305.17 222.27M69.1667 384.182L34.8333 364.077L0.5 384.182V424.392L34.8333 444.497L69.1667 424.392M69.1667 384.182V424.392M69.1667 384.182L103.5 364.077L137.833 384.182M69.1667 424.392L103.5 444.497M137.833 384.182V424.392M137.833 384.182L172.167 364.077L206.5 384.182M137.833 424.392L103.5 444.497M137.833 424.392L172.167 444.497M103.5 444.497L137.833 464.602M103.5 444.497L69.1667 464.602V504.812L103.5 524.916L137.833 504.812M206.5 384.182V424.392M206.5 384.182L240.833 364.077L275.167 384.182M206.5 424.392L172.167 444.497M206.5 424.392L240.833 444.497M172.167 444.497L206.5 464.602M172.167 444.497L137.833 464.602M275.167 384.182V424.392M275.167 384.182L309.5 364.077L343.833 384.182M275.167 424.392L240.833 444.497M275.167 424.392L309.5 444.497M240.833 444.497L275.167 464.602M240.833 444.497L206.5 464.602M343.833 384.182V424.392M343.833 384.182L378.167 364.077L412.5 384.182M343.833 424.392L309.5 444.497M343.833 424.392L378.167 444.497M309.5 444.497L343.833 464.602M309.5 444.497L275.167 464.602M412.5 384.182V424.392M412.5 384.182L446.833 364.077L481.167 384.182M412.5 424.392L378.167 444.497M412.5 424.392L446.833 444.497M378.167 444.497L412.5 464.602M378.167 444.497L343.833 464.602M481.167 384.182V424.392M481.167 384.182L515.5 364.077L549.833 384.182M481.167 424.392L446.833 444.497M481.167 424.392L515.5 444.497M446.833 444.497L481.167 464.602M446.833 444.497L412.5 464.602M549.833 384.182V424.392M549.833 384.182L584.167 364.077L618.5 384.182M549.833 424.392L515.5 444.497M549.833 424.392L584.167 444.497M515.5 444.497L549.833 464.602M515.5 444.497L481.167 464.602M618.5 384.182V424.392M618.5 384.182L652.833 364.077L687.167 384.182M618.5 424.392L584.167 444.497M618.5 424.392L652.833 444.497M584.167 444.497L618.5 464.602M584.167 444.497L549.833 464.602M687.167 384.182V424.392M687.167 384.182L721.5 364.077L755.833 384.182M687.167 424.392L652.833 444.497M687.167 424.392L721.5 444.497M652.833 444.497L687.167 464.602M652.833 444.497L618.5 464.602M755.833 384.182V424.392M755.833 384.182L790.167 364.077L824.5 384.182M755.833 424.392L721.5 444.497M755.833 424.392L790.167 444.497M721.5 444.497L755.833 464.602M721.5 444.497L687.167 464.602M824.5 384.182V424.392M824.5 384.182L858.833 364.077L893.167 384.182M824.5 424.392L790.167 444.497M824.5 424.392L858.833 444.497M790.167 444.497L824.5 464.602M790.167 444.497L755.833 464.602M893.167 384.182V424.392M893.167 384.182L927.5 364.077L961.833 384.182M893.167 424.392L858.833 444.497M893.167 424.392L927.5 444.497M858.833 444.497L893.167 464.602M858.833 444.497L824.5 464.602M961.833 384.182V424.392M961.833 384.182L996.167 364.077L1030.5 384.182M961.833 424.392L927.5 444.497M961.833 424.392L996.167 444.497M927.5 444.497L961.833 464.602M927.5 444.497L893.167 464.602M1030.5 384.182V424.392M1030.5 384.182L1064.83 364.077L1099.17 384.182M1030.5 424.392L996.167 444.497M1030.5 424.392L1064.83 444.497M996.167 444.497L1030.5 464.602M996.167 444.497L961.833 464.602M1099.17 384.182V424.392M1099.17 384.182L1133.5 364.077L1167.83 384.182M1099.17 424.392L1064.83 444.497M1099.17 424.392L1133.5 444.497M1064.83 444.497L1099.17 464.602M1064.83 444.497L1030.5 464.602M1167.83 384.182V424.392M1167.83 384.182L1202.17 364.077L1236.5 384.182M1167.83 424.392L1133.5 444.497M1167.83 424.392L1202.17 444.497M1133.5 444.497L1167.83 464.602M1133.5 444.497L1099.17 464.602M1236.5 384.182V424.392M1236.5 384.182L1270.83 364.077L1305.17 384.182M1236.5 424.392L1202.17 444.497M1236.5 424.392L1270.83 444.497M1202.17 444.497L1236.5 464.602M1202.17 444.497L1167.83 464.602M1305.17 384.182V424.392M1305.17 384.182L1339.5 364.077L1373.83 384.182V424.392L1339.5 444.497M1305.17 424.392L1270.83 444.497M1305.17 424.392L1339.5 444.497M1270.83 444.497L1305.17 464.602M1270.83 444.497L1236.5 464.602M1339.5 444.497L1373.83 464.602M1339.5 444.497L1305.17 464.602M69.1667 626.513L34.8333 606.409L0.5 626.513V666.723L34.8333 686.828L69.1667 666.723M69.1667 626.513V666.723M69.1667 626.513L103.5 606.409L137.833 626.513M69.1667 666.723L103.5 686.828M137.833 626.513V666.723M137.833 626.513L172.167 606.409L206.5 626.513M137.833 666.723L103.5 686.828M137.833 666.723L172.167 686.828M103.5 686.828L137.833 706.933M103.5 686.828L69.1667 706.933V747.143L103.5 767.248L137.833 747.143M206.5 626.513V666.723M206.5 626.513L240.833 606.409L275.167 626.513M206.5 666.723L172.167 686.828M206.5 666.723L240.833 686.828M172.167 686.828L206.5 706.933M172.167 686.828L137.833 706.933M275.167 626.513V666.723M275.167 626.513L309.5 606.409L343.833 626.513M275.167 666.723L240.833 686.828M275.167 666.723L309.5 686.828M240.833 686.828L275.167 706.933M240.833 686.828L206.5 706.933M343.833 626.513V666.723M343.833 626.513L378.167 606.409L412.5 626.513M343.833 666.723L309.5 686.828M343.833 666.723L378.167 686.828M309.5 686.828L343.833 706.933M309.5 686.828L275.167 706.933M412.5 626.513V666.723M412.5 626.513L446.833 606.409L481.167 626.513M412.5 666.723L378.167 686.828M412.5 666.723L446.833 686.828M378.167 686.828L412.5 706.933M378.167 686.828L343.833 706.933M481.167 626.513V666.723M481.167 626.513L515.5 606.409L549.833 626.513M481.167 666.723L446.833 686.828M481.167 666.723L515.5 686.828M446.833 686.828L481.167 706.933M446.833 686.828L412.5 706.933M549.833 626.513V666.723M549.833 626.513L584.167 606.409L618.5 626.513M549.833 666.723L515.5 686.828M549.833 666.723L584.167 686.828M515.5 686.828L549.833 706.933M515.5 686.828L481.167 706.933M618.5 626.513V666.723M618.5 626.513L652.833 606.409L687.167 626.513M618.5 666.723L584.167 686.828M618.5 666.723L652.833 686.828M584.167 686.828L618.5 706.933M584.167 686.828L549.833 706.933M687.167 626.513V666.723M687.167 626.513L721.5 606.409L755.833 626.513M687.167 666.723L652.833 686.828M687.167 666.723L721.5 686.828M652.833 686.828L687.167 706.933M652.833 686.828L618.5 706.933M755.833 626.513V666.723M755.833 626.513L790.167 606.409L824.5 626.513M755.833 666.723L721.5 686.828M755.833 666.723L790.167 686.828M721.5 686.828L755.833 706.933M721.5 686.828L687.167 706.933M824.5 626.513V666.723M824.5 626.513L858.833 606.409L893.167 626.513M824.5 666.723L790.167 686.828M824.5 666.723L858.833 686.828M790.167 686.828L824.5 706.933M790.167 686.828L755.833 706.933M893.167 626.513V666.723M893.167 626.513L927.5 606.409L961.833 626.513M893.167 666.723L858.833 686.828M893.167 666.723L927.5 686.828M858.833 686.828L893.167 706.933M858.833 686.828L824.5 706.933M961.833 626.513V666.723M961.833 626.513L996.167 606.409L1030.5 626.513M961.833 666.723L927.5 686.828M961.833 666.723L996.167 686.828M927.5 686.828L961.833 706.933M927.5 686.828L893.167 706.933M1030.5 626.513V666.723M1030.5 626.513L1064.83 606.409L1099.17 626.513M1030.5 666.723L996.167 686.828M1030.5 666.723L1064.83 686.828M996.167 686.828L1030.5 706.933M996.167 686.828L961.833 706.933M1099.17 626.513V666.723M1099.17 626.513L1133.5 606.409L1167.83 626.513M1099.17 666.723L1064.83 686.828M1099.17 666.723L1133.5 686.828M1064.83 686.828L1099.17 706.933M1064.83 686.828L1030.5 706.933M1167.83 626.513V666.723M1167.83 626.513L1202.17 606.409L1236.5 626.513M1167.83 666.723L1133.5 686.828M1167.83 666.723L1202.17 686.828M1133.5 686.828L1167.83 706.933M1133.5 686.828L1099.17 706.933M1236.5 626.513V666.723M1236.5 626.513L1270.83 606.409L1305.17 626.513M1236.5 666.723L1202.17 686.828M1236.5 666.723L1270.83 686.828M1202.17 686.828L1236.5 706.933M1202.17 686.828L1167.83 706.933M1305.17 626.513V666.723M1305.17 626.513L1339.5 606.409L1373.83 626.513V666.723L1339.5 686.828M1305.17 666.723L1270.83 686.828M1305.17 666.723L1339.5 686.828M1270.83 686.828L1305.17 706.933M1270.83 686.828L1236.5 706.933M1339.5 686.828L1373.83 706.933M1339.5 686.828L1305.17 706.933M69.1667 868.845L34.8333 848.74L0.5 868.845V909.055L34.8333 929.16L69.1667 909.055M69.1667 868.845V909.055M69.1667 868.845L103.5 848.74L137.833 868.845M69.1667 909.055L103.5 929.16M137.833 868.845V909.055M137.833 868.845L172.167 848.74L206.5 868.845M137.833 909.055L103.5 929.16M137.833 909.055L172.167 929.16M103.5 929.16L137.833 949.265M103.5 929.16L69.1667 949.265V989.475L103.5 1009.58L137.833 989.475M206.5 868.845V909.055M206.5 868.845L240.833 848.74L275.167 868.845M206.5 909.055L172.167 929.16M206.5 909.055L240.833 929.16M172.167 929.16L206.5 949.265M172.167 929.16L137.833 949.265M275.167 868.845V909.055M275.167 868.845L309.5 848.74L343.833 868.845M275.167 909.055L240.833 929.16M275.167 909.055L309.5 929.16M240.833 929.16L275.167 949.265M240.833 929.16L206.5 949.265M343.833 868.845V909.055M343.833 868.845L378.167 848.74L412.5 868.845M343.833 909.055L309.5 929.16M343.833 909.055L378.167 929.16M309.5 929.16L343.833 949.265M309.5 929.16L275.167 949.265M412.5 868.845V909.055M412.5 868.845L446.833 848.74L481.167 868.845M412.5 909.055L378.167 929.16M412.5 909.055L446.833 929.16M378.167 929.16L412.5 949.265M378.167 929.16L343.833 949.265M481.167 868.845V909.055M481.167 868.845L515.5 848.74L549.833 868.845M481.167 909.055L446.833 929.16M481.167 909.055L515.5 929.16M446.833 929.16L481.167 949.265M446.833 929.16L412.5 949.265M549.833 868.845V909.055M549.833 868.845L584.167 848.74L618.5 868.845M549.833 909.055L515.5 929.16M549.833 909.055L584.167 929.16M515.5 929.16L549.833 949.265M515.5 929.16L481.167 949.265M618.5 868.845V909.055M618.5 868.845L652.833 848.74L687.167 868.845M618.5 909.055L584.167 929.16M618.5 909.055L652.833 929.16M584.167 929.16L618.5 949.265M584.167 929.16L549.833 949.265M687.167 868.845V909.055M687.167 868.845L721.5 848.74L755.833 868.845M687.167 909.055L652.833 929.16M687.167 909.055L721.5 929.16M652.833 929.16L687.167 949.265M652.833 929.16L618.5 949.265M755.833 868.845V909.055M755.833 868.845L790.167 848.74L824.5 868.845M755.833 909.055L721.5 929.16M755.833 909.055L790.167 929.16M721.5 929.16L755.833 949.265M721.5 929.16L687.167 949.265M824.5 868.845V909.055M824.5 868.845L858.833 848.74L893.167 868.845M824.5 909.055L790.167 929.16M824.5 909.055L858.833 929.16M790.167 929.16L824.5 949.265M790.167 929.16L755.833 949.265M893.167 868.845V909.055M893.167 868.845L927.5 848.74L961.833 868.845M893.167 909.055L858.833 929.16M893.167 909.055L927.5 929.16M858.833 929.16L893.167 949.265M858.833 929.16L824.5 949.265M961.833 868.845V909.055M961.833 868.845L996.167 848.74L1030.5 868.845M961.833 909.055L927.5 929.16M961.833 909.055L996.167 929.16M927.5 929.16L961.833 949.265M927.5 929.16L893.167 949.265M1030.5 868.845V909.055M1030.5 868.845L1064.83 848.74L1099.17 868.845M1030.5 909.055L996.167 929.16M1030.5 909.055L1064.83 929.16M996.167 929.16L1030.5 949.265M996.167 929.16L961.833 949.265M1099.17 868.845V909.055M1099.17 868.845L1133.5 848.74L1167.83 868.845M1099.17 909.055L1064.83 929.16M1099.17 909.055L1133.5 929.16M1064.83 929.16L1099.17 949.265M1064.83 929.16L1030.5 949.265M1167.83 868.845V909.055M1167.83 868.845L1202.17 848.74L1236.5 868.845M1167.83 909.055L1133.5 929.16M1167.83 909.055L1202.17 929.16M1133.5 929.16L1167.83 949.265M1133.5 929.16L1099.17 949.265M1236.5 868.845V909.055M1236.5 868.845L1270.83 848.74L1305.17 868.845M1236.5 909.055L1202.17 929.16M1236.5 909.055L1270.83 929.16M1202.17 929.16L1236.5 949.265M1202.17 929.16L1167.83 949.265M1305.17 868.845V909.055M1305.17 868.845L1339.5 848.74L1373.83 868.845V909.055L1339.5 929.16M1305.17 909.055L1270.83 929.16M1305.17 909.055L1339.5 929.16M1270.83 929.16L1305.17 949.265M1270.83 929.16L1236.5 949.265M1339.5 929.16L1373.83 949.265M1339.5 929.16L1305.17 949.265M103.5 81.2674L69.1667 61.1625L34.8333 81.2674V121.477L69.1667 141.582M103.5 81.2674V121.477M103.5 81.2674L137.833 61.1625L172.167 81.2674M103.5 121.477L69.1667 141.582M103.5 121.477L137.833 141.582M69.1667 141.582L103.5 161.687M69.1667 141.582L34.8333 161.687V201.897L69.1667 222.002L103.5 201.897M172.167 81.2674V121.477M172.167 81.2674L206.5 61.1625L240.833 81.2674M172.167 121.477L137.833 141.582M172.167 121.477L206.5 141.582M137.833 141.582L172.167 161.687M137.833 141.582L103.5 161.687M240.833 81.2674V121.477M240.833 81.2674L275.167 61.1625L309.5 81.2674M240.833 121.477L206.5 141.582M240.833 121.477L275.167 141.582M206.5 141.582L240.833 161.687M206.5 141.582L172.167 161.687M309.5 81.2674V121.477M309.5 81.2674L343.833 61.1625L378.167 81.2674M309.5 121.477L275.167 141.582M309.5 121.477L343.833 141.582M275.167 141.582L309.5 161.687M275.167 141.582L240.833 161.687M378.167 81.2674V121.477M378.167 81.2674L412.5 61.1625L446.833 81.2674M378.167 121.477L343.833 141.582M378.167 121.477L412.5 141.582M343.833 141.582L378.167 161.687M343.833 141.582L309.5 161.687M446.833 81.2674V121.477M446.833 81.2674L481.167 61.1625L515.5 81.2674M446.833 121.477L412.5 141.582M446.833 121.477L481.167 141.582M412.5 141.582L446.833 161.687M412.5 141.582L378.167 161.687M515.5 81.2674V121.477M515.5 81.2674L549.833 61.1625L584.167 81.2674M515.5 121.477L481.167 141.582M515.5 121.477L549.833 141.582M481.167 141.582L515.5 161.687M481.167 141.582L446.833 161.687M584.167 81.2674V121.477M584.167 81.2674L618.5 61.1625L652.833 81.2674M584.167 121.477L549.833 141.582M584.167 121.477L618.5 141.582M549.833 141.582L584.167 161.687M549.833 141.582L515.5 161.687M652.833 81.2674V121.477M652.833 81.2674L687.167 61.1625L721.5 81.2674M652.833 121.477L618.5 141.582M652.833 121.477L687.167 141.582M618.5 141.582L652.833 161.687M618.5 141.582L584.167 161.687M721.5 81.2674V121.477M721.5 81.2674L755.833 61.1625L790.167 81.2674M721.5 121.477L687.167 141.582M721.5 121.477L755.833 141.582M687.167 141.582L721.5 161.687M687.167 141.582L652.833 161.687M790.167 81.2674V121.477M790.167 81.2674L824.5 61.1625L858.833 81.2674M790.167 121.477L755.833 141.582M790.167 121.477L824.5 141.582M755.833 141.582L790.167 161.687M755.833 141.582L721.5 161.687M858.833 81.2674V121.477M858.833 81.2674L893.167 61.1625L927.5 81.2674M858.833 121.477L824.5 141.582M858.833 121.477L893.167 141.582M824.5 141.582L858.833 161.687M824.5 141.582L790.167 161.687M927.5 81.2674V121.477M927.5 81.2674L961.833 61.1625L996.167 81.2674M927.5 121.477L893.167 141.582M927.5 121.477L961.833 141.582M893.167 141.582L927.5 161.687M893.167 141.582L858.833 161.687M996.167 81.2674V121.477M996.167 81.2674L1030.5 61.1625L1064.83 81.2674M996.167 121.477L961.833 141.582M996.167 121.477L1030.5 141.582M961.833 141.582L996.167 161.687M961.833 141.582L927.5 161.687M1064.83 81.2674V121.477M1064.83 81.2674L1099.17 61.1625L1133.5 81.2674M1064.83 121.477L1030.5 141.582M1064.83 121.477L1099.17 141.582M1030.5 141.582L1064.83 161.687M1030.5 141.582L996.167 161.687M1133.5 81.2674V121.477M1133.5 81.2674L1167.83 61.1625L1202.17 81.2674M1133.5 121.477L1099.17 141.582M1133.5 121.477L1167.83 141.582M1099.17 141.582L1133.5 161.687M1099.17 141.582L1064.83 161.687M1202.17 81.2674V121.477M1202.17 81.2674L1236.5 61.1625L1270.83 81.2674M1202.17 121.477L1167.83 141.582M1202.17 121.477L1236.5 141.582M1167.83 141.582L1202.17 161.687M1167.83 141.582L1133.5 161.687M1270.83 81.2674V121.477M1270.83 81.2674L1305.17 61.1625L1339.5 81.2674M1270.83 121.477L1236.5 141.582M1270.83 121.477L1305.17 141.582M1236.5 141.582L1270.83 161.687M1236.5 141.582L1202.17 161.687M1339.5 81.2674V121.477M1339.5 81.2674L1373.83 61.1625L1408.17 81.2674V121.477L1373.83 141.582M1339.5 121.477L1305.17 141.582M1339.5 121.477L1373.83 141.582M1305.17 141.582L1339.5 161.687M1305.17 141.582L1270.83 161.687M1373.83 141.582L1408.17 161.687V201.897L1373.83 222.002L1339.5 201.897M1373.83 141.582L1339.5 161.687M103.5 323.599L69.1667 303.494L34.8333 323.599V363.809L69.1667 383.914M103.5 323.599V363.809M103.5 323.599L137.833 303.494L172.167 323.599M103.5 363.809L69.1667 383.914M103.5 363.809L137.833 383.914M69.1667 383.914L103.5 404.019M69.1667 383.914L34.8333 404.019V444.229L69.1667 464.334L103.5 444.229M172.167 323.599V363.809M172.167 323.599L206.5 303.494L240.833 323.599M172.167 363.809L137.833 383.914M172.167 363.809L206.5 383.914M137.833 383.914L172.167 404.019M137.833 383.914L103.5 404.019M240.833 323.599V363.809M240.833 323.599L275.167 303.494L309.5 323.599M240.833 363.809L206.5 383.914M240.833 363.809L275.167 383.914M206.5 383.914L240.833 404.019M206.5 383.914L172.167 404.019M309.5 323.599V363.809M309.5 323.599L343.833 303.494L378.167 323.599M309.5 363.809L275.167 383.914M309.5 363.809L343.833 383.914M275.167 383.914L309.5 404.019M275.167 383.914L240.833 404.019M378.167 323.599V363.809M378.167 323.599L412.5 303.494L446.833 323.599M378.167 363.809L343.833 383.914M378.167 363.809L412.5 383.914M343.833 383.914L378.167 404.019M343.833 383.914L309.5 404.019M446.833 323.599V363.809M446.833 323.599L481.167 303.494L515.5 323.599M446.833 363.809L412.5 383.914M446.833 363.809L481.167 383.914M412.5 383.914L446.833 404.019M412.5 383.914L378.167 404.019M515.5 323.599V363.809M515.5 323.599L549.833 303.494L584.167 323.599M515.5 363.809L481.167 383.914M515.5 363.809L549.833 383.914M481.167 383.914L515.5 404.019M481.167 383.914L446.833 404.019M584.167 323.599V363.809M584.167 323.599L618.5 303.494L652.833 323.599M584.167 363.809L549.833 383.914M584.167 363.809L618.5 383.914M549.833 383.914L584.167 404.019M549.833 383.914L515.5 404.019M652.833 323.599V363.809M652.833 323.599L687.167 303.494L721.5 323.599M652.833 363.809L618.5 383.914M652.833 363.809L687.167 383.914M618.5 383.914L652.833 404.019M618.5 383.914L584.167 404.019M721.5 323.599V363.809M721.5 323.599L755.833 303.494L790.167 323.599M721.5 363.809L687.167 383.914M721.5 363.809L755.833 383.914M687.167 383.914L721.5 404.019M687.167 383.914L652.833 404.019M790.167 323.599V363.809M790.167 323.599L824.5 303.494L858.833 323.599M790.167 363.809L755.833 383.914M790.167 363.809L824.5 383.914M755.833 383.914L790.167 404.019M755.833 383.914L721.5 404.019M858.833 323.599V363.809M858.833 323.599L893.167 303.494L927.5 323.599M858.833 363.809L824.5 383.914M858.833 363.809L893.167 383.914M824.5 383.914L858.833 404.019M824.5 383.914L790.167 404.019M927.5 323.599V363.809M927.5 323.599L961.833 303.494L996.167 323.599M927.5 363.809L893.167 383.914M927.5 363.809L961.833 383.914M893.167 383.914L927.5 404.019M893.167 383.914L858.833 404.019M996.167 323.599V363.809M996.167 323.599L1030.5 303.494L1064.83 323.599M996.167 363.809L961.833 383.914M996.167 363.809L1030.5 383.914M961.833 383.914L996.167 404.019M961.833 383.914L927.5 404.019M1064.83 323.599V363.809M1064.83 323.599L1099.17 303.494L1133.5 323.599M1064.83 363.809L1030.5 383.914M1064.83 363.809L1099.17 383.914M1030.5 383.914L1064.83 404.019M1030.5 383.914L996.167 404.019M1133.5 323.599V363.809M1133.5 323.599L1167.83 303.494L1202.17 323.599M1133.5 363.809L1099.17 383.914M1133.5 363.809L1167.83 383.914M1099.17 383.914L1133.5 404.019M1099.17 383.914L1064.83 404.019M1202.17 323.599V363.809M1202.17 323.599L1236.5 303.494L1270.83 323.599M1202.17 363.809L1167.83 383.914M1202.17 363.809L1236.5 383.914M1167.83 383.914L1202.17 404.019M1167.83 383.914L1133.5 404.019M1270.83 323.599V363.809M1270.83 323.599L1305.17 303.494L1339.5 323.599M1270.83 363.809L1236.5 383.914M1270.83 363.809L1305.17 383.914M1236.5 383.914L1270.83 404.019M1236.5 383.914L1202.17 404.019M1339.5 323.599V363.809M1339.5 323.599L1373.83 303.494L1408.17 323.599V363.809L1373.83 383.914M1339.5 363.809L1305.17 383.914M1339.5 363.809L1373.83 383.914M1305.17 383.914L1339.5 404.019M1305.17 383.914L1270.83 404.019M1373.83 383.914L1408.17 404.019V444.229L1373.83 464.334L1339.5 444.229M1373.83 383.914L1339.5 404.019M103.5 565.931L69.1667 545.826L34.8333 565.931V606.14L69.1667 626.245M103.5 565.931V606.14M103.5 565.931L137.833 545.826L172.167 565.931M103.5 606.14L69.1667 626.245M103.5 606.14L137.833 626.245M69.1667 626.245L103.5 646.35M69.1667 626.245L34.8333 646.35V686.56L69.1667 706.665L103.5 686.56M172.167 565.931V606.14M172.167 565.931L206.5 545.826L240.833 565.931M172.167 606.14L137.833 626.245M172.167 606.14L206.5 626.245M137.833 626.245L172.167 646.35M137.833 626.245L103.5 646.35M240.833 565.931V606.14M240.833 565.931L275.167 545.826L309.5 565.931M240.833 606.14L206.5 626.245M240.833 606.14L275.167 626.245M206.5 626.245L240.833 646.35M206.5 626.245L172.167 646.35M309.5 565.931V606.14M309.5 565.931L343.833 545.826L378.167 565.931M309.5 606.14L275.167 626.245M309.5 606.14L343.833 626.245M275.167 626.245L309.5 646.35M275.167 626.245L240.833 646.35M378.167 565.931V606.14M378.167 565.931L412.5 545.826L446.833 565.931M378.167 606.14L343.833 626.245M378.167 606.14L412.5 626.245M343.833 626.245L378.167 646.35M343.833 626.245L309.5 646.35M446.833 565.931V606.14M446.833 565.931L481.167 545.826L515.5 565.931M446.833 606.14L412.5 626.245M446.833 606.14L481.167 626.245M412.5 626.245L446.833 646.35M412.5 626.245L378.167 646.35M515.5 565.931V606.14M515.5 565.931L549.833 545.826L584.167 565.931M515.5 606.14L481.167 626.245M515.5 606.14L549.833 626.245M481.167 626.245L515.5 646.35M481.167 626.245L446.833 646.35M584.167 565.931V606.14M584.167 565.931L618.5 545.826L652.833 565.931M584.167 606.14L549.833 626.245M584.167 606.14L618.5 626.245M549.833 626.245L584.167 646.35M549.833 626.245L515.5 646.35M652.833 565.931V606.14M652.833 565.931L687.167 545.826L721.5 565.931M652.833 606.14L618.5 626.245M652.833 606.14L687.167 626.245M618.5 626.245L652.833 646.35M618.5 626.245L584.167 646.35M721.5 565.931V606.14M721.5 565.931L755.833 545.826L790.167 565.931M721.5 606.14L687.167 626.245M721.5 606.14L755.833 626.245M687.167 626.245L721.5 646.35M687.167 626.245L652.833 646.35M790.167 565.931V606.14M790.167 565.931L824.5 545.826L858.833 565.931M790.167 606.14L755.833 626.245M790.167 606.14L824.5 626.245M755.833 626.245L790.167 646.35M755.833 626.245L721.5 646.35M858.833 565.931V606.14M858.833 565.931L893.167 545.826L927.5 565.931M858.833 606.14L824.5 626.245M858.833 606.14L893.167 626.245M824.5 626.245L858.833 646.35M824.5 626.245L790.167 646.35M927.5 565.931V606.14M927.5 565.931L961.833 545.826L996.167 565.931M927.5 606.14L893.167 626.245M927.5 606.14L961.833 626.245M893.167 626.245L927.5 646.35M893.167 626.245L858.833 646.35M996.167 565.931V606.14M996.167 565.931L1030.5 545.826L1064.83 565.931M996.167 606.14L961.833 626.245M996.167 606.14L1030.5 626.245M961.833 626.245L996.167 646.35M961.833 626.245L927.5 646.35M1064.83 565.931V606.14M1064.83 565.931L1099.17 545.826L1133.5 565.931M1064.83 606.14L1030.5 626.245M1064.83 606.14L1099.17 626.245M1030.5 626.245L1064.83 646.35M1030.5 626.245L996.167 646.35M1133.5 565.931V606.14M1133.5 565.931L1167.83 545.826L1202.17 565.931M1133.5 606.14L1099.17 626.245M1133.5 606.14L1167.83 626.245M1099.17 626.245L1133.5 646.35M1099.17 626.245L1064.83 646.35M1202.17 565.931V606.14M1202.17 565.931L1236.5 545.826L1270.83 565.931M1202.17 606.14L1167.83 626.245M1202.17 606.14L1236.5 626.245M1167.83 626.245L1202.17 646.35M1167.83 626.245L1133.5 646.35M1270.83 565.931V606.14M1270.83 565.931L1305.17 545.826L1339.5 565.931M1270.83 606.14L1236.5 626.245M1270.83 606.14L1305.17 626.245M1236.5 626.245L1270.83 646.35M1236.5 626.245L1202.17 646.35M1339.5 565.931V606.14M1339.5 565.931L1373.83 545.826L1408.17 565.931V606.14L1373.83 626.245M1339.5 606.14L1305.17 626.245M1339.5 606.14L1373.83 626.245M1305.17 626.245L1339.5 646.35M1305.17 626.245L1270.83 646.35M1373.83 626.245L1408.17 646.35V686.56L1373.83 706.665L1339.5 686.56M1373.83 626.245L1339.5 646.35M103.5 808.262L69.1667 788.157L34.8333 808.262V848.472L69.1667 868.577M103.5 808.262V848.472M103.5 808.262L137.833 788.157L172.167 808.262M103.5 848.472L69.1667 868.577M103.5 848.472L137.833 868.577M69.1667 868.577L103.5 888.682M69.1667 868.577L34.8333 888.682V928.892L69.1667 948.997L103.5 928.892M172.167 808.262V848.472M172.167 808.262L206.5 788.157L240.833 808.262M172.167 848.472L137.833 868.577M172.167 848.472L206.5 868.577M137.833 868.577L172.167 888.682M137.833 868.577L103.5 888.682M240.833 808.262V848.472M240.833 808.262L275.167 788.157L309.5 808.262M240.833 848.472L206.5 868.577M240.833 848.472L275.167 868.577M206.5 868.577L240.833 888.682M206.5 868.577L172.167 888.682M309.5 808.262V848.472M309.5 808.262L343.833 788.157L378.167 808.262M309.5 848.472L275.167 868.577M309.5 848.472L343.833 868.577M275.167 868.577L309.5 888.682M275.167 868.577L240.833 888.682M378.167 808.262V848.472M378.167 808.262L412.5 788.157L446.833 808.262M378.167 848.472L343.833 868.577M378.167 848.472L412.5 868.577M343.833 868.577L378.167 888.682M343.833 868.577L309.5 888.682M446.833 808.262V848.472M446.833 808.262L481.167 788.157L515.5 808.262M446.833 848.472L412.5 868.577M446.833 848.472L481.167 868.577M412.5 868.577L446.833 888.682M412.5 868.577L378.167 888.682M515.5 808.262V848.472M515.5 808.262L549.833 788.157L584.167 808.262M515.5 848.472L481.167 868.577M515.5 848.472L549.833 868.577M481.167 868.577L515.5 888.682M481.167 868.577L446.833 888.682M584.167 808.262V848.472M584.167 808.262L618.5 788.157L652.833 808.262M584.167 848.472L549.833 868.577M584.167 848.472L618.5 868.577M549.833 868.577L584.167 888.682M549.833 868.577L515.5 888.682M652.833 808.262V848.472M652.833 808.262L687.167 788.157L721.5 808.262M652.833 848.472L618.5 868.577M652.833 848.472L687.167 868.577M618.5 868.577L652.833 888.682M618.5 868.577L584.167 888.682M721.5 808.262V848.472M721.5 808.262L755.833 788.157L790.167 808.262M721.5 848.472L687.167 868.577M721.5 848.472L755.833 868.577M687.167 868.577L721.5 888.682M687.167 868.577L652.833 888.682M790.167 808.262V848.472M790.167 808.262L824.5 788.157L858.833 808.262M790.167 848.472L755.833 868.577M790.167 848.472L824.5 868.577M755.833 868.577L790.167 888.682M755.833 868.577L721.5 888.682M858.833 808.262V848.472M858.833 808.262L893.167 788.157L927.5 808.262M858.833 848.472L824.5 868.577M858.833 848.472L893.167 868.577M824.5 868.577L858.833 888.682M824.5 868.577L790.167 888.682M927.5 808.262V848.472M927.5 808.262L961.833 788.157L996.167 808.262M927.5 848.472L893.167 868.577M927.5 848.472L961.833 868.577M893.167 868.577L927.5 888.682M893.167 868.577L858.833 888.682M996.167 808.262V848.472M996.167 808.262L1030.5 788.157L1064.83 808.262M996.167 848.472L961.833 868.577M996.167 848.472L1030.5 868.577M961.833 868.577L996.167 888.682M961.833 868.577L927.5 888.682M1064.83 808.262V848.472M1064.83 808.262L1099.17 788.157L1133.5 808.262M1064.83 848.472L1030.5 868.577M1064.83 848.472L1099.17 868.577M1030.5 868.577L1064.83 888.682M1030.5 868.577L996.167 888.682M1133.5 808.262V848.472M1133.5 808.262L1167.83 788.157L1202.17 808.262M1133.5 848.472L1099.17 868.577M1133.5 848.472L1167.83 868.577M1099.17 868.577L1133.5 888.682M1099.17 868.577L1064.83 888.682M1202.17 808.262V848.472M1202.17 808.262L1236.5 788.157L1270.83 808.262M1202.17 848.472L1167.83 868.577M1202.17 848.472L1236.5 868.577M1167.83 868.577L1202.17 888.682M1167.83 868.577L1133.5 888.682M1270.83 808.262V848.472M1270.83 808.262L1305.17 788.157L1339.5 808.262M1270.83 848.472L1236.5 868.577M1270.83 848.472L1305.17 868.577M1236.5 868.577L1270.83 888.682M1236.5 868.577L1202.17 888.682M1339.5 808.262V848.472M1339.5 808.262L1373.83 788.157L1408.17 808.262V848.472L1373.83 868.577M1339.5 848.472L1305.17 868.577M1339.5 848.472L1373.83 868.577M1305.17 868.577L1339.5 888.682M1305.17 868.577L1270.83 888.682M1373.83 868.577L1408.17 888.682V928.892L1373.83 948.997L1339.5 928.892M1373.83 868.577L1339.5 888.682M103.5 202.433L69.1667 182.328L34.8333 202.433V242.643L69.1667 262.748M103.5 202.433V242.643M103.5 202.433L137.833 182.328L172.167 202.433M103.5 242.643L69.1667 262.748M103.5 242.643L137.833 262.748M69.1667 262.748L103.5 282.853M69.1667 262.748L34.8333 282.853V323.063L69.1667 343.168L103.5 323.063M172.167 202.433V242.643M172.167 202.433L206.5 182.328L240.833 202.433M172.167 242.643L137.833 262.748M172.167 242.643L206.5 262.748M137.833 262.748L172.167 282.853M137.833 262.748L103.5 282.853M240.833 202.433V242.643M240.833 202.433L275.167 182.328L309.5 202.433M240.833 242.643L206.5 262.748M240.833 242.643L275.167 262.748M206.5 262.748L240.833 282.853M206.5 262.748L172.167 282.853M309.5 202.433V242.643M309.5 202.433L343.833 182.328L378.167 202.433M309.5 242.643L275.167 262.748M309.5 242.643L343.833 262.748M275.167 262.748L309.5 282.853M275.167 262.748L240.833 282.853M378.167 202.433V242.643M378.167 202.433L412.5 182.328L446.833 202.433M378.167 242.643L343.833 262.748M378.167 242.643L412.5 262.748M343.833 262.748L378.167 282.853M343.833 262.748L309.5 282.853M446.833 202.433V242.643M446.833 202.433L481.167 182.328L515.5 202.433M446.833 242.643L412.5 262.748M446.833 242.643L481.167 262.748M412.5 262.748L446.833 282.853M412.5 262.748L378.167 282.853M515.5 202.433V242.643M515.5 202.433L549.833 182.328L584.167 202.433M515.5 242.643L481.167 262.748M515.5 242.643L549.833 262.748M481.167 262.748L515.5 282.853M481.167 262.748L446.833 282.853M584.167 202.433V242.643M584.167 202.433L618.5 182.328L652.833 202.433M584.167 242.643L549.833 262.748M584.167 242.643L618.5 262.748M549.833 262.748L584.167 282.853M549.833 262.748L515.5 282.853M652.833 202.433V242.643M652.833 202.433L687.167 182.328L721.5 202.433M652.833 242.643L618.5 262.748M652.833 242.643L687.167 262.748M618.5 262.748L652.833 282.853M618.5 262.748L584.167 282.853M721.5 202.433V242.643M721.5 202.433L755.833 182.328L790.167 202.433M721.5 242.643L687.167 262.748M721.5 242.643L755.833 262.748M687.167 262.748L721.5 282.853M687.167 262.748L652.833 282.853M790.167 202.433V242.643M790.167 202.433L824.5 182.328L858.833 202.433M790.167 242.643L755.833 262.748M790.167 242.643L824.5 262.748M755.833 262.748L790.167 282.853M755.833 262.748L721.5 282.853M858.833 202.433V242.643M858.833 202.433L893.167 182.328L927.5 202.433M858.833 242.643L824.5 262.748M858.833 242.643L893.167 262.748M824.5 262.748L858.833 282.853M824.5 262.748L790.167 282.853M927.5 202.433V242.643M927.5 202.433L961.833 182.328L996.167 202.433M927.5 242.643L893.167 262.748M927.5 242.643L961.833 262.748M893.167 262.748L927.5 282.853M893.167 262.748L858.833 282.853M996.167 202.433V242.643M996.167 202.433L1030.5 182.328L1064.83 202.433M996.167 242.643L961.833 262.748M996.167 242.643L1030.5 262.748M961.833 262.748L996.167 282.853M961.833 262.748L927.5 282.853M1064.83 202.433V242.643M1064.83 202.433L1099.17 182.328L1133.5 202.433M1064.83 242.643L1030.5 262.748M1064.83 242.643L1099.17 262.748M1030.5 262.748L1064.83 282.853M1030.5 262.748L996.167 282.853M1133.5 202.433V242.643M1133.5 202.433L1167.83 182.328L1202.17 202.433M1133.5 242.643L1099.17 262.748M1133.5 242.643L1167.83 262.748M1099.17 262.748L1133.5 282.853M1099.17 262.748L1064.83 282.853M1202.17 202.433V242.643M1202.17 202.433L1236.5 182.328L1270.83 202.433M1202.17 242.643L1167.83 262.748M1202.17 242.643L1236.5 262.748M1167.83 262.748L1202.17 282.853M1167.83 262.748L1133.5 282.853M1270.83 202.433V242.643M1270.83 202.433L1305.17 182.328L1339.5 202.433M1270.83 242.643L1236.5 262.748M1270.83 242.643L1305.17 262.748M1236.5 262.748L1270.83 282.853M1236.5 262.748L1202.17 282.853M1339.5 202.433V242.643M1339.5 202.433L1373.83 182.328L1408.17 202.433V242.643L1373.83 262.748M1339.5 242.643L1305.17 262.748M1339.5 242.643L1373.83 262.748M1305.17 262.748L1339.5 282.853M1305.17 262.748L1270.83 282.853M1373.83 262.748L1408.17 282.853V323.063L1373.83 343.168L1339.5 323.063M1373.83 262.748L1339.5 282.853M103.5 444.765L69.1667 424.66L34.8333 444.765V484.975L69.1667 505.08M103.5 444.765V484.975M103.5 444.765L137.833 424.66L172.167 444.765M103.5 484.975L69.1667 505.08M103.5 484.975L137.833 505.08M69.1667 505.08L103.5 525.185M69.1667 505.08L34.8333 525.185V565.394L69.1667 585.499L103.5 565.394M172.167 444.765V484.975M172.167 444.765L206.5 424.66L240.833 444.765M172.167 484.975L137.833 505.08M172.167 484.975L206.5 505.08M137.833 505.08L172.167 525.185M137.833 505.08L103.5 525.185M240.833 444.765V484.975M240.833 444.765L275.167 424.66L309.5 444.765M240.833 484.975L206.5 505.08M240.833 484.975L275.167 505.08M206.5 505.08L240.833 525.185M206.5 505.08L172.167 525.185M309.5 444.765V484.975M309.5 444.765L343.833 424.66L378.167 444.765M309.5 484.975L275.167 505.08M309.5 484.975L343.833 505.08M275.167 505.08L309.5 525.185M275.167 505.08L240.833 525.185M378.167 444.765V484.975M378.167 444.765L412.5 424.66L446.833 444.765M378.167 484.975L343.833 505.08M378.167 484.975L412.5 505.08M343.833 505.08L378.167 525.185M343.833 505.08L309.5 525.185M446.833 444.765V484.975M446.833 444.765L481.167 424.66L515.5 444.765M446.833 484.975L412.5 505.08M446.833 484.975L481.167 505.08M412.5 505.08L446.833 525.185M412.5 505.08L378.167 525.185M515.5 444.765V484.975M515.5 444.765L549.833 424.66L584.167 444.765M515.5 484.975L481.167 505.08M515.5 484.975L549.833 505.08M481.167 505.08L515.5 525.185M481.167 505.08L446.833 525.185M584.167 444.765V484.975M584.167 444.765L618.5 424.66L652.833 444.765M584.167 484.975L549.833 505.08M584.167 484.975L618.5 505.08M549.833 505.08L584.167 525.185M549.833 505.08L515.5 525.185M652.833 444.765V484.975M652.833 444.765L687.167 424.66L721.5 444.765M652.833 484.975L618.5 505.08M652.833 484.975L687.167 505.08M618.5 505.08L652.833 525.185M618.5 505.08L584.167 525.185M721.5 444.765V484.975M721.5 444.765L755.833 424.66L790.167 444.765M721.5 484.975L687.167 505.08M721.5 484.975L755.833 505.08M687.167 505.08L721.5 525.185M687.167 505.08L652.833 525.185M790.167 444.765V484.975M790.167 444.765L824.5 424.66L858.833 444.765M790.167 484.975L755.833 505.08M790.167 484.975L824.5 505.08M755.833 505.08L790.167 525.185M755.833 505.08L721.5 525.185M858.833 444.765V484.975M858.833 444.765L893.167 424.66L927.5 444.765M858.833 484.975L824.5 505.08M858.833 484.975L893.167 505.08M824.5 505.08L858.833 525.185M824.5 505.08L790.167 525.185M927.5 444.765V484.975M927.5 444.765L961.833 424.66L996.167 444.765M927.5 484.975L893.167 505.08M927.5 484.975L961.833 505.08M893.167 505.08L927.5 525.185M893.167 505.08L858.833 525.185M996.167 444.765V484.975M996.167 444.765L1030.5 424.66L1064.83 444.765M996.167 484.975L961.833 505.08M996.167 484.975L1030.5 505.08M961.833 505.08L996.167 525.185M961.833 505.08L927.5 525.185M1064.83 444.765V484.975M1064.83 444.765L1099.17 424.66L1133.5 444.765M1064.83 484.975L1030.5 505.08M1064.83 484.975L1099.17 505.08M1030.5 505.08L1064.83 525.185M1030.5 505.08L996.167 525.185M1133.5 444.765V484.975M1133.5 444.765L1167.83 424.66L1202.17 444.765M1133.5 484.975L1099.17 505.08M1133.5 484.975L1167.83 505.08M1099.17 505.08L1133.5 525.185M1099.17 505.08L1064.83 525.185M1202.17 444.765V484.975M1202.17 444.765L1236.5 424.66L1270.83 444.765M1202.17 484.975L1167.83 505.08M1202.17 484.975L1236.5 505.08M1167.83 505.08L1202.17 525.185M1167.83 505.08L1133.5 525.185M1270.83 444.765V484.975M1270.83 444.765L1305.17 424.66L1339.5 444.765M1270.83 484.975L1236.5 505.08M1270.83 484.975L1305.17 505.08M1236.5 505.08L1270.83 525.185M1236.5 505.08L1202.17 525.185M1339.5 444.765V484.975M1339.5 444.765L1373.83 424.66L1408.17 444.765V484.975L1373.83 505.08M1339.5 484.975L1305.17 505.08M1339.5 484.975L1373.83 505.08M1305.17 505.08L1339.5 525.185M1305.17 505.08L1270.83 525.185M1373.83 505.08L1408.17 525.185V565.394L1373.83 585.499L1339.5 565.394M1373.83 505.08L1339.5 525.185M103.5 687.096L69.1667 666.991L34.8333 687.096V727.306L69.1667 747.411M103.5 687.096V727.306M103.5 687.096L137.833 666.991L172.167 687.096M103.5 727.306L69.1667 747.411M103.5 727.306L137.833 747.411M69.1667 747.411L103.5 767.516M69.1667 747.411L34.8333 767.516V807.726L69.1667 827.831L103.5 807.726M172.167 687.096V727.306M172.167 687.096L206.5 666.991L240.833 687.096M172.167 727.306L137.833 747.411M172.167 727.306L206.5 747.411M137.833 747.411L172.167 767.516M137.833 747.411L103.5 767.516M240.833 687.096V727.306M240.833 687.096L275.167 666.991L309.5 687.096M240.833 727.306L206.5 747.411M240.833 727.306L275.167 747.411M206.5 747.411L240.833 767.516M206.5 747.411L172.167 767.516M309.5 687.096V727.306M309.5 687.096L343.833 666.991L378.167 687.096M309.5 727.306L275.167 747.411M309.5 727.306L343.833 747.411M275.167 747.411L309.5 767.516M275.167 747.411L240.833 767.516M378.167 687.096V727.306M378.167 687.096L412.5 666.991L446.833 687.096M378.167 727.306L343.833 747.411M378.167 727.306L412.5 747.411M343.833 747.411L378.167 767.516M343.833 747.411L309.5 767.516M446.833 687.096V727.306M446.833 687.096L481.167 666.991L515.5 687.096M446.833 727.306L412.5 747.411M446.833 727.306L481.167 747.411M412.5 747.411L446.833 767.516M412.5 747.411L378.167 767.516M515.5 687.096V727.306M515.5 687.096L549.833 666.991L584.167 687.096M515.5 727.306L481.167 747.411M515.5 727.306L549.833 747.411M481.167 747.411L515.5 767.516M481.167 747.411L446.833 767.516M584.167 687.096V727.306M584.167 687.096L618.5 666.991L652.833 687.096M584.167 727.306L549.833 747.411M584.167 727.306L618.5 747.411M549.833 747.411L584.167 767.516M549.833 747.411L515.5 767.516M652.833 687.096V727.306M652.833 687.096L687.167 666.991L721.5 687.096M652.833 727.306L618.5 747.411M652.833 727.306L687.167 747.411M618.5 747.411L652.833 767.516M618.5 747.411L584.167 767.516M721.5 687.096V727.306M721.5 687.096L755.833 666.991L790.167 687.096M721.5 727.306L687.167 747.411M721.5 727.306L755.833 747.411M687.167 747.411L721.5 767.516M687.167 747.411L652.833 767.516M790.167 687.096V727.306M790.167 687.096L824.5 666.991L858.833 687.096M790.167 727.306L755.833 747.411M790.167 727.306L824.5 747.411M755.833 747.411L790.167 767.516M755.833 747.411L721.5 767.516M858.833 687.096V727.306M858.833 687.096L893.167 666.991L927.5 687.096M858.833 727.306L824.5 747.411M858.833 727.306L893.167 747.411M824.5 747.411L858.833 767.516M824.5 747.411L790.167 767.516M927.5 687.096V727.306M927.5 687.096L961.833 666.991L996.167 687.096M927.5 727.306L893.167 747.411M927.5 727.306L961.833 747.411M893.167 747.411L927.5 767.516M893.167 747.411L858.833 767.516M996.167 687.096V727.306M996.167 687.096L1030.5 666.991L1064.83 687.096M996.167 727.306L961.833 747.411M996.167 727.306L1030.5 747.411M961.833 747.411L996.167 767.516M961.833 747.411L927.5 767.516M1064.83 687.096V727.306M1064.83 687.096L1099.17 666.991L1133.5 687.096M1064.83 727.306L1030.5 747.411M1064.83 727.306L1099.17 747.411M1030.5 747.411L1064.83 767.516M1030.5 747.411L996.167 767.516M1133.5 687.096V727.306M1133.5 687.096L1167.83 666.991L1202.17 687.096M1133.5 727.306L1099.17 747.411M1133.5 727.306L1167.83 747.411M1099.17 747.411L1133.5 767.516M1099.17 747.411L1064.83 767.516M1202.17 687.096V727.306M1202.17 687.096L1236.5 666.991L1270.83 687.096M1202.17 727.306L1167.83 747.411M1202.17 727.306L1236.5 747.411M1167.83 747.411L1202.17 767.516M1167.83 747.411L1133.5 767.516M1270.83 687.096V727.306M1270.83 687.096L1305.17 666.991L1339.5 687.096M1270.83 727.306L1236.5 747.411M1270.83 727.306L1305.17 747.411M1236.5 747.411L1270.83 767.516M1236.5 747.411L1202.17 767.516M1339.5 687.096V727.306M1339.5 687.096L1373.83 666.991L1408.17 687.096V727.306L1373.83 747.411M1339.5 727.306L1305.17 747.411M1339.5 727.306L1373.83 747.411M1305.17 747.411L1339.5 767.516M1305.17 747.411L1270.83 767.516M1373.83 747.411L1408.17 767.516V807.726L1373.83 827.831L1339.5 807.726M1373.83 747.411L1339.5 767.516M103.5 929.428L69.1667 909.323L34.8333 929.428V969.638L69.1667 989.743L103.5 969.638M103.5 929.428V969.638M103.5 929.428L137.833 909.323L172.167 929.428M103.5 969.638L137.833 989.743L172.167 969.638M172.167 929.428V969.638M172.167 929.428L206.5 909.323L240.833 929.428M172.167 969.638L206.5 989.743L240.833 969.638M240.833 929.428V969.638M240.833 929.428L275.167 909.323L309.5 929.428M240.833 969.638L275.167 989.743L309.5 969.638M309.5 929.428V969.638M309.5 929.428L343.833 909.323L378.167 929.428M309.5 969.638L343.833 989.743L378.167 969.638M378.167 929.428V969.638M378.167 929.428L412.5 909.323L446.833 929.428M378.167 969.638L412.5 989.743L446.833 969.638M446.833 929.428V969.638M446.833 929.428L481.167 909.323L515.5 929.428M446.833 969.638L481.167 989.743L515.5 969.638M515.5 929.428V969.638M515.5 929.428L549.833 909.323L584.167 929.428M515.5 969.638L549.833 989.743L584.167 969.638M584.167 929.428V969.638M584.167 929.428L618.5 909.323L652.833 929.428M584.167 969.638L618.5 989.743L652.833 969.638M652.833 929.428V969.638M652.833 929.428L687.167 909.323L721.5 929.428M652.833 969.638L687.167 989.743L721.5 969.638M721.5 929.428V969.638M721.5 929.428L755.833 909.323L790.167 929.428M721.5 969.638L755.833 989.743L790.167 969.638M790.167 929.428V969.638M790.167 929.428L824.5 909.323L858.833 929.428M790.167 969.638L824.5 989.743L858.833 969.638M858.833 929.428V969.638M858.833 929.428L893.167 909.323L927.5 929.428M858.833 969.638L893.167 989.743L927.5 969.638M927.5 929.428V969.638M927.5 929.428L961.833 909.323L996.167 929.428M927.5 969.638L961.833 989.743L996.167 969.638M996.167 929.428V969.638M996.167 929.428L1030.5 909.323L1064.83 929.428M996.167 969.638L1030.5 989.743L1064.83 969.638M1064.83 929.428V969.638M1064.83 929.428L1099.17 909.323L1133.5 929.428M1064.83 969.638L1099.17 989.743L1133.5 969.638M1133.5 929.428V969.638M1133.5 929.428L1167.83 909.323L1202.17 929.428M1133.5 969.638L1167.83 989.743L1202.17 969.638M1202.17 929.428V969.638M1202.17 929.428L1236.5 909.323L1270.83 929.428M1202.17 969.638L1236.5 989.743L1270.83 969.638M1270.83 929.428V969.638M1270.83 929.428L1305.17 909.323L1339.5 929.428M1270.83 969.638L1305.17 989.743L1339.5 969.638M1339.5 929.428V969.638M1339.5 929.428L1373.83 909.323L1408.17 929.428V969.638L1373.83 989.743L1339.5 969.638M103.5 40.5214L69.1667 20.4165L34.8333 40.5214V80.7313L69.1667 100.836L103.5 80.7313M103.5 40.5214V80.7313M103.5 40.5214L137.833 20.4165L172.167 40.5214M103.5 80.7313L137.833 100.836L172.167 80.7313M172.167 40.5214V80.7313M172.167 40.5214L206.5 20.4165L240.833 40.5214M172.167 80.7313L206.5 100.836L240.833 80.7313M240.833 40.5214V80.7313M240.833 40.5214L275.167 20.4165L309.5 40.5214M240.833 80.7313L275.167 100.836L309.5 80.7313M309.5 40.5214V80.7313M309.5 40.5214L343.833 20.4165L378.167 40.5214M309.5 80.7313L343.833 100.836L378.167 80.7313M378.167 40.5214V80.7313M378.167 40.5214L412.5 20.4165L446.833 40.5214M378.167 80.7313L412.5 100.836L446.833 80.7313M446.833 40.5214V80.7313M446.833 40.5214L481.167 20.4165L515.5 40.5214M446.833 80.7313L481.167 100.836L515.5 80.7313M515.5 40.5214V80.7313M515.5 40.5214L549.833 20.4165L584.167 40.5214M515.5 80.7313L549.833 100.836L584.167 80.7313M584.167 40.5214V80.7313M584.167 40.5214L618.5 20.4165L652.833 40.5214M584.167 80.7313L618.5 100.836L652.833 80.7313M652.833 40.5214V80.7313M652.833 40.5214L687.167 20.4165L721.5 40.5214M652.833 80.7313L687.167 100.836L721.5 80.7313M721.5 40.5214V80.7313M721.5 40.5214L755.833 20.4165L790.167 40.5214M721.5 80.7313L755.833 100.836L790.167 80.7313M790.167 40.5214V80.7313M790.167 40.5214L824.5 20.4165L858.833 40.5214M790.167 80.7313L824.5 100.836L858.833 80.7313M858.833 40.5214V80.7313M858.833 40.5214L893.167 20.4165L927.5 40.5214M858.833 80.7313L893.167 100.836L927.5 80.7313M927.5 40.5214V80.7313M927.5 40.5214L961.833 20.4165L996.167 40.5214M927.5 80.7313L961.833 100.836L996.167 80.7313M996.167 40.5214V80.7313M996.167 40.5214L1030.5 20.4165L1064.83 40.5214M996.167 80.7313L1030.5 100.836L1064.83 80.7313M1064.83 40.5214V80.7313M1064.83 40.5214L1099.17 20.4165L1133.5 40.5214M1064.83 80.7313L1099.17 100.836L1133.5 80.7313M1133.5 40.5214V80.7313M1133.5 40.5214L1167.83 20.4165L1202.17 40.5214M1133.5 80.7313L1167.83 100.836L1202.17 80.7313M1202.17 40.5214V80.7313M1202.17 40.5214L1236.5 20.4165L1270.83 40.5214M1202.17 80.7313L1236.5 100.836L1270.83 80.7313M1270.83 40.5214V80.7313M1270.83 40.5214L1305.17 20.4165L1339.5 40.5214M1270.83 80.7313L1305.17 100.836L1339.5 80.7313M1339.5 40.5214V80.7313M1339.5 40.5214L1373.83 20.4165L1408.17 40.5214V80.7313L1373.83 100.836L1339.5 80.7313M103.5 282.853V323.063M103.5 323.063L137.833 343.168L172.167 323.063M172.167 282.853V323.063M172.167 323.063L206.5 343.168L240.833 323.063M240.833 282.853V323.063M240.833 323.063L275.167 343.168L309.5 323.063M309.5 282.853V323.063M309.5 323.063L343.833 343.168L378.167 323.063M378.167 282.853V323.063M378.167 323.063L412.5 343.168L446.833 323.063M446.833 282.853V323.063M446.833 323.063L481.167 343.168L515.5 323.063M515.5 282.853V323.063M515.5 323.063L549.833 343.168L584.167 323.063M584.167 282.853V323.063M584.167 323.063L618.5 343.168L652.833 323.063M652.833 282.853V323.063M652.833 323.063L687.167 343.168L721.5 323.063M721.5 282.853V323.063M721.5 323.063L755.833 343.168L790.167 323.063M790.167 282.853V323.063M790.167 323.063L824.5 343.168L858.833 323.063M858.833 282.853V323.063M858.833 323.063L893.167 343.168L927.5 323.063M927.5 282.853V323.063M927.5 323.063L961.833 343.168L996.167 323.063M996.167 282.853V323.063M996.167 323.063L1030.5 343.168L1064.83 323.063M1064.83 282.853V323.063M1064.83 323.063L1099.17 343.168L1133.5 323.063M1133.5 282.853V323.063M1133.5 323.063L1167.83 343.168L1202.17 323.063M1202.17 282.853V323.063M1202.17 323.063L1236.5 343.168L1270.83 323.063M1270.83 282.853V323.063M1270.83 323.063L1305.17 343.168L1339.5 323.063M1339.5 282.853V323.063M103.5 525.185V565.394M103.5 565.394L137.833 585.499L172.167 565.394M172.167 525.185V565.394M172.167 565.394L206.5 585.499L240.833 565.394M240.833 525.185V565.394M240.833 565.394L275.167 585.499L309.5 565.394M309.5 525.185V565.394M309.5 565.394L343.833 585.499L378.167 565.394M378.167 525.185V565.394M378.167 565.394L412.5 585.499L446.833 565.394M446.833 525.185V565.394M446.833 565.394L481.167 585.499L515.5 565.394M515.5 525.185V565.394M515.5 565.394L549.833 585.499L584.167 565.394M584.167 525.185V565.394M584.167 565.394L618.5 585.499L652.833 565.394M652.833 525.185V565.394M652.833 565.394L687.167 585.499L721.5 565.394M721.5 525.185V565.394M721.5 565.394L755.833 585.499L790.167 565.394M790.167 525.185V565.394M790.167 565.394L824.5 585.499L858.833 565.394M858.833 525.185V565.394M858.833 565.394L893.167 585.499L927.5 565.394M927.5 525.185V565.394M927.5 565.394L961.833 585.499L996.167 565.394M996.167 525.185V565.394M996.167 565.394L1030.5 585.499L1064.83 565.394M1064.83 525.185V565.394M1064.83 565.394L1099.17 585.499L1133.5 565.394M1133.5 525.185V565.394M1133.5 565.394L1167.83 585.499L1202.17 565.394M1202.17 525.185V565.394M1202.17 565.394L1236.5 585.499L1270.83 565.394M1270.83 525.185V565.394M1270.83 565.394L1305.17 585.499L1339.5 565.394M1339.5 525.185V565.394M103.5 767.516V807.726M103.5 807.726L137.833 827.831L172.167 807.726M172.167 767.516V807.726M172.167 807.726L206.5 827.831L240.833 807.726M240.833 767.516V807.726M240.833 807.726L275.167 827.831L309.5 807.726M309.5 767.516V807.726M309.5 807.726L343.833 827.831L378.167 807.726M378.167 767.516V807.726M378.167 807.726L412.5 827.831L446.833 807.726M446.833 767.516V807.726M446.833 807.726L481.167 827.831L515.5 807.726M515.5 767.516V807.726M515.5 807.726L549.833 827.831L584.167 807.726M584.167 767.516V807.726M584.167 807.726L618.5 827.831L652.833 807.726M652.833 767.516V807.726M652.833 807.726L687.167 827.831L721.5 807.726M721.5 767.516V807.726M721.5 807.726L755.833 827.831L790.167 807.726M790.167 767.516V807.726M790.167 807.726L824.5 827.831L858.833 807.726M858.833 767.516V807.726M858.833 807.726L893.167 827.831L927.5 807.726M927.5 767.516V807.726M927.5 807.726L961.833 827.831L996.167 807.726M996.167 767.516V807.726M996.167 807.726L1030.5 827.831L1064.83 807.726M1064.83 767.516V807.726M1064.83 807.726L1099.17 827.831L1133.5 807.726M1133.5 767.516V807.726M1133.5 807.726L1167.83 827.831L1202.17 807.726M1202.17 767.516V807.726M1202.17 807.726L1236.5 827.831L1270.83 807.726M1270.83 767.516V807.726M1270.83 807.726L1305.17 827.831L1339.5 807.726M1339.5 767.516V807.726M103.5 161.687V201.897M103.5 201.897L137.833 222.002L172.167 201.897M172.167 161.687V201.897M172.167 201.897L206.5 222.002L240.833 201.897M240.833 161.687V201.897M240.833 201.897L275.167 222.002L309.5 201.897M309.5 161.687V201.897M309.5 201.897L343.833 222.002L378.167 201.897M378.167 161.687V201.897M378.167 201.897L412.5 222.002L446.833 201.897M446.833 161.687V201.897M446.833 201.897L481.167 222.002L515.5 201.897M515.5 161.687V201.897M515.5 201.897L549.833 222.002L584.167 201.897M584.167 161.687V201.897M584.167 201.897L618.5 222.002L652.833 201.897M652.833 161.687V201.897M652.833 201.897L687.167 222.002L721.5 201.897M721.5 161.687V201.897M721.5 201.897L755.833 222.002L790.167 201.897M790.167 161.687V201.897M790.167 201.897L824.5 222.002L858.833 201.897M858.833 161.687V201.897M858.833 201.897L893.167 222.002L927.5 201.897M927.5 161.687V201.897M927.5 201.897L961.833 222.002L996.167 201.897M996.167 161.687V201.897M996.167 201.897L1030.5 222.002L1064.83 201.897M1064.83 161.687V201.897M1064.83 201.897L1099.17 222.002L1133.5 201.897M1133.5 161.687V201.897M1133.5 201.897L1167.83 222.002L1202.17 201.897M1202.17 161.687V201.897M1202.17 201.897L1236.5 222.002L1270.83 201.897M1270.83 161.687V201.897M1270.83 201.897L1305.17 222.002L1339.5 201.897M1339.5 161.687V201.897M103.5 404.019V444.229M103.5 444.229L137.833 464.334L172.167 444.229M172.167 404.019V444.229M172.167 444.229L206.5 464.334L240.833 444.229M240.833 404.019V444.229M240.833 444.229L275.167 464.334L309.5 444.229M309.5 404.019V444.229M309.5 444.229L343.833 464.334L378.167 444.229M378.167 404.019V444.229M378.167 444.229L412.5 464.334L446.833 444.229M446.833 404.019V444.229M446.833 444.229L481.167 464.334L515.5 444.229M515.5 404.019V444.229M515.5 444.229L549.833 464.334L584.167 444.229M584.167 404.019V444.229M584.167 444.229L618.5 464.334L652.833 444.229M652.833 404.019V444.229M652.833 444.229L687.167 464.334L721.5 444.229M721.5 404.019V444.229M721.5 444.229L755.833 464.334L790.167 444.229M790.167 404.019V444.229M790.167 444.229L824.5 464.334L858.833 444.229M858.833 404.019V444.229M858.833 444.229L893.167 464.334L927.5 444.229M927.5 404.019V444.229M927.5 444.229L961.833 464.334L996.167 444.229M996.167 404.019V444.229M996.167 444.229L1030.5 464.334L1064.83 444.229M1064.83 404.019V444.229M1064.83 444.229L1099.17 464.334L1133.5 444.229M1133.5 404.019V444.229M1133.5 444.229L1167.83 464.334L1202.17 444.229M1202.17 404.019V444.229M1202.17 444.229L1236.5 464.334L1270.83 444.229M1270.83 404.019V444.229M1270.83 444.229L1305.17 464.334L1339.5 444.229M1339.5 404.019V444.229M103.5 646.35V686.56M103.5 686.56L137.833 706.665L172.167 686.56M172.167 646.35V686.56M172.167 686.56L206.5 706.665L240.833 686.56M240.833 646.35V686.56M240.833 686.56L275.167 706.665L309.5 686.56M309.5 646.35V686.56M309.5 686.56L343.833 706.665L378.167 686.56M378.167 646.35V686.56M378.167 686.56L412.5 706.665L446.833 686.56M446.833 646.35V686.56M446.833 686.56L481.167 706.665L515.5 686.56M515.5 646.35V686.56M515.5 686.56L549.833 706.665L584.167 686.56M584.167 646.35V686.56M584.167 686.56L618.5 706.665L652.833 686.56M652.833 646.35V686.56M652.833 686.56L687.167 706.665L721.5 686.56M721.5 646.35V686.56M721.5 686.56L755.833 706.665L790.167 686.56M790.167 646.35V686.56M790.167 686.56L824.5 706.665L858.833 686.56M858.833 646.35V686.56M858.833 686.56L893.167 706.665L927.5 686.56M927.5 646.35V686.56M927.5 686.56L961.833 706.665L996.167 686.56M996.167 646.35V686.56M996.167 686.56L1030.5 706.665L1064.83 686.56M1064.83 646.35V686.56M1064.83 686.56L1099.17 706.665L1133.5 686.56M1133.5 646.35V686.56M1133.5 686.56L1167.83 706.665L1202.17 686.56M1202.17 646.35V686.56M1202.17 686.56L1236.5 706.665L1270.83 686.56M1270.83 646.35V686.56M1270.83 686.56L1305.17 706.665L1339.5 686.56M1339.5 646.35V686.56M103.5 888.682V928.892M103.5 928.892L137.833 948.997L172.167 928.892M172.167 888.682V928.892M172.167 928.892L206.5 948.997L240.833 928.892M240.833 888.682V928.892M240.833 928.892L275.167 948.997L309.5 928.892M309.5 888.682V928.892M309.5 928.892L343.833 948.997L378.167 928.892M378.167 888.682V928.892M378.167 928.892L412.5 948.997L446.833 928.892M446.833 888.682V928.892M446.833 928.892L481.167 948.997L515.5 928.892M515.5 888.682V928.892M515.5 928.892L549.833 948.997L584.167 928.892M584.167 888.682V928.892M584.167 928.892L618.5 948.997L652.833 928.892M652.833 888.682V928.892M652.833 928.892L687.167 948.997L721.5 928.892M721.5 888.682V928.892M721.5 928.892L755.833 948.997L790.167 928.892M790.167 888.682V928.892M790.167 928.892L824.5 948.997L858.833 928.892M858.833 888.682V928.892M858.833 928.892L893.167 948.997L927.5 928.892M927.5 888.682V928.892M927.5 928.892L961.833 948.997L996.167 928.892M996.167 888.682V928.892M996.167 928.892L1030.5 948.997L1064.83 928.892M1064.83 888.682V928.892M1064.83 928.892L1099.17 948.997L1133.5 928.892M1133.5 888.682V928.892M1133.5 928.892L1167.83 948.997L1202.17 928.892M1202.17 888.682V928.892M1202.17 928.892L1236.5 948.997L1270.83 928.892M1270.83 888.682V928.892M1270.83 928.892L1305.17 948.997L1339.5 928.892M1339.5 888.682V928.892M137.833 101.104V141.314M137.833 141.314L172.167 161.419L206.5 141.314M206.5 101.104V141.314M206.5 141.314L240.833 161.419L275.167 141.314M275.167 101.104V141.314M275.167 141.314L309.5 161.419L343.833 141.314M343.833 101.104V141.314M343.833 141.314L378.167 161.419L412.5 141.314M412.5 101.104V141.314M412.5 141.314L446.833 161.419L481.167 141.314M481.167 101.104V141.314M481.167 141.314L515.5 161.419L549.833 141.314M549.833 101.104V141.314M549.833 141.314L584.167 161.419L618.5 141.314M618.5 101.104V141.314M618.5 141.314L652.833 161.419L687.167 141.314M687.167 101.104V141.314M687.167 141.314L721.5 161.419L755.833 141.314M755.833 101.104V141.314M755.833 141.314L790.167 161.419L824.5 141.314M824.5 101.104V141.314M824.5 141.314L858.833 161.419L893.167 141.314M893.167 101.104V141.314M893.167 141.314L927.5 161.419L961.833 141.314M961.833 101.104V141.314M961.833 141.314L996.167 161.419L1030.5 141.314M1030.5 101.104V141.314M1030.5 141.314L1064.83 161.419L1099.17 141.314M1099.17 101.104V141.314M1099.17 141.314L1133.5 161.419L1167.83 141.314M1167.83 101.104V141.314M1167.83 141.314L1202.17 161.419L1236.5 141.314M1236.5 101.104V141.314M1236.5 141.314L1270.83 161.419L1305.17 141.314M1305.17 101.104V141.314M1305.17 141.314L1339.5 161.419L1373.83 141.314M1373.83 101.104V141.314M1373.83 101.104L1408.17 80.9994L1442.5 101.104V141.314L1408.17 161.419L1373.83 141.314M137.833 343.436V383.646M137.833 383.646L172.167 403.751L206.5 383.646M206.5 343.436V383.646M206.5 383.646L240.833 403.751L275.167 383.646M275.167 343.436V383.646M275.167 383.646L309.5 403.751L343.833 383.646M343.833 343.436V383.646M343.833 383.646L378.167 403.751L412.5 383.646M412.5 343.436V383.646M412.5 383.646L446.833 403.751L481.167 383.646M481.167 343.436V383.646M481.167 383.646L515.5 403.751L549.833 383.646M549.833 343.436V383.646M549.833 383.646L584.167 403.751L618.5 383.646M618.5 343.436V383.646M618.5 383.646L652.833 403.751L687.167 383.646M687.167 343.436V383.646M687.167 383.646L721.5 403.751L755.833 383.646M755.833 343.436V383.646M755.833 383.646L790.167 403.751L824.5 383.646M824.5 343.436V383.646M824.5 383.646L858.833 403.751L893.167 383.646M893.167 343.436V383.646M893.167 383.646L927.5 403.751L961.833 383.646M961.833 343.436V383.646M961.833 383.646L996.167 403.751L1030.5 383.646M1030.5 343.436V383.646M1030.5 383.646L1064.83 403.751L1099.17 383.646M1099.17 343.436V383.646M1099.17 383.646L1133.5 403.751L1167.83 383.646M1167.83 343.436V383.646M1167.83 383.646L1202.17 403.751L1236.5 383.646M1236.5 343.436V383.646M1236.5 383.646L1270.83 403.751L1305.17 383.646M1305.17 343.436V383.646M1305.17 383.646L1339.5 403.751L1373.83 383.646M1373.83 343.436V383.646M1373.83 343.436L1408.17 323.331L1442.5 343.436V383.646L1408.17 403.751L1373.83 383.646M137.833 585.767V625.977M137.833 625.977L172.167 646.082L206.5 625.977M206.5 585.767V625.977M206.5 625.977L240.833 646.082L275.167 625.977M275.167 585.767V625.977M275.167 625.977L309.5 646.082L343.833 625.977M343.833 585.767V625.977M343.833 625.977L378.167 646.082L412.5 625.977M412.5 585.767V625.977M412.5 625.977L446.833 646.082L481.167 625.977M481.167 585.767V625.977M481.167 625.977L515.5 646.082L549.833 625.977M549.833 585.767V625.977M549.833 625.977L584.167 646.082L618.5 625.977M618.5 585.767V625.977M618.5 625.977L652.833 646.082L687.167 625.977M687.167 585.767V625.977M687.167 625.977L721.5 646.082L755.833 625.977M755.833 585.767V625.977M755.833 625.977L790.167 646.082L824.5 625.977M824.5 585.767V625.977M824.5 625.977L858.833 646.082L893.167 625.977M893.167 585.767V625.977M893.167 625.977L927.5 646.082L961.833 625.977M961.833 585.767V625.977M961.833 625.977L996.167 646.082L1030.5 625.977M1030.5 585.767V625.977M1030.5 625.977L1064.83 646.082L1099.17 625.977M1099.17 585.767V625.977M1099.17 625.977L1133.5 646.082L1167.83 625.977M1167.83 585.767V625.977M1167.83 625.977L1202.17 646.082L1236.5 625.977M1236.5 585.767V625.977M1236.5 625.977L1270.83 646.082L1305.17 625.977M1305.17 585.767V625.977M1305.17 625.977L1339.5 646.082L1373.83 625.977M1373.83 585.767V625.977M1373.83 585.767L1408.17 565.663L1442.5 585.767V625.977L1408.17 646.082L1373.83 625.977M137.833 828.099V868.309M137.833 868.309L172.167 888.414L206.5 868.309M206.5 828.099V868.309M206.5 868.309L240.833 888.414L275.167 868.309M275.167 828.099V868.309M275.167 868.309L309.5 888.414L343.833 868.309M343.833 828.099V868.309M343.833 868.309L378.167 888.414L412.5 868.309M412.5 828.099V868.309M412.5 868.309L446.833 888.414L481.167 868.309M481.167 828.099V868.309M481.167 868.309L515.5 888.414L549.833 868.309M549.833 828.099V868.309M549.833 868.309L584.167 888.414L618.5 868.309M618.5 828.099V868.309M618.5 868.309L652.833 888.414L687.167 868.309M687.167 828.099V868.309M687.167 868.309L721.5 888.414L755.833 868.309M755.833 828.099V868.309M755.833 868.309L790.167 888.414L824.5 868.309M824.5 828.099V868.309M824.5 868.309L858.833 888.414L893.167 868.309M893.167 828.099V868.309M893.167 868.309L927.5 888.414L961.833 868.309M961.833 828.099V868.309M961.833 868.309L996.167 888.414L1030.5 868.309M1030.5 828.099V868.309M1030.5 868.309L1064.83 888.414L1099.17 868.309M1099.17 828.099V868.309M1099.17 868.309L1133.5 888.414L1167.83 868.309M1167.83 828.099V868.309M1167.83 868.309L1202.17 888.414L1236.5 868.309M1236.5 828.099V868.309M1236.5 868.309L1270.83 888.414L1305.17 868.309M1305.17 828.099V868.309M1305.17 868.309L1339.5 888.414L1373.83 868.309M1373.83 828.099V868.309M1373.83 828.099L1408.17 807.994L1442.5 828.099V868.309L1408.17 888.414L1373.83 868.309M137.833 222.27V262.48M137.833 262.48L172.167 282.585L206.5 262.48M206.5 222.27V262.48M206.5 262.48L240.833 282.585L275.167 262.48M275.167 222.27V262.48M275.167 262.48L309.5 282.585L343.833 262.48M343.833 222.27V262.48M343.833 262.48L378.167 282.585L412.5 262.48M412.5 222.27V262.48M412.5 262.48L446.833 282.585L481.167 262.48M481.167 222.27V262.48M481.167 262.48L515.5 282.585L549.833 262.48M549.833 222.27V262.48M549.833 262.48L584.167 282.585L618.5 262.48M618.5 222.27V262.48M618.5 262.48L652.833 282.585L687.167 262.48M687.167 222.27V262.48M687.167 262.48L721.5 282.585L755.833 262.48M755.833 222.27V262.48M755.833 262.48L790.167 282.585L824.5 262.48M824.5 222.27V262.48M824.5 262.48L858.833 282.585L893.167 262.48M893.167 222.27V262.48M893.167 262.48L927.5 282.585L961.833 262.48M961.833 222.27V262.48M961.833 262.48L996.167 282.585L1030.5 262.48M1030.5 222.27V262.48M1030.5 262.48L1064.83 282.585L1099.17 262.48M1099.17 222.27V262.48M1099.17 262.48L1133.5 282.585L1167.83 262.48M1167.83 222.27V262.48M1167.83 262.48L1202.17 282.585L1236.5 262.48M1236.5 222.27V262.48M1236.5 262.48L1270.83 282.585L1305.17 262.48M1305.17 222.27V262.48M1305.17 262.48L1339.5 282.585L1373.83 262.48M1373.83 222.27V262.48M1373.83 222.27L1408.17 202.165L1442.5 222.27V262.48L1408.17 282.585L1373.83 262.48M137.833 464.602V504.812M137.833 504.812L172.167 524.916L206.5 504.812M206.5 464.602V504.812M206.5 504.812L240.833 524.916L275.167 504.812M275.167 464.602V504.812M275.167 504.812L309.5 524.916L343.833 504.812M343.833 464.602V504.812M343.833 504.812L378.167 524.916L412.5 504.812M412.5 464.602V504.812M412.5 504.812L446.833 524.916L481.167 504.812M481.167 464.602V504.812M481.167 504.812L515.5 524.916L549.833 504.812M549.833 464.602V504.812M549.833 504.812L584.167 524.916L618.5 504.812M618.5 464.602V504.812M618.5 504.812L652.833 524.916L687.167 504.812M687.167 464.602V504.812M687.167 504.812L721.5 524.916L755.833 504.812M755.833 464.602V504.812M755.833 504.812L790.167 524.916L824.5 504.812M824.5 464.602V504.812M824.5 504.812L858.833 524.916L893.167 504.812M893.167 464.602V504.812M893.167 504.812L927.5 524.916L961.833 504.812M961.833 464.602V504.812M961.833 504.812L996.167 524.916L1030.5 504.812M1030.5 464.602V504.812M1030.5 504.812L1064.83 524.916L1099.17 504.812M1099.17 464.602V504.812M1099.17 504.812L1133.5 524.916L1167.83 504.812M1167.83 464.602V504.812M1167.83 504.812L1202.17 524.916L1236.5 504.812M1236.5 464.602V504.812M1236.5 504.812L1270.83 524.916L1305.17 504.812M1305.17 464.602V504.812M1305.17 504.812L1339.5 524.916L1373.83 504.812M1373.83 464.602V504.812M1373.83 464.602L1408.17 444.497L1442.5 464.602V504.812L1408.17 524.916L1373.83 504.812M137.833 706.933V747.143M137.833 747.143L172.167 767.248L206.5 747.143M206.5 706.933V747.143M206.5 747.143L240.833 767.248L275.167 747.143M275.167 706.933V747.143M275.167 747.143L309.5 767.248L343.833 747.143M343.833 706.933V747.143M343.833 747.143L378.167 767.248L412.5 747.143M412.5 706.933V747.143M412.5 747.143L446.833 767.248L481.167 747.143M481.167 706.933V747.143M481.167 747.143L515.5 767.248L549.833 747.143M549.833 706.933V747.143M549.833 747.143L584.167 767.248L618.5 747.143M618.5 706.933V747.143M618.5 747.143L652.833 767.248L687.167 747.143M687.167 706.933V747.143M687.167 747.143L721.5 767.248L755.833 747.143M755.833 706.933V747.143M755.833 747.143L790.167 767.248L824.5 747.143M824.5 706.933V747.143M824.5 747.143L858.833 767.248L893.167 747.143M893.167 706.933V747.143M893.167 747.143L927.5 767.248L961.833 747.143M961.833 706.933V747.143M961.833 747.143L996.167 767.248L1030.5 747.143M1030.5 706.933V747.143M1030.5 747.143L1064.83 767.248L1099.17 747.143M1099.17 706.933V747.143M1099.17 747.143L1133.5 767.248L1167.83 747.143M1167.83 706.933V747.143M1167.83 747.143L1202.17 767.248L1236.5 747.143M1236.5 706.933V747.143M1236.5 747.143L1270.83 767.248L1305.17 747.143M1305.17 706.933V747.143M1305.17 747.143L1339.5 767.248L1373.83 747.143M1373.83 706.933V747.143M1373.83 706.933L1408.17 686.828L1442.5 706.933V747.143L1408.17 767.248L1373.83 747.143M137.833 949.265V989.475M137.833 989.475L172.167 1009.58L206.5 989.475M206.5 949.265V989.475M206.5 989.475L240.833 1009.58L275.167 989.475M275.167 949.265V989.475M275.167 989.475L309.5 1009.58L343.833 989.475M343.833 949.265V989.475M343.833 989.475L378.167 1009.58L412.5 989.475M412.5 949.265V989.475M412.5 989.475L446.833 1009.58L481.167 989.475M481.167 949.265V989.475M481.167 989.475L515.5 1009.58L549.833 989.475M549.833 949.265V989.475M549.833 989.475L584.167 1009.58L618.5 989.475M618.5 949.265V989.475M618.5 989.475L652.833 1009.58L687.167 989.475M687.167 949.265V989.475M687.167 989.475L721.5 1009.58L755.833 989.475M755.833 949.265V989.475M755.833 989.475L790.167 1009.58L824.5 989.475M824.5 949.265V989.475M824.5 989.475L858.833 1009.58L893.167 989.475M893.167 949.265V989.475M893.167 989.475L927.5 1009.58L961.833 989.475M961.833 949.265V989.475M961.833 989.475L996.167 1009.58L1030.5 989.475M1030.5 949.265V989.475M1030.5 989.475L1064.83 1009.58L1099.17 989.475M1099.17 949.265V989.475M1099.17 989.475L1133.5 1009.58L1167.83 989.475M1167.83 949.265V989.475M1167.83 989.475L1202.17 1009.58L1236.5 989.475M1236.5 949.265V989.475M1236.5 989.475L1270.83 1009.58L1305.17 989.475M1305.17 949.265V989.475M1305.17 989.475L1339.5 1009.58L1373.83 989.475M1373.83 949.265V989.475M1373.83 949.265L1408.17 929.16L1442.5 949.265V989.475L1408.17 1009.58L1373.83 989.475" stroke="white"/>
</svg>
