<svg width="13" height="13" viewBox="0 0 13 13" fill="none" xmlns="http://www.w3.org/2000/svg">
<path fill-rule="evenodd" clip-rule="evenodd" d="M6.35042 1.44583C6.2786 1.43335 6.19255 1.43533 5.75891 1.47475L3.14599 1.71229C2.79534 1.74416 2.57157 1.76501 2.40103 1.79351C2.23938 1.82053 2.17724 1.847 2.14421 1.86537C2.0269 1.9306 1.93022 2.02728 1.86499 2.14459C1.84693 2.17706 1.82075 2.23835 1.79401 2.39825C1.76577 2.56713 1.74517 2.78853 1.7136 3.13586L1.71317 3.14063L1.71239 3.1484L1.47418 5.76876C1.43536 6.19572 1.43348 6.28016 1.4457 6.35045C1.46023 6.43401 1.48916 6.51392 1.53098 6.58653C1.56693 6.64895 1.62303 6.71322 1.9284 7.01858L5.65398 10.7442C5.94567 11.0359 6.13419 11.2236 6.28914 11.3551C6.43754 11.481 6.50739 11.5128 6.54508 11.525C6.68999 11.5721 6.84624 11.5721 6.99048 11.5252C7.02852 11.5129 7.09913 11.4807 7.24889 11.3536C7.40499 11.2211 7.59505 11.0319 7.88843 10.7386L10.7389 7.88811C11.0323 7.59471 11.2213 7.40486 11.3535 7.24896C11.4803 7.09954 11.5124 7.02905 11.5248 6.99086C11.5715 6.84718 11.5715 6.69129 11.5243 6.54581C11.5118 6.50743 11.4796 6.43688 11.353 6.28757C11.2209 6.13177 11.0321 5.94194 10.7387 5.64862L7.02236 1.93223C6.71443 1.6243 6.64966 1.56774 6.5865 1.53136C6.51331 1.48921 6.43332 1.46025 6.35042 1.44583ZM5.69566 0.034816C6.02394 0.00463359 6.31312 -0.0219542 6.59706 0.0274169C6.84637 0.0707676 7.08607 0.157667 7.30508 0.283815C7.55478 0.427637 7.75986 0.633145 7.99264 0.866408C8.00842 0.882219 8.02433 0.898157 8.04038 0.914213L11.7722 4.64603C12.0425 4.91627 12.2752 5.14905 12.4511 5.35647C12.6358 5.57432 12.7992 5.81058 12.8935 6.10092C13.0341 6.53375 13.0353 7.00112 12.8941 7.43575C12.7997 7.72628 12.6361 7.96263 12.4513 8.18039C12.2759 8.38719 12.0438 8.61928 11.7745 8.88852L8.88892 11.7741C8.61963 12.0434 8.38737 12.2757 8.18041 12.4513C7.96262 12.6361 7.72605 12.8 7.43537 12.8945C7.0013 13.0355 6.53358 13.0351 6.10019 12.8942C5.81019 12.8 5.57448 12.6368 5.35761 12.4528C5.15231 12.2786 4.9221 12.0483 4.65558 11.7818L0.91038 8.03661C0.894407 8.02063 0.878543 8.0048 0.862801 7.98909C0.631745 7.75853 0.426801 7.55401 0.283433 7.30511C0.156952 7.08552 0.0705168 6.84574 0.0272808 6.59709C-0.0218025 6.3148 0.0046245 6.0275 0.0342981 5.7049C0.0363213 5.68291 0.0383598 5.66075 0.0403903 5.63841C0.0403901 5.63841 0.0403905 5.63841 0.0403903 5.63841L0.279255 3.0109L0.280029 3.00314L0.28204 2.98101C0.31073 2.66527 0.335794 2.38945 0.374033 2.16079C0.414762 1.91724 0.477561 1.67721 0.606745 1.4449C0.802447 1.09298 1.09259 0.802828 1.44452 0.607127C1.6776 0.477515 1.91864 0.41447 2.16367 0.373513C2.39427 0.334969 2.67281 0.309656 2.99256 0.280597L5.62857 0.0409613C5.65112 0.0389113 5.67348 0.0368555 5.69566 0.034816ZM3.04218 3.04242C3.60442 2.48019 4.51631 2.48019 5.07855 3.04242C5.64078 3.60466 5.64078 4.51623 5.07855 5.07847C4.51617 5.64085 3.604 5.64045 3.04191 5.07836C2.47932 4.51577 2.48029 3.60431 3.04218 3.04242Z" fill="#2A67E8"/>
</svg>
