<svg width="29" height="29" viewBox="0 0 29 29" fill="none" xmlns="http://www.w3.org/2000/svg">
<path d="M18.8406 6.70578C15.9605 6.15789 13.0397 6.15789 10.159 6.70578C8.89903 6.9864 7.31391 8.50535 7.00401 9.72712C6.48857 12.0911 6.48857 14.4876 7.00401 16.8516C7.31391 18.0734 8.89903 19.5923 10.159 19.8729C10.1593 19.873 10.1596 19.8731 10.1599 19.8731C10.2161 19.8841 10.257 19.9327 10.257 19.99V23.453C10.257 23.6261 10.4682 23.7114 10.5885 23.586L12.2335 21.8978C12.2335 21.8978 13.5443 20.5522 13.78 20.3103C13.803 20.2866 13.8348 20.2738 13.8678 20.2747C15.5286 20.3207 17.1911 20.1866 18.8406 19.873C20.1005 19.5924 21.6863 18.0734 21.9956 16.8517C22.5116 14.4876 22.5116 12.0912 21.9956 9.72719C21.6862 8.50535 20.1012 6.9864 18.8406 6.70578ZM18.8845 17.0279C18.6325 17.563 18.2658 18.0081 17.7369 18.2922C17.5877 18.3724 17.4093 18.3983 17.2409 18.4501C17.0472 18.3913 16.8626 18.3518 16.6911 18.2807C14.9147 17.5437 13.2799 16.5929 11.9848 15.1353C11.2484 14.3065 10.6719 13.3707 10.1848 12.3805C9.9537 11.9109 9.75898 11.4228 9.56051 10.938C9.37947 10.4959 9.64609 10.0391 9.92678 9.706C10.1902 9.39336 10.5291 9.1541 10.8961 8.97777C11.1826 8.84013 11.4652 8.91948 11.6744 9.16231C12.1267 9.68729 12.5422 10.2391 12.8786 10.8477C13.0855 11.2219 13.0288 11.6795 12.6538 11.9342C12.5627 11.9961 12.4797 12.0688 12.3948 12.1387C12.3203 12.2 12.2503 12.2619 12.1992 12.3449C12.1059 12.4967 12.1015 12.6758 12.1615 12.8409C12.6239 14.1115 13.4032 15.0996 14.6822 15.6317C14.8869 15.7169 15.0923 15.816 15.3281 15.7885C15.723 15.7424 15.8508 15.3093 16.1275 15.083C16.3979 14.8619 16.7435 14.859 17.0348 15.0433C17.3262 15.2277 17.6087 15.4257 17.8894 15.6257C18.165 15.8221 18.4394 16.0142 18.6936 16.2381C18.9379 16.4533 19.0221 16.7357 18.8845 17.0279ZM16.5909 12.8873C16.4806 12.8893 16.5239 12.8871 16.5659 12.8859C16.3881 12.8797 16.2915 12.7751 16.2724 12.605C16.2584 12.4807 16.2474 12.3548 16.2178 12.2339C16.1594 11.9957 16.0328 11.7751 15.8325 11.6291C15.738 11.5602 15.6308 11.51 15.5186 11.4776C15.376 11.4365 15.2279 11.4478 15.0856 11.4129C14.9311 11.3751 14.8456 11.2499 14.8699 11.105C14.892 10.9731 15.0203 10.8701 15.1644 10.8806C16.0653 10.9456 16.7092 11.4113 16.801 12.4719C16.8075 12.5467 16.8152 12.6258 16.7986 12.6974C16.7716 12.8138 16.6884 12.8743 16.6043 12.8853C16.6112 12.8855 16.6099 12.886 16.5909 12.8873ZM16.0307 10.4616C15.7543 10.3263 15.4553 10.2422 15.1523 10.192C15.0199 10.1701 14.886 10.1568 14.753 10.1383C14.5917 10.1159 14.5057 10.0132 14.5133 9.85426C14.5204 9.70536 14.6292 9.59826 14.7915 9.60743C15.3247 9.63772 15.8398 9.75296 16.3139 10.004C17.2779 10.5145 17.8286 11.3204 17.9893 12.3964C17.9967 12.4452 18.0083 12.4935 18.012 12.5424C18.0212 12.6632 18.0268 12.7842 18.0361 12.9434C18.0323 12.9725 18.0303 13.0407 18.0133 13.1049C17.9517 13.3382 17.598 13.3674 17.5165 13.132C17.4924 13.0621 17.4888 12.9826 17.4887 12.9074C17.4878 12.4153 17.3809 11.9236 17.1327 11.4954C16.8776 11.0555 16.4878 10.6855 16.0307 10.4616ZM19.0095 13.7872C18.8233 13.7895 18.7395 13.6336 18.7274 13.4666C18.7034 13.1359 18.6869 12.8038 18.6413 12.4759C18.4007 10.745 17.0205 9.31299 15.2977 9.0057C15.0384 8.95944 14.773 8.94729 14.5105 8.91973C14.3444 8.9023 14.127 8.89224 14.0902 8.68588C14.0594 8.51286 14.2054 8.37509 14.3702 8.36624C14.415 8.36383 14.46 8.36586 14.505 8.36605C16.7363 8.42861 14.6412 8.37089 14.511 8.36637C16.8318 8.43401 18.7374 9.97523 19.146 12.2704C19.2157 12.6618 19.2405 13.062 19.2715 13.4593C19.2845 13.6263 19.1899 13.7851 19.0095 13.7872Z" fill="white"/>
</svg>
