<svg width="29" height="29" viewBox="0 0 29 29" fill="none" xmlns="http://www.w3.org/2000/svg">
<path d="M18.8405 6.70578C15.9604 6.15789 13.0396 6.15789 10.1589 6.70578C8.89891 6.9864 7.31378 8.50535 7.00389 9.72712C6.48845 12.0911 6.48845 14.4876 7.00389 16.8516C7.31378 18.0734 8.89891 19.5923 10.1589 19.8729C10.1592 19.873 10.1595 19.8731 10.1598 19.8731C10.2159 19.8841 10.2569 19.9327 10.2569 19.99V23.453C10.2569 23.6261 10.4681 23.7114 10.5884 23.586L12.2333 21.8978C12.2333 21.8978 13.5441 20.5522 13.7798 20.3103C13.8029 20.2866 13.8347 20.2738 13.8676 20.2747C15.5284 20.3207 17.191 20.1866 18.8405 19.873C20.1004 19.5924 21.6862 18.0734 21.9954 16.8517C22.5115 14.4876 22.5115 12.0912 21.9954 9.72719C21.6861 8.50535 20.101 6.9864 18.8405 6.70578ZM18.8844 17.0279C18.6324 17.563 18.2657 18.0081 17.7368 18.2922C17.5876 18.3724 17.4092 18.3983 17.2408 18.4501C17.0471 18.3913 16.8625 18.3518 16.691 18.2807C14.9146 17.5437 13.2797 16.5929 11.9847 15.1353C11.2483 14.3065 10.6718 13.3707 10.1846 12.3805C9.95358 11.9109 9.75886 11.4228 9.56038 10.938C9.37934 10.4959 9.64597 10.0391 9.92666 9.706C10.19 9.39336 10.529 9.1541 10.896 8.97777C11.1825 8.84013 11.4651 8.91948 11.6743 9.16231C12.1266 9.68729 12.5421 10.2391 12.8785 10.8477C13.0854 11.2219 13.0286 11.6795 12.6537 11.9342C12.5626 11.9961 12.4795 12.0688 12.3946 12.1387C12.3202 12.2 12.2501 12.2619 12.1991 12.3449C12.1058 12.4967 12.1014 12.6758 12.1614 12.8409C12.6238 14.1115 13.4031 15.0996 14.682 15.6317C14.8867 15.7169 15.0922 15.816 15.328 15.7885C15.7228 15.7424 15.8507 15.3093 16.1274 15.083C16.3978 14.8619 16.7434 14.859 17.0347 15.0433C17.3261 15.2277 17.6086 15.4257 17.8893 15.6257C18.1649 15.8221 18.4393 16.0142 18.6935 16.2381C18.9378 16.4533 19.022 16.7357 18.8844 17.0279ZM16.5907 12.8873C16.4805 12.8893 16.5238 12.8871 16.5657 12.8859C16.388 12.8797 16.2913 12.7751 16.2722 12.605C16.2583 12.4807 16.2473 12.3548 16.2176 12.2339C16.1592 11.9957 16.0327 11.7751 15.8324 11.6291C15.7378 11.5602 15.6307 11.51 15.5184 11.4776C15.3758 11.4365 15.2278 11.4478 15.0855 11.4129C14.931 11.3751 14.8455 11.2499 14.8698 11.105C14.8918 10.9731 15.0202 10.8701 15.1643 10.8806C16.0652 10.9456 16.709 11.4113 16.8009 12.4719C16.8074 12.5467 16.815 12.6258 16.7984 12.6974C16.7715 12.8138 16.6883 12.8743 16.6042 12.8853C16.6111 12.8855 16.6098 12.886 16.5907 12.8873ZM16.0306 10.4616C15.7541 10.3263 15.4552 10.2422 15.1522 10.192C15.0197 10.1701 14.8859 10.1568 14.7529 10.1383C14.5916 10.1159 14.5056 10.0132 14.5131 9.85426C14.5203 9.70536 14.6291 9.59826 14.7914 9.60743C15.3246 9.63772 15.8397 9.75296 16.3137 10.004C17.2778 10.5145 17.8285 11.3204 17.9892 12.3964C17.9965 12.4452 18.0082 12.4935 18.0119 12.5424C18.021 12.6632 18.0267 12.7842 18.036 12.9434C18.0322 12.9725 18.0301 13.0407 18.0132 13.1049C17.9515 13.3382 17.5979 13.3674 17.5164 13.132C17.4923 13.0621 17.4887 12.9826 17.4885 12.9074C17.4877 12.4153 17.3808 11.9236 17.1326 11.4954C16.8775 11.0555 16.4876 10.6855 16.0306 10.4616ZM19.0094 13.7872C18.8231 13.7895 18.7393 13.6336 18.7272 13.4666C18.7033 13.1359 18.6868 12.8038 18.6412 12.4759C18.4006 10.745 17.0204 9.31299 15.2976 9.0057C15.0383 8.95944 14.7729 8.94729 14.5103 8.91973C14.3443 8.9023 14.1269 8.89224 14.0901 8.68588C14.0592 8.51286 14.2053 8.37509 14.37 8.36624C14.4148 8.36383 14.4599 8.36586 14.5049 8.36605C16.7362 8.42861 14.6411 8.37089 14.5109 8.36637C16.8317 8.43401 18.7372 9.97523 19.1459 12.2704C19.2156 12.6618 19.2404 13.062 19.2714 13.4593C19.2844 13.6263 19.1897 13.7851 19.0094 13.7872Z" fill="white"/>
</svg>
