<svg width="20" height="21" viewBox="0 0 20 21" fill="none" xmlns="http://www.w3.org/2000/svg">
<path d="M12.9935 4.85591C11.0072 4.45916 8.9929 4.45916 7.0062 4.85591C6.13727 5.05912 5.04408 6.15905 4.83036 7.04378C4.47488 8.75564 4.47488 10.491 4.83036 12.2029C5.04408 13.0876 6.13727 14.1875 7.0062 14.3907C7.00642 14.3908 7.00664 14.3908 7.00686 14.3909C7.04557 14.3989 7.07379 14.4341 7.07379 14.4755V16.9832C7.07379 17.1086 7.21948 17.1703 7.30243 17.0795L8.43687 15.857C8.43687 15.857 9.34087 14.8826 9.50342 14.7075C9.51931 14.6903 9.54125 14.681 9.56398 14.6817C10.7094 14.715 11.8559 14.6179 12.9935 14.3908C13.8624 14.1876 14.9561 13.0877 15.1694 12.2029C15.5253 10.4911 15.5253 8.75569 15.1694 7.04383C14.956 6.15905 13.8629 5.05912 12.9935 4.85591ZM13.0238 12.3306C12.85 12.718 12.5971 13.0403 12.2324 13.2461C12.1294 13.3041 12.0064 13.3229 11.8903 13.3604C11.7567 13.3179 11.6294 13.2893 11.5111 13.2377C10.286 12.704 9.15852 12.0155 8.26541 10.9601C7.75752 10.3599 7.35996 9.68226 7.02397 8.96517C6.86463 8.6251 6.73034 8.27171 6.59346 7.92063C6.4686 7.60047 6.65248 7.26971 6.84606 7.02848C7.0277 6.80209 7.26144 6.62883 7.51457 6.50114C7.71214 6.40147 7.90704 6.45893 8.05134 6.63477C8.36327 7.01493 8.6498 7.41454 8.88182 7.8552C9.0245 8.12624 8.98535 8.45755 8.72678 8.64201C8.66393 8.68685 8.60666 8.73947 8.54812 8.79011C8.49677 8.83449 8.44846 8.87932 8.41326 8.93941C8.34892 9.04931 8.34585 9.17903 8.38728 9.29856C8.70615 10.2187 9.24362 10.9342 10.1256 11.3195C10.2668 11.3812 10.4085 11.453 10.5711 11.4331C10.8434 11.3997 10.9316 11.086 11.1224 10.9222C11.3089 10.7621 11.5473 10.7599 11.7482 10.8934C11.9491 11.027 12.1439 11.1703 12.3375 11.3152C12.5276 11.4574 12.7169 11.5965 12.8922 11.7586C13.0607 11.9145 13.1187 12.119 13.0238 12.3306ZM11.442 9.33219C11.3659 9.33362 11.3958 9.33206 11.4247 9.33118C11.3022 9.32667 11.2355 9.25091 11.2223 9.12774C11.2127 9.03774 11.2051 8.94655 11.1847 8.859C11.1444 8.68657 11.0571 8.52677 10.919 8.4211C10.8538 8.3712 10.7799 8.3348 10.7025 8.31139C10.6041 8.28157 10.502 8.28978 10.4039 8.26453C10.2973 8.23715 10.2384 8.14652 10.2551 8.04155C10.2703 7.94602 10.3588 7.87146 10.4582 7.87902C11.0795 7.92612 11.5236 8.26337 11.5869 9.03139C11.5914 9.08558 11.5967 9.14281 11.5852 9.19465C11.5666 9.27893 11.5093 9.32279 11.4513 9.33077C11.456 9.33086 11.4551 9.33127 11.442 9.33219ZM11.0557 7.57568C10.865 7.47767 10.6588 7.41675 10.4499 7.38044C10.3585 7.36459 10.2662 7.35496 10.1745 7.34155C10.0633 7.32533 10.0039 7.25091 10.0092 7.13585C10.0141 7.02802 10.0891 6.95047 10.201 6.9571C10.5688 6.97904 10.924 7.06249 11.2509 7.24427C11.9158 7.61397 12.2956 8.19753 12.4064 8.97674C12.4115 9.01203 12.4195 9.04701 12.4221 9.08244C12.4284 9.1699 12.4323 9.2575 12.4387 9.37284C12.4361 9.39385 12.4347 9.44325 12.423 9.48979C12.3805 9.65872 12.1366 9.67987 12.0804 9.50937C12.0637 9.45878 12.0612 9.40122 12.0612 9.34676C12.0606 8.99037 11.9868 8.63436 11.8157 8.32429C11.6397 8.00569 11.3709 7.73779 11.0557 7.57568ZM13.11 9.98385C12.9816 9.98547 12.9238 9.87262 12.9154 9.75166C12.8989 9.51223 12.8875 9.27174 12.8561 9.03429C12.6902 7.78087 11.7383 6.74389 10.5501 6.52137C10.3713 6.48787 10.1883 6.47907 10.0072 6.45912C9.89273 6.44649 9.74277 6.43921 9.71741 6.28978C9.69612 6.16448 9.79684 6.06472 9.91046 6.05832C9.94135 6.05657 9.97242 6.05804 10.0035 6.05818C11.5423 6.10347 10.0974 6.06168 10.0076 6.05841C11.6082 6.10739 12.9223 7.22344 13.2042 8.88545C13.2522 9.16889 13.2693 9.45868 13.2907 9.74636C13.2997 9.86732 13.2344 9.98229 13.11 9.98385Z" fill="#E41D10"/>
</svg>
