<svg width="29" height="29" viewBox="0 0 29 29" fill="none" xmlns="http://www.w3.org/2000/svg">
<path d="M18.8405 6.70584C15.9604 6.15795 13.0396 6.15795 10.1589 6.70584C8.89891 6.98646 7.31378 8.50541 7.00389 9.72718C6.48845 12.0912 6.48845 14.4876 7.00389 16.8517C7.31378 18.0734 8.89891 19.5924 10.1589 19.873C10.1592 19.8731 10.1595 19.8731 10.1598 19.8732C10.2159 19.8842 10.2569 19.9328 10.2569 19.99V23.4531C10.2569 23.6262 10.4681 23.7115 10.5884 23.5861L12.2333 21.8979C12.2333 21.8979 13.5441 20.5523 13.7798 20.3104C13.8029 20.2867 13.8347 20.2739 13.8676 20.2748C15.5284 20.3208 17.191 20.1866 18.8405 19.8731C20.1004 19.5924 21.6862 18.0735 21.9954 16.8517C22.5115 14.4877 22.5115 12.0913 21.9954 9.72725C21.6861 8.50541 20.101 6.98646 18.8405 6.70584ZM18.8844 17.028C18.6324 17.563 18.2657 18.0081 17.7368 18.2923C17.5876 18.3724 17.4092 18.3983 17.2408 18.4502C17.0471 18.3914 16.8625 18.3519 16.691 18.2807C14.9146 17.5437 13.2797 16.5929 11.9847 15.1354C11.2483 14.3065 10.6718 13.3708 10.1846 12.3805C9.95358 11.9109 9.75886 11.4229 9.56038 10.9381C9.37934 10.4959 9.64597 10.0392 9.92666 9.70606C10.19 9.39342 10.529 9.15416 10.896 8.97783C11.1825 8.84019 11.4651 8.91954 11.6743 9.16237C12.1266 9.68735 12.5421 10.2392 12.8785 10.8477C13.0854 11.222 13.0286 11.6795 12.6537 11.9343C12.5626 11.9962 12.4795 12.0689 12.3946 12.1388C12.3202 12.2001 12.2501 12.262 12.1991 12.345C12.1058 12.4967 12.1014 12.6759 12.1614 12.8409C12.6238 14.1116 13.4031 15.0996 14.682 15.6318C14.8867 15.7169 15.0922 15.8161 15.328 15.7886C15.7228 15.7424 15.8507 15.3094 16.1274 15.0831C16.3978 14.8619 16.7434 14.859 17.0347 15.0434C17.3261 15.2278 17.6086 15.4257 17.8893 15.6258C18.1649 15.8222 18.4393 16.0143 18.6935 16.2382C18.9378 16.4534 19.022 16.7358 18.8844 17.028ZM16.5907 12.8874C16.4805 12.8893 16.5238 12.8872 16.5657 12.886C16.388 12.8797 16.2913 12.7751 16.2722 12.605C16.2583 12.4808 16.2473 12.3548 16.2176 12.2339C16.1592 11.9958 16.0327 11.7751 15.8324 11.6292C15.7378 11.5603 15.6307 11.51 15.5184 11.4777C15.3758 11.4365 15.2278 11.4478 15.0855 11.413C14.931 11.3752 14.8455 11.25 14.8698 11.1051C14.8918 10.9731 15.0202 10.8702 15.1643 10.8806C16.0652 10.9456 16.709 11.4114 16.8009 12.472C16.8074 12.5468 16.815 12.6258 16.7984 12.6974C16.7715 12.8138 16.6883 12.8744 16.6042 12.8854C16.6111 12.8855 16.6098 12.8861 16.5907 12.8874ZM16.0306 10.4617C15.7541 10.3264 15.4552 10.2422 15.1522 10.1921C15.0197 10.1702 14.8859 10.1569 14.7529 10.1384C14.5916 10.116 14.5056 10.0132 14.5131 9.85432C14.5203 9.70542 14.6291 9.59832 14.7914 9.60749C15.3246 9.63778 15.8397 9.75302 16.3137 10.0041C17.2778 10.5146 17.8285 11.3205 17.9892 12.3965C17.9965 12.4452 18.0082 12.4935 18.0119 12.5425C18.021 12.6633 18.0267 12.7842 18.036 12.9435C18.0322 12.9725 18.0301 13.0407 18.0132 13.105C17.9515 13.3383 17.5979 13.3675 17.5164 13.132C17.4923 13.0622 17.4887 12.9827 17.4885 12.9075C17.4877 12.4153 17.3808 11.9237 17.1326 11.4955C16.8775 11.0555 16.4876 10.6856 16.0306 10.4617ZM19.0094 13.7873C18.8231 13.7895 18.7393 13.6337 18.7272 13.4666C18.7033 13.136 18.6868 12.8039 18.6412 12.476C18.4006 10.7451 17.0204 9.31305 15.2976 9.00576C15.0383 8.9595 14.7729 8.94735 14.5103 8.91979C14.3443 8.90236 14.1269 8.8923 14.0901 8.68594C14.0592 8.51292 14.2053 8.37515 14.37 8.36631C14.4148 8.36389 14.4599 8.36592 14.5049 8.36611C16.7362 8.42867 14.6411 8.37095 14.5109 8.36643C16.8317 8.43408 18.7372 9.97529 19.1459 12.2704C19.2156 12.6619 19.2404 13.0621 19.2714 13.4593C19.2844 13.6264 19.1897 13.7851 19.0094 13.7873Z" fill="white"/>
</svg>
