<svg width="20" height="20" viewBox="0 0 20 20" fill="none" xmlns="http://www.w3.org/2000/svg">
<g clip-path="url(#clip0_172_124)">
<path d="M19.9 14.5999C19.9 14.4999 19.9 14.4999 19.8 14.4999C19.5 13.8999 18.8 13.0999 17.8 12.1999C17.4 11.7999 17.1 11.4999 17 11.2999C16.8 10.9999 16.7 10.6999 16.9 10.4999C17 10.2999 17.3 9.7999 17.8 9.0999C18.1 8.6999 18.3 8.3999 18.5 8.1999C19.7 6.5999 20.2 5.5999 20.1 5.0999L19.9 4.9999C19.9 4.8999 19.8 4.8999 19.6 4.7999C19.4 4.6999 19.2 4.6999 18.9 4.7999H15.9C15.9 4.7999 15.8 4.7999 15.7 4.7999H15.6H15.5L15.4 4.8999C15.4 4.9999 15.3 4.9999 15.3 5.0999C15 5.8999 14.6 6.6999 14.2 7.3999C13.9 7.7999 13.7 8.1999 13.5 8.4999C13.2 8.9999 13 9.1999 12.9 9.3999C12.8 9.4999 12.6 9.5999 12.5 9.7999C12.4 9.8999 12.3 9.8999 12.2 9.8999C12.1 9.8999 12.1 9.8999 12 9.8999C11.9 9.7999 11.8 9.6999 11.8 9.5999C11.7 9.4999 11.7 9.2999 11.7 9.1999C11.7 9.0999 11.7 8.8999 11.7 8.7999C11.7 8.6999 11.7 8.4999 11.7 8.2999C11.7 8.0999 11.7 7.8999 11.7 7.8999C11.7 7.5999 11.7 7.3999 11.7 6.9999C11.7 6.6999 11.7 6.3999 11.7 6.2999C11.7 6.1999 11.7 5.8999 11.7 5.6999C11.7 5.4999 11.7 5.3999 11.7 5.1999C11.7 5.0999 11.6 4.9999 11.6 4.8999C11.6 4.7999 11.5 4.6999 11.4 4.5999C11.3 4.4999 11.2 4.4999 11.1 4.4999C10.7 4.3999 10.3 4.3999 9.69998 4.3999C8.39997 4.3999 7.59998 4.4999 7.19998 4.6999C6.99998 4.5999 6.89998 4.6999 6.69998 4.8999C6.59998 4.9999 6.59998 5.0999 6.69998 5.0999C7.09998 5.1999 7.39998 5.2999 7.59998 5.4999L7.69998 5.5999C7.69998 5.6999 7.79998 5.8999 7.79998 6.0999C7.89998 6.2999 7.89998 6.5999 7.89998 6.8999C7.89998 7.2999 7.89998 7.7999 7.89998 8.1999C7.89998 8.5999 7.79998 8.7999 7.79998 8.9999C7.79998 9.1999 7.69998 9.3999 7.69998 9.4999C7.59998 9.6999 7.49998 9.7999 7.49998 9.7999C7.49998 9.7999 7.49998 9.7999 7.39998 9.8999C7.29998 9.8999 7.19998 9.9999 7.09998 9.9999C6.99998 9.9999 6.89998 9.9999 6.69998 9.8999C6.69998 9.5999 6.49998 9.4999 6.39998 9.2999C6.19998 9.0999 5.99998 8.8999 5.89998 8.5999C5.69998 8.2999 5.49998 7.9999 5.29998 7.4999L5.09998 7.1999C4.99998 7.0999 4.89998 6.7999 4.69998 6.3999C4.49998 5.9999 4.39998 5.6999 4.19998 5.2999C4.19998 5.1999 4.09998 5.0999 3.99998 4.9999H3.89998C3.79998 4.9999 3.79998 4.8999 3.69998 4.8999C3.59998 4.8999 3.49998 4.7999 3.49998 4.7999H0.699976C0.399976 4.7999 0.199976 4.8999 0.0999756 4.9999V5.0999C0.0999756 5.1999 0.0999756 5.1999 0.0999756 5.2999C0.0999756 5.3999 0.0999756 5.4999 0.199976 5.5999C0.599976 6.5999 1.09998 7.4999 1.59998 8.3999C2.09998 9.2999 2.49998 9.9999 2.89998 10.5999C3.29998 11.1999 3.59998 11.6999 3.99998 12.1999C4.39998 12.6999 4.59998 12.9999 4.69998 13.0999C4.79998 13.1999 4.89998 13.2999 4.99998 13.3999L5.29998 13.6999C5.49998 13.8999 5.69998 14.0999 5.99998 14.2999C6.29998 14.4999 6.69998 14.7999 7.09998 14.9999C7.49998 15.1999 7.99998 15.3999 8.49998 15.4999C8.99998 15.5999 9.49998 15.6999 9.99998 15.6999H11C11.2 15.6999 11.4 15.5999 11.5 15.4999V15.3999C11.5 15.2999 11.6 15.2999 11.6 15.1999C11.6 15.0999 11.6 14.9999 11.6 14.8999C11.6 14.5999 11.6 14.3999 11.7 14.0999C11.8 13.8999 11.8 13.6999 11.9 13.5999C12 13.4999 12 13.3999 12.1 13.2999C12.2 13.1999 12.2 13.1999 12.3 13.1999H12.4C12.6 13.0999 12.8 13.1999 13 13.3999C13.2 13.5999 13.4 13.7999 13.6 13.9999C13.8 14.1999 14 14.4999 14.3 14.7999C14.6 15.0999 14.8 15.2999 15 15.4999L15.2 15.5999C15.4 15.6999 15.6 15.7999 15.7 15.7999C15.9 15.8999 16.1 15.8999 16.3 15.8999H19C19.3 15.8999 19.5 15.8999 19.6 15.7999C19.7 15.6999 19.8 15.5999 19.9 15.4999C19.9 15.3999 19.9 15.2999 19.9 15.0999C19.9 14.7999 19.9 14.6999 19.9 14.5999Z" fill="white"/>
</g>
<defs>
<clipPath id="clip0_172_124">
<rect width="20" height="20" fill="white"/>
</clipPath>
</defs>
</svg>
