<svg width="24" height="24" viewBox="0 0 24 24" fill="none" xmlns="http://www.w3.org/2000/svg">
<g clip-path="url(#clip0_5_139)">
<path d="M3.53911 0.0609283C3.43598 0.0984287 3.28598 0.159367 3.2063 0.201553C3.02348 0.295303 1.55161 1.70155 1.11098 2.19374C0.735983 2.6203 0.384421 3.27187 0.215671 3.84843C-0.646829 6.82968 1.12973 11.2406 5.02973 15.7969C5.70005 16.575 7.73442 18.5766 8.55473 19.2609C12.9516 22.9219 17.0907 24.5625 20.0438 23.8125C20.2454 23.7609 20.6485 23.6016 20.9297 23.4656C21.5391 23.1656 21.7922 22.95 22.9454 21.75C23.8829 20.775 23.9766 20.6203 23.9766 20.0391C23.9766 19.3922 24.0141 19.4391 21.5766 17.0109C19.561 15.0047 19.4157 14.8641 19.1719 14.7844C18.7922 14.6578 18.361 14.6766 18.0235 14.8312C17.8079 14.9297 17.5875 15.1125 16.9969 15.6984C16.0219 16.6594 15.6985 16.8375 14.9016 16.8375C14.4188 16.8375 14.0954 16.7344 13.5235 16.4156C11.6204 15.3516 9.96098 13.8891 8.64848 12.1219C7.98755 11.2266 7.37348 10.1812 7.23755 9.72655C7.07348 9.1453 7.17192 8.41405 7.48598 7.9078C7.55161 7.79999 7.92661 7.3828 8.32505 6.98437C8.89223 6.4078 9.07036 6.19687 9.1688 5.98124C9.32348 5.63905 9.34223 5.2078 9.21567 4.82812C9.13598 4.58436 8.99536 4.43905 6.98911 2.42343C4.62661 0.0515537 4.62192 0.0468655 4.04067 0.0187416C3.85786 0.00936508 3.64692 0.0281162 3.53911 0.0609283Z" fill="#654D31"/>
</g>
<defs>
<clipPath id="clip0_5_139">
<rect width="24" height="24" fill="white"/>
</clipPath>
</defs>
</svg>
