<svg width="64" height="64" viewBox="0 0 64 64" fill="none" xmlns="http://www.w3.org/2000/svg">
<rect width="64" height="64" rx="32" fill="#BF9E77"/>
<path d="M34.5479 17.063C28.2025 17.6648 22.8931 22.2201 21.3391 28.3903C20.7525 30.7137 20.7525 33.4103 21.3391 35.7337C22.5503 40.5632 26.1153 44.5091 30.8153 46.2154C34.6241 47.6018 38.7985 47.3886 42.455 45.6213C46.1266 43.8464 48.9223 40.6775 50.1944 36.8535C51.2685 33.6388 51.2685 30.4852 50.1944 27.2706C49.128 24.056 46.9646 21.2755 44.0547 19.3864C41.3276 17.6115 37.8006 16.7507 34.5479 17.063ZM37.0694 19.3407C39.3699 19.5692 41.5104 20.3614 43.3843 21.6869C44.306 22.3344 45.6391 23.6675 46.3018 24.5968C46.8808 25.4119 47.7797 27.1639 48.0615 28.0247C48.4652 29.2435 48.7166 30.8127 48.7166 32.062C48.7166 33.3113 48.4652 34.8805 48.0615 36.0993C47.7797 36.9601 46.8808 38.7121 46.3018 39.5272C45.6391 40.449 44.306 41.782 43.3843 42.4371C41.8684 43.5112 39.964 44.3187 38.1434 44.6462C37.0846 44.8291 35.0812 44.8671 34.129 44.7148C31.3409 44.273 29.0252 43.1227 27.0523 41.2107C25.2012 39.4053 23.9976 37.2343 23.4111 34.5987C23.2587 33.9436 23.2435 33.6312 23.2435 32.062C23.2435 30.4928 23.2587 30.1805 23.4111 29.5254C24.0052 26.844 25.2164 24.673 27.1361 22.8448C29.0938 20.9708 31.5619 19.7673 34.129 19.4245C35.4011 19.2493 35.9953 19.234 37.0694 19.3407Z" fill="white"/>
<path d="M34.3956 29.5634L34.4032 33.8521L37.3436 35.8479L40.284 37.8513L40.9163 36.922C41.2591 36.4116 41.5333 35.9774 41.5181 35.9545C41.5028 35.9241 40.4135 35.1699 39.0881 34.2711L36.6809 32.6333V28.9616V25.2823H35.5383H34.3956V29.5634Z" fill="white"/>
<path d="M14.1329 27.4914V28.634H16.342H18.5511V27.4914V26.3488H16.342H14.1329V27.4914Z" fill="white"/>
<path d="M12 32.062V33.2046H15.2756H18.5511V32.062V30.9193H15.2756H12V32.062Z" fill="white"/>
<path d="M14.1329 36.6325V37.7751H16.342H18.5511V36.6325V35.4899H16.342H14.1329V36.6325Z" fill="white"/>
</svg>
