<svg width="64" height="64" viewBox="0 0 64 64" fill="none" xmlns="http://www.w3.org/2000/svg">
<rect width="64" height="64" rx="32" fill="#BF9E77"/>
<path d="M28.9251 14.0855C21.5923 14.9144 15.4711 20.2158 13.5855 27.3755C11.8275 34.0432 14.1048 41.2302 19.388 45.6481C21.9203 47.7705 24.8169 49.1095 28.0597 49.656C29.2074 49.8473 31.594 49.9202 32.7417 49.7927C35.5564 49.4829 38.3802 48.5083 40.5481 47.0964C40.9671 46.8231 41.3406 46.5954 41.3588 46.5954C41.3861 46.5954 41.4044 47.2512 41.4044 48.0437V49.5012L41.6412 49.6833C41.878 49.8655 41.9873 49.8746 44.8658 49.8746H47.8444L48.063 49.6378L48.2816 49.401L48.309 39.7181L48.3272 30.0353L49.8393 29.9988L51.3514 29.9715L51.57 29.7165C51.8341 29.4068 51.8432 29.2064 51.6155 28.76C50.9597 27.4848 45.4579 18.0934 45.2666 17.9203C44.8111 17.5196 44.3648 17.7291 43.9093 18.5762C43.7636 18.8586 43.5905 19.0863 43.5359 19.0863C43.4903 19.0863 43.299 18.9406 43.126 18.7584C42.962 18.5762 42.4883 18.1754 42.0875 17.8566C39.4095 15.7615 36.2031 14.4407 32.9148 14.0855C31.8946 13.9671 29.927 13.9762 28.9251 14.0855ZM32.3956 15.5338C34.5271 15.7433 36.4491 16.299 38.362 17.2645C39.8103 17.9932 40.9853 18.8039 42.0602 19.8059L42.798 20.5073L42.0784 21.7461L41.3588 22.9849L40.4479 22.1014C38.5441 20.2796 36.358 19.1136 33.7437 18.5215C32.9148 18.3394 32.5595 18.312 30.929 18.312C29.3623 18.3211 28.9251 18.3485 28.1781 18.5215C22.7218 19.733 18.6957 23.7774 17.5206 29.2246C17.2474 30.4907 17.2291 33.2052 17.4751 34.4349C18.6592 40.2647 23.1044 44.555 28.8977 45.4659C30.1001 45.6481 32.596 45.6025 33.6617 45.3657C36.2851 44.7918 38.5441 43.5894 40.4297 41.7768L41.4044 40.8294L41.3861 42.7696L41.3588 44.7098L40.4935 45.3293C39.4277 46.0944 37.6515 47.0235 36.4309 47.4425C32.177 48.9182 27.6862 48.654 23.6874 46.6865C19.0965 44.4275 15.8446 40.21 14.8061 35.1636C14.296 32.686 14.4327 29.6618 15.1705 27.1751C17.3749 19.7968 24.7805 14.7869 32.3956 15.5338ZM33.4067 19.9972C35.8023 20.4982 37.8154 21.5913 39.5643 23.3311C40.0744 23.8412 40.4935 24.3148 40.4935 24.3786C40.4935 24.4515 39.8923 25.5263 39.1727 26.7834C38.4439 28.0313 37.8519 29.1517 37.8519 29.261C37.8519 29.3703 37.9521 29.5798 38.0705 29.7165L38.2891 29.9715L39.8467 29.9988L41.4135 30.0353L41.3861 34.189L41.3588 38.3518L40.9034 38.9894C40.6574 39.3355 40.0471 40.0369 39.537 40.547C37.7881 42.3051 35.7659 43.3799 33.1972 43.9265C32.1314 44.1542 29.7267 44.1542 28.6518 43.9265C23.6236 42.8607 19.9163 39.126 18.9325 34.1434C18.723 33.0504 18.723 30.8095 18.9416 29.7165C19.8981 24.8158 23.6236 21.0083 28.4332 20.0063C29.6811 19.7421 29.8086 19.733 31.2478 19.7695C32.0677 19.7968 32.8419 19.8697 33.4067 19.9972ZM47.3161 24.2602C48.6187 26.5283 49.6935 28.4048 49.6935 28.4321C49.6935 28.4503 49.1561 28.4685 48.5002 28.4685H47.307L47.0428 28.7327L46.7787 28.9969V38.707V48.4172H44.8202H42.8618V38.7252V29.0242L42.6432 28.7691C42.4246 28.5141 42.4063 28.5141 41.1857 28.4685L39.9469 28.423L42.379 24.2146C43.718 21.8919 44.8384 20.0336 44.8749 20.0701C44.9113 20.1065 46.0044 21.9921 47.3161 24.2602Z" fill="white"/>
<path d="M30.6102 22.2927C30.2641 22.4931 30.2094 22.6662 30.2003 23.5315C30.2003 24.2511 30.173 24.3786 30.0455 24.4242C28.8704 24.8068 27.9049 25.6448 27.3948 26.7288C27.1033 27.33 27.0577 27.5212 27.0304 28.25C26.9302 30.5728 28.415 32.3308 30.756 32.6587C31.6578 32.7862 32.2316 33.0595 32.6962 33.5787C33.179 34.1161 33.3885 34.6809 33.3885 35.4369C33.3885 36.5027 32.6324 37.5776 31.6487 37.8964C30.5647 38.2607 29.6629 38.0148 28.8522 37.1494C28.4514 36.7122 28.3239 36.6302 28.0597 36.6302C27.6316 36.6302 27.3401 36.9217 27.3401 37.3407C27.3401 37.9783 28.5425 39.0623 29.6082 39.3902L30.1548 39.5633L30.2003 40.4469C30.2368 41.2394 30.2732 41.3487 30.4645 41.5035C30.756 41.7404 31.1659 41.7221 31.43 41.4489C31.6396 41.2485 31.6578 41.1574 31.6578 40.3558C31.6578 39.6089 31.676 39.4813 31.8217 39.4358C33.4887 38.871 34.5817 37.6231 34.855 35.9744C35.1921 33.8975 33.6709 31.7023 31.6304 31.3015C31.3663 31.2559 30.9199 31.1648 30.6376 31.1102C29.672 30.9189 28.8067 30.1082 28.5516 29.17C28.3239 28.3228 28.6154 27.248 29.253 26.6103C30.3643 25.4991 32.0312 25.5537 33.0241 26.7197C33.2336 26.9838 33.4887 27.2115 33.5889 27.248C34.017 27.3846 34.5726 26.9929 34.5726 26.5557C34.5726 26.2642 34.2083 25.7359 33.68 25.2622C33.2336 24.8614 32.8784 24.661 32.2043 24.4515L31.7033 24.2967L31.6578 23.4131C31.6213 22.6206 31.5849 22.5113 31.3936 22.3565C31.1568 22.1652 30.8835 22.1378 30.6102 22.2927Z" fill="white"/>
</svg>
