<svg width="64" height="64" viewBox="0 0 64 64" fill="none" xmlns="http://www.w3.org/2000/svg">
<rect width="64" height="64" rx="32" fill="#BF9E77"/>
<path d="M23.9424 16.2275L16 19.1134V26.4736C16 33.1601 16.0166 33.9086 16.1497 34.7819C16.7651 38.699 18.337 41.7678 21.1896 44.5955C22.8862 46.2838 24.641 47.5479 26.9779 48.7621C28.7327 49.6769 31.3275 50.6666 31.9513 50.6666C32.2673 50.6666 34.1801 50.0179 35.253 49.5439C38.0141 48.3297 40.4675 46.7329 42.4053 44.8699C45.6155 41.7928 47.4285 38.0586 47.8111 33.7007C47.8693 33.0188 47.8942 30.3491 47.8776 25.8831L47.8527 19.1051L39.9103 16.2192C35.5441 14.6307 31.9513 13.3333 31.9263 13.3333C31.9014 13.3333 28.3086 14.6307 23.9424 16.2275ZM38.3468 18.4896C41.8813 19.7787 44.8753 20.8682 45.0084 20.9098L45.2329 20.9929V26.9227C45.2329 30.4406 45.1997 33.2017 45.1498 33.709C44.6092 39.0483 41.4156 43.4312 36.0015 46.2838C34.6375 47.0073 32.3505 47.9221 31.918 47.9221C31.6186 47.9221 29.7307 47.1736 28.4749 46.5499C27.1526 45.9012 25.639 44.9531 24.6077 44.1298C21.123 41.3437 19.1437 37.8341 18.7029 33.6924C18.6613 33.2516 18.6197 30.2743 18.6197 26.9559V21.0012L21.5139 19.945C23.1024 19.3712 26.0881 18.2817 28.1423 17.5332C30.2048 16.7764 31.8931 16.161 31.9014 16.161C31.918 16.1527 34.8122 17.2089 38.3468 18.4896Z" fill="white"/>
<path d="M34.1135 30.6401L29.2649 35.4887L27.061 33.2848L24.8571 31.0809L23.9256 32.0207L22.9858 32.9522L26.1295 36.0958L29.2649 39.2312L35.0616 33.4345L40.8666 27.6295L39.9517 26.7147C39.4528 26.2157 39.0203 25.7999 38.9953 25.7999C38.9704 25.7999 36.7748 27.9788 34.1135 30.6401Z" fill="white"/>
</svg>
