<svg width="32" height="32" viewBox="0 0 32 32" fill="none" xmlns="http://www.w3.org/2000/svg">
<g clip-path="url(#clip0_12_625)">
<path d="M27.6364 0H4.36364C1.95367 0 0 1.95367 0 4.36364V27.6364C0 30.0463 1.95367 32 4.36364 32H27.6364C30.0463 32 32 30.0463 32 27.6364V4.36364C32 1.95367 30.0463 0 27.6364 0Z" fill="#F96600"/>
<path d="M15.0163 20.0871C13.4654 19.9253 12.0672 19.5416 10.8709 18.6071C10.7218 18.4907 10.5691 18.378 10.4327 18.2435C9.90905 17.7398 9.85633 17.1635 10.2709 16.5707C10.6254 16.0616 11.22 15.9253 11.84 16.218C11.959 16.2783 12.0733 16.3476 12.1818 16.4253C13.2904 17.1788 14.5973 17.5874 15.9377 17.5997C17.2781 17.612 18.5922 17.2274 19.7145 16.4944C19.929 16.3206 20.1763 16.1919 20.4418 16.1162C20.6886 16.0432 20.9528 16.0554 21.1919 16.1507C21.4309 16.246 21.631 16.4189 21.76 16.6416C22.0872 17.1762 22.0836 17.6962 21.68 18.1107C21.0613 18.7365 20.3136 19.2198 19.4891 19.5271C18.6863 19.8155 17.8508 20.003 17.0018 20.0853C17.1291 20.2253 17.1836 20.2926 17.2709 20.3726C18.4218 21.5307 19.5781 22.6835 20.7254 23.8435C20.9082 24.0096 21.0322 24.2306 21.0787 24.4732C21.1253 24.7158 21.0919 24.9669 20.9836 25.1889C20.8733 25.4323 20.6938 25.6377 20.4674 25.7797C20.2411 25.9216 19.978 25.9938 19.7109 25.9871C19.3984 25.9563 19.1093 25.8082 18.9018 25.5726C18.0327 24.698 17.1472 23.8398 16.2963 22.9489C16.0491 22.6907 15.9327 22.7398 15.7109 22.9635C14.8363 23.8726 13.9472 24.7507 13.0545 25.6307C12.8888 25.8145 12.6667 25.9379 12.4231 25.9817C12.1796 26.0254 11.9284 25.9871 11.7091 25.8726C11.4714 25.7616 11.2708 25.5843 11.1315 25.3621C10.9922 25.1398 10.92 24.8821 10.9236 24.6198C10.9498 24.2957 11.1011 23.9945 11.3454 23.7798C12.4872 22.6416 13.6254 21.5029 14.76 20.3635C14.8363 20.2853 14.9091 20.2035 15.0163 20.0871Z" fill="white"/>
<path d="M15.9599 16.1236C14.9573 16.1177 13.979 15.8142 13.149 15.2516C12.3191 14.689 11.675 13.8925 11.2983 12.9633C10.9217 12.0341 10.8295 11.0139 11.0334 10.0322C11.2374 9.05051 11.7283 8.1515 12.4439 7.44919C13.1595 6.74687 14.0675 6.27291 15.0529 6.0874C16.0382 5.90188 17.0565 6.01319 17.9785 6.40719C18.9005 6.80119 19.6847 7.46013 20.2317 8.30045C20.7787 9.14078 21.0638 10.1246 21.0508 11.1272C21.0326 12.463 20.4874 13.7376 19.5339 14.6734C18.5804 15.6092 17.2959 16.1304 15.9599 16.1236ZM18.4745 11.0563C18.473 10.5662 18.3262 10.0876 18.0526 9.68098C17.7789 9.27439 17.3908 8.95814 16.9373 8.77226C16.4839 8.58638 15.9854 8.53923 15.5052 8.63679C15.0249 8.73435 14.5844 8.97222 14.2394 9.32028C13.8943 9.66835 13.6604 10.111 13.5671 10.5921C13.4737 11.0732 13.5253 11.5712 13.7152 12.023C13.905 12.4748 14.2247 12.8601 14.6337 13.1302C15.0427 13.4002 15.5226 13.5428 16.0126 13.5399C16.3376 13.5392 16.6592 13.4743 16.9589 13.349C17.2587 13.2236 17.5308 13.0403 17.7596 12.8096C17.9883 12.5788 18.1692 12.3051 18.2919 12.0042C18.4146 11.7034 18.4766 11.3812 18.4745 11.0563Z" fill="white"/>
</g>
<defs>
<clipPath id="clip0_12_625">
<rect width="32" height="32" fill="white"/>
</clipPath>
</defs>
</svg>
