<svg width="32" height="32" viewBox="0 0 32 32" fill="none" xmlns="http://www.w3.org/2000/svg">
<g clip-path="url(#clip0_12_632)">
<path d="M16 32C24.8366 32 32 24.8366 32 16C32 7.16344 24.8366 0 16 0C7.16344 0 0 7.16344 0 16C0 24.8366 7.16344 32 16 32Z" fill="#039BE5"/>
<path d="M7.32132 15.6531L22.748 9.70512C23.464 9.44645 24.0893 9.87979 23.8573 10.9625L23.8587 10.9611L21.232 23.3358C21.0373 24.2131 20.516 24.4265 19.7867 24.0131L15.7867 21.0651L13.8573 22.9238C13.644 23.1371 13.464 23.3171 13.0507 23.3171L13.3347 19.2465L20.748 12.5491C21.0707 12.2651 20.676 12.1051 20.2507 12.3878L11.0893 18.1558L7.13998 16.9238C6.28265 16.6518 6.26398 16.0665 7.32132 15.6531Z" fill="white"/>
</g>
<defs>
<clipPath id="clip0_12_632">
<rect width="32" height="32" fill="white"/>
</clipPath>
</defs>
</svg>
