<svg width="40" height="26" viewBox="0 0 40 26" fill="none" xmlns="http://www.w3.org/2000/svg">
<path fill-rule="evenodd" clip-rule="evenodd" d="M0.166645 13C0.166645 13.3781 0.315891 13.7408 0.581551 14.0081C0.84721 14.2755 1.20752 14.4257 1.58322 14.4257L34.9946 14.4257L26.0787 23.3964C25.8127 23.6641 25.6632 24.0272 25.6632 24.4058C25.6632 24.7844 25.8127 25.1475 26.0787 25.4152C26.3447 25.6829 26.7054 25.8333 27.0816 25.8333C27.4578 25.8333 27.8185 25.6829 28.0845 25.4152L39.4171 14.0094C39.5491 13.877 39.6537 13.7196 39.7251 13.5464C39.7966 13.3732 39.8333 13.1875 39.8333 13C39.8333 12.8125 39.7966 12.6268 39.7251 12.4536C39.6537 12.2804 39.5491 12.123 39.4171 11.9906L28.0845 0.584784C27.9528 0.452226 27.7965 0.347076 27.6244 0.275336C27.4523 0.203596 27.2679 0.166672 27.0816 0.166672C26.7054 0.166672 26.3447 0.317071 26.0787 0.584784C25.8127 0.852498 25.6632 1.21559 25.6632 1.5942C25.6632 1.9728 25.8127 2.3359 26.0787 2.60361L34.9946 11.5743L1.58322 11.5743C1.20752 11.5743 0.84721 11.7245 0.581551 11.9919C0.315891 12.2592 0.166645 12.6219 0.166645 13Z" fill="white"/>
</svg>
