<svg width="72" height="72" viewBox="0 0 72 72" fill="none" xmlns="http://www.w3.org/2000/svg">
<g clip-path="url(#clip0_5_189)">
<path d="M36 0C45.5478 0 54.7045 3.79285 61.4558 10.5442C68.2072 17.2955 72 26.4522 72 36C72 45.5478 68.2072 54.7045 61.4558 61.4558C54.7045 68.2072 45.5478 72 36 72C26.4522 72 17.2955 68.2072 10.5442 61.4558C3.79285 54.7045 0 45.5478 0 36C0 26.4522 3.79285 17.2955 10.5442 10.5442C17.2955 3.79285 26.4522 0 36 0ZM6.75 36C6.75 43.7576 9.83169 51.1974 15.3171 56.6829C20.8026 62.1683 28.2424 65.25 36 65.25C43.7576 65.25 51.1974 62.1683 56.6829 56.6829C62.1683 51.1974 65.25 43.7576 65.25 36C65.25 28.2424 62.1683 20.8026 56.6829 15.3171C51.1974 9.83169 43.7576 6.75 36 6.75C28.2424 6.75 20.8026 9.83169 15.3171 15.3171C9.83169 20.8026 6.75 28.2424 6.75 36ZM28.7055 23.5215L47.8935 35.037C48.0593 35.1371 48.1965 35.2784 48.2917 35.4471C48.3869 35.6158 48.4369 35.8063 48.4369 36C48.4369 36.1937 48.3869 36.3842 48.2917 36.5529C48.1965 36.7216 48.0593 36.8629 47.8935 36.963L28.7055 48.4785C28.5349 48.5813 28.34 48.6369 28.1408 48.6397C27.9417 48.6425 27.7453 48.5924 27.5719 48.4945C27.3984 48.3965 27.2541 48.2543 27.1536 48.0823C27.0531 47.9103 27.0001 47.7147 27 47.5155V24.489C26.9993 24.2894 27.0517 24.0933 27.1519 23.9206C27.252 23.748 27.3963 23.6051 27.5699 23.5066C27.7435 23.4082 27.9402 23.3576 28.1397 23.3603C28.3393 23.3629 28.5345 23.4185 28.7055 23.5215Z" fill="currentColor"/>
</g>
<defs>
<clipPath id="clip0_5_189">
<rect width="72" height="72" fill="white"/>
</clipPath>
</defs>
</svg>
